<svg width="50" height="50" viewBox="0 0 50 41" fill="none" xmlns="http://www.w3.org/2000/svg">
<g id="iconamoon:home-fill">
<path id="Vector" fill-rule="evenodd" clip-rule="evenodd" d="M21.1783 4.32172C20.8658 4.00927 20.442 3.83374 20 3.83374C19.5581 3.83374 19.1342 4.00927 18.8217 4.32172L7.15501 15.9884L3.82168 19.3217C3.6625 19.4755 3.53553 19.6594 3.44818 19.8627C3.36083 20.066 3.31485 20.2847 3.31293 20.506C3.31101 20.7273 3.35318 20.9468 3.43698 21.1516C3.52078 21.3565 3.64453 21.5426 3.80102 21.699C3.95751 21.8555 4.1436 21.9793 4.34842 22.0631C4.55325 22.1469 4.77272 22.1891 4.99402 22.1871C5.21531 22.1852 5.43401 22.1392 5.63735 22.0519C5.84069 21.9645 6.0246 21.8376 6.17835 21.6784L6.66668 21.1901V32.1667C6.66668 33.4928 7.19346 34.7646 8.13115 35.7023C9.06883 36.6399 10.3406 37.1667 11.6667 37.1667H28.3333C29.6594 37.1667 30.9312 36.6399 31.8689 35.7023C32.8066 34.7646 33.3333 33.4928 33.3333 32.1667V21.1901L33.8217 21.6784C34.136 21.982 34.557 22.15 34.994 22.1462C35.431 22.1424 35.849 21.9671 36.158 21.6581C36.4671 21.3491 36.6423 20.931 36.6461 20.4941C36.6499 20.0571 36.4819 19.6361 36.1783 19.3217L21.1783 4.32172Z" fill="currentColor"/>
</g>
</svg>
