<svg xmlns="http://www.w3.org/2000/svg" width="194" height="194" viewBox="0 0 194 194" fill="none">
  <path d="M60.1308 96.9375H59.4438V94.6176L57.3987 91.0286H58.1585L59.7509 93.7931H59.856L61.4323 91.0286H62.1759L60.1308 94.6176V96.9375Z" fill="black"/>
  <path d="M64.8867 97.0264C64.4664 97.0264 64.0986 96.9375 63.7874 96.7597C63.4742 96.5778 63.2337 96.3131 63.068 95.9675C62.9002 95.624 62.8174 95.2036 62.8174 94.7065C62.8174 94.2175 62.9002 93.7992 63.068 93.4536C63.2337 93.104 63.4742 92.8393 63.7874 92.6614C64.0986 92.4836 64.4664 92.3947 64.8867 92.3947C65.307 92.3947 65.6708 92.4836 65.978 92.6614C66.2892 92.8393 66.5297 93.104 66.6974 93.4536C66.8692 93.7992 66.956 94.2175 66.956 94.7065C66.956 95.2036 66.8692 95.624 66.6974 95.9675C66.5297 96.3131 66.2892 96.5778 65.978 96.7597C65.6708 96.9375 65.307 97.0264 64.8867 97.0264ZM64.8867 96.4283C65.3273 96.4283 65.6668 96.2888 65.9052 96.0079C66.1417 95.7291 66.2609 95.2946 66.2609 94.7065C66.2609 94.1205 66.1417 93.686 65.9052 93.4051C65.6668 93.1262 65.3273 92.9848 64.8867 92.9848C64.4381 92.9848 64.0966 93.1262 63.8601 93.4051C63.6217 93.686 63.5045 94.1205 63.5045 94.7065C63.5045 95.2946 63.6217 95.7291 63.8601 96.0079C64.0966 96.2888 64.4381 96.4283 64.8867 96.4283Z" fill="black"/>
  <path d="M69.6465 97.0264C69.1393 97.0264 68.7614 96.8931 68.5149 96.6223C68.2724 96.3535 68.1511 95.9635 68.1511 95.4502V92.4755H68.8059V95.434C68.8059 96.109 69.1231 96.4444 69.7597 96.4444C70.1639 96.4444 70.4811 96.3131 70.7135 96.0484C70.95 95.7857 71.0692 95.3572 71.0692 94.7631V92.4755H71.732V96.9375H71.1096V96.2343L71.0207 96.2181C70.8691 96.4889 70.6852 96.691 70.471 96.8244C70.2548 96.9577 69.98 97.0264 69.6465 97.0264Z" fill="black"/>
  <path d="M73.2788 96.9375V92.4755H73.9093V93.1788L73.9901 93.195C74.2003 92.6897 74.5903 92.4351 75.1622 92.4351C75.4694 92.4351 75.6977 92.4917 75.8493 92.6049L75.6796 93.1626L75.5987 93.1788C75.431 93.0939 75.2471 93.0495 75.0491 93.0495C74.6934 93.0495 74.4186 93.1848 74.2246 93.4536C74.0346 93.7183 73.9416 94.1488 73.9416 94.747V96.9375H73.2788Z" fill="black"/>
  <path d="M78.7499 98.7482V92.4755H79.4127V93.1464L79.4935 93.1626C79.827 92.6513 80.314 92.3947 80.9566 92.3947C81.3285 92.3947 81.6518 92.4816 81.9266 92.6534C82.2055 92.8211 82.4217 93.0777 82.5733 93.4213C82.7289 93.7668 82.8077 94.1952 82.8077 94.7065C82.8077 95.2198 82.7269 95.6482 82.5652 95.9918C82.4035 96.3373 82.1792 96.596 81.8943 96.7678C81.6073 96.9395 81.28 97.0264 80.9081 97.0264C80.605 97.0264 80.3362 96.9719 80.0998 96.8648C79.8674 96.7577 79.6653 96.5859 79.4935 96.3474L79.4127 96.3636V98.7482H78.7499ZM80.7626 96.4283C81.6619 96.4283 82.1125 95.8544 82.1125 94.7065C82.1125 93.5587 81.6619 92.9848 80.7626 92.9848C80.4979 92.9848 80.2635 93.0474 80.0594 93.1707C79.8593 93.2899 79.6997 93.4779 79.5825 93.7365C79.4693 93.9911 79.4127 94.3145 79.4127 94.7065C79.4127 95.1006 79.4693 95.4259 79.5825 95.6846C79.6997 95.9392 79.8593 96.1272 80.0594 96.2504C80.2635 96.3697 80.4979 96.4283 80.7626 96.4283Z" fill="black"/>
  <path d="M85.1344 97.0264C84.6918 97.0264 84.3463 96.9112 84.0997 96.6789C83.8572 96.4485 83.736 96.1191 83.736 95.6927C83.736 95.43 83.7885 95.2077 83.8976 95.0299C84.0047 94.848 84.1725 94.6984 84.3988 94.5853C84.6292 94.4681 84.9323 94.3791 85.3041 94.3185C85.6275 94.266 85.872 94.2054 86.0397 94.1407C86.2054 94.072 86.3186 93.9952 86.3792 93.9144C86.4378 93.8295 86.4681 93.7204 86.4681 93.591C86.4681 93.393 86.3974 93.2394 86.258 93.1303C86.1165 93.0232 85.8942 92.9686 85.587 92.9686C85.3001 92.9686 85.0535 93.0252 84.8434 93.1384C84.6373 93.2475 84.4493 93.4112 84.2775 93.6314H84.1967L83.8734 93.1788C84.0613 92.9363 84.3018 92.7463 84.5928 92.6049C84.8838 92.4654 85.2152 92.3947 85.587 92.3947C86.1145 92.3947 86.5025 92.5119 86.751 92.7423C86.9976 92.9686 87.1229 93.2879 87.1229 93.6961V96.0564C87.1229 96.305 87.228 96.4283 87.4381 96.4283C87.5068 96.4283 87.5755 96.4182 87.6402 96.3959L87.6968 96.4121L87.7776 96.8648C87.7291 96.8971 87.6645 96.9214 87.5836 96.9375C87.5028 96.9577 87.422 96.9699 87.3411 96.9699C87.0926 96.9699 86.9066 96.9173 86.7834 96.8082C86.6581 96.7011 86.5773 96.5414 86.5409 96.3313L86.46 96.3232C86.3307 96.5556 86.1569 96.7314 85.9427 96.8486C85.7265 96.9658 85.4577 97.0264 85.1344 97.0264ZM85.2799 96.4929C85.5264 96.4929 85.7406 96.4363 85.9185 96.3232C86.1003 96.21 86.2418 96.0524 86.3388 95.8463C86.4358 95.6361 86.4843 95.3936 86.4843 95.1188V94.5529L86.4115 94.5368C86.3085 94.6075 86.1852 94.6661 86.0397 94.7146C85.8983 94.7631 85.7022 94.8076 85.4496 94.8439C85.191 94.8763 84.9828 94.9308 84.8272 95.0056C84.6756 95.0763 84.5685 95.1673 84.5039 95.2804C84.4392 95.3936 84.4069 95.531 84.4069 95.6927C84.4069 95.9574 84.4816 96.1575 84.6332 96.2908C84.7888 96.4262 85.005 96.4929 85.2799 96.4929Z" fill="black"/>
  <path d="M88.6779 96.9375V92.4755H89.3084V93.1788L89.3892 93.195C89.5994 92.6897 89.9894 92.4351 90.5613 92.4351C90.8684 92.4351 91.0968 92.4917 91.2484 92.6049L91.0786 93.1626L90.9978 93.1788C90.83 93.0939 90.6461 93.0495 90.4481 93.0495C90.0924 93.0495 89.8176 93.1848 89.6236 93.4536C89.4336 93.7183 89.3407 94.1488 89.3407 94.747V96.9375H88.6779Z" fill="black"/>
  <path d="M93.1875 97.0264C92.7449 97.0264 92.3994 96.9112 92.1528 96.6789C91.9103 96.4485 91.7891 96.1191 91.7891 95.6927C91.7891 95.43 91.8416 95.2077 91.9507 95.0299C92.0578 94.848 92.2256 94.6984 92.4519 94.5853C92.6823 94.4681 92.9854 94.3791 93.3572 94.3185C93.6806 94.266 93.9251 94.2054 94.0928 94.1407C94.2585 94.072 94.3717 93.9952 94.4323 93.9144C94.4909 93.8295 94.5212 93.7204 94.5212 93.591C94.5212 93.393 94.4505 93.2394 94.3111 93.1303C94.1696 93.0232 93.9473 92.9686 93.6401 92.9686C93.3532 92.9686 93.1066 93.0252 92.8965 93.1384C92.6904 93.2475 92.5024 93.4112 92.3306 93.6314H92.2498L91.9265 93.1788C92.1144 92.9363 92.3549 92.7463 92.6459 92.6049C92.9369 92.4654 93.2683 92.3947 93.6401 92.3947C94.1676 92.3947 94.5556 92.5119 94.8041 92.7423C95.0507 92.9686 95.176 93.2879 95.176 93.6961V96.0564C95.176 96.305 95.2811 96.4283 95.4912 96.4283C95.5599 96.4283 95.6286 96.4182 95.6933 96.3959L95.7499 96.4121L95.8307 96.8648C95.7822 96.8971 95.7176 96.9214 95.6367 96.9375C95.5559 96.9577 95.4751 96.9699 95.3942 96.9699C95.1457 96.9699 94.9597 96.9173 94.8365 96.8082C94.7112 96.7011 94.6304 96.5414 94.594 96.3313L94.5131 96.3232C94.3838 96.5556 94.21 96.7314 93.9958 96.8486C93.7796 96.9658 93.5108 97.0264 93.1875 97.0264ZM93.333 96.4929C93.5795 96.4929 93.7937 96.4363 93.9716 96.3232C94.1534 96.21 94.2949 96.0524 94.3919 95.8463C94.4889 95.6361 94.5374 95.3936 94.5374 95.1188V94.5529L94.4646 94.5368C94.3616 94.6075 94.2383 94.6661 94.0928 94.7146C93.9514 94.7631 93.7553 94.8076 93.5027 94.8439C93.2441 94.8763 93.0359 94.9308 92.8803 95.0056C92.7287 95.0763 92.6216 95.1673 92.557 95.2804C92.4923 95.3936 92.46 95.531 92.46 95.6927C92.46 95.9574 92.5347 96.1575 92.6863 96.2908C92.8419 96.4262 93.0581 96.4929 93.333 96.4929Z" fill="black"/>
  <path d="M98.2506 98.829C97.5493 98.829 97.0381 98.7098 96.7147 98.4734C96.3914 98.241 96.2297 97.9318 96.2297 97.5438C96.2297 97.2952 96.3045 97.0952 96.4561 96.9456C96.6056 96.7961 96.8239 96.6869 97.1108 96.6223V96.5414C96.9754 96.4606 96.8724 96.3697 96.8037 96.2666C96.7329 96.1595 96.6986 96.0322 96.6986 95.8867C96.6986 95.7149 96.7511 95.5755 96.8602 95.4664C96.9734 95.3593 97.1371 95.2784 97.3533 95.2239V95.1349C96.8683 94.8823 96.6258 94.4681 96.6258 93.8901C96.6258 93.5991 96.6905 93.3404 96.8198 93.1141C96.9532 92.8878 97.1432 92.714 97.3857 92.5887C97.6322 92.4594 97.9192 92.3947 98.2425 92.3947C98.6184 92.3947 98.9316 92.4755 99.1802 92.6372C99.2772 92.5362 99.3459 92.425 99.3903 92.3058C99.4388 92.1825 99.4712 92.0451 99.4873 91.8935L99.5682 91.845L100.11 91.9744C100.081 92.2007 100.015 92.3927 99.9077 92.5483C99.7985 92.7059 99.6449 92.8352 99.4469 92.9363V93.0171C99.5863 93.1303 99.6914 93.2657 99.7622 93.4213C99.8309 93.5728 99.8672 93.7487 99.8672 93.9467C99.8672 94.2276 99.7985 94.4802 99.6652 94.7065C99.5298 94.9288 99.3378 95.1026 99.0912 95.2319C98.8487 95.3613 98.5658 95.4259 98.2425 95.4259C98.2041 95.4259 98.1374 95.4239 98.0404 95.4179C97.9313 95.4138 97.8545 95.4098 97.806 95.4098C97.6645 95.4098 97.5514 95.4482 97.4665 95.5229C97.3857 95.5937 97.3452 95.6846 97.3452 95.7978C97.3452 95.9392 97.3877 96.0403 97.4746 96.1049C97.5655 96.1696 97.7171 96.208 97.9272 96.2181L98.9781 96.2504C99.4348 96.2666 99.7723 96.3757 99.9885 96.5738C100.209 96.7678 100.32 97.0446 100.32 97.4064C100.32 97.6691 100.247 97.9096 100.102 98.1258C99.9602 98.34 99.7339 98.5097 99.4227 98.635C99.1155 98.7644 98.7234 98.829 98.2506 98.829ZM98.2425 94.8601C98.5598 94.8601 98.8043 94.7793 98.9781 94.6176C99.1498 94.4519 99.2367 94.2195 99.2367 93.9224C99.2367 93.6153 99.1498 93.3788 98.9781 93.2111C98.8043 93.0454 98.5598 92.9605 98.2425 92.9605C97.9232 92.9605 97.6807 93.0454 97.515 93.2111C97.3473 93.3728 97.2644 93.6112 97.2644 93.9224C97.2644 94.2195 97.3473 94.4519 97.515 94.6176C97.6807 94.7793 97.9232 94.8601 98.2425 94.8601ZM98.2506 98.2632C98.5779 98.2632 98.8487 98.2248 99.0589 98.15C99.2691 98.0793 99.4186 97.9843 99.5116 97.8671C99.6025 97.7479 99.649 97.6125 99.649 97.4629C99.649 97.3336 99.6207 97.2285 99.5682 97.1477C99.5197 97.0669 99.4388 97.0042 99.3257 96.9618C99.2165 96.9193 99.069 96.8931 98.8811 96.8809L97.8787 96.8324H97.7413C97.1795 96.8446 96.9007 97.0608 96.9007 97.4872C96.9007 98.0045 97.3493 98.2632 98.2506 98.2632Z" fill="black"/>
  <path d="M101.297 96.9375V92.4755H101.927V93.1788L102.008 93.195C102.218 92.6897 102.608 92.4351 103.18 92.4351C103.487 92.4351 103.716 92.4917 103.867 92.6049L103.698 93.1626L103.617 93.1788C103.449 93.0939 103.265 93.0495 103.067 93.0495C102.711 93.0495 102.437 93.1848 102.243 93.4536C102.053 93.7183 101.96 94.1488 101.96 94.747V96.9375H101.297Z" fill="black"/>
  <path d="M105.806 97.0264C105.364 97.0264 105.018 96.9112 104.772 96.6789C104.529 96.4485 104.408 96.1191 104.408 95.6927C104.408 95.43 104.461 95.2077 104.57 95.0299C104.677 94.848 104.845 94.6984 105.071 94.5853C105.301 94.4681 105.604 94.3791 105.976 94.3185C106.3 94.266 106.544 94.2054 106.712 94.1407C106.878 94.072 106.991 93.9952 107.051 93.9144C107.11 93.8295 107.14 93.7204 107.14 93.591C107.14 93.393 107.07 93.2394 106.93 93.1303C106.789 93.0232 106.566 92.9686 106.259 92.9686C105.972 92.9686 105.726 93.0252 105.515 93.1384C105.309 93.2475 105.121 93.4112 104.95 93.6314H104.869L104.545 93.1788C104.733 92.9363 104.974 92.7463 105.265 92.6049C105.556 92.4654 105.887 92.3947 106.259 92.3947C106.787 92.3947 107.175 92.5119 107.423 92.7423C107.67 92.9686 107.795 93.2879 107.795 93.6961V96.0564C107.795 96.305 107.9 96.4283 108.11 96.4283C108.179 96.4283 108.248 96.4182 108.312 96.3959L108.369 96.4121L108.45 96.8648C108.401 96.8971 108.337 96.9214 108.256 96.9375C108.175 96.9577 108.094 96.9699 108.013 96.9699C107.765 96.9699 107.579 96.9173 107.455 96.8082C107.33 96.7011 107.249 96.5414 107.213 96.3313L107.132 96.3232C107.003 96.5556 106.829 96.7314 106.615 96.8486C106.399 96.9658 106.13 97.0264 105.806 97.0264ZM105.952 96.4929C106.199 96.4929 106.413 96.4363 106.591 96.3232C106.772 96.21 106.914 96.0524 107.011 95.8463C107.108 95.6361 107.156 95.3936 107.156 95.1188V94.5529L107.084 94.5368C106.981 94.6075 106.857 94.6661 106.712 94.7146C106.57 94.7631 106.374 94.8076 106.122 94.8439C105.863 94.8763 105.655 94.9308 105.499 95.0056C105.348 95.0763 105.241 95.1673 105.176 95.2804C105.111 95.3936 105.079 95.531 105.079 95.6927C105.079 95.9574 105.154 96.1575 105.305 96.2908C105.461 96.4262 105.677 96.4929 105.952 96.4929Z" fill="black"/>
  <path d="M109.35 98.7482V92.4755H110.013V93.1464L110.094 93.1626C110.427 92.6513 110.914 92.3947 111.557 92.3947C111.928 92.3947 112.252 92.4816 112.527 92.6534C112.805 92.8211 113.022 93.0777 113.173 93.4213C113.329 93.7668 113.408 94.1952 113.408 94.7065C113.408 95.2198 113.327 95.6482 113.165 95.9918C113.004 96.3373 112.779 96.596 112.494 96.7678C112.207 96.9395 111.88 97.0264 111.508 97.0264C111.205 97.0264 110.936 96.9719 110.7 96.8648C110.467 96.7577 110.265 96.5859 110.094 96.3474L110.013 96.3636V98.7482H109.35ZM111.363 96.4283C112.262 96.4283 112.713 95.8544 112.713 94.7065C112.713 93.5587 112.262 92.9848 111.363 92.9848C111.098 92.9848 110.863 93.0474 110.659 93.1707C110.459 93.2899 110.3 93.4779 110.182 93.7365C110.069 93.9911 110.013 94.3145 110.013 94.7065C110.013 95.1006 110.069 95.4259 110.182 95.6846C110.3 95.9392 110.459 96.1272 110.659 96.2504C110.863 96.3697 111.098 96.4283 111.363 96.4283Z" fill="black"/>
  <path d="M114.667 96.9375V90.6891H115.33V93.1141L115.411 93.1303C115.728 92.6412 116.189 92.3947 116.793 92.3947C117.327 92.3947 117.715 92.5321 117.957 92.807C118.2 93.0777 118.321 93.4981 118.321 94.068V96.9375H117.658V94.0841C117.658 93.8153 117.622 93.5991 117.553 93.4375C117.489 93.2717 117.383 93.1525 117.238 93.0818C117.092 93.007 116.903 92.9686 116.672 92.9686C116.268 92.9686 115.941 93.102 115.694 93.3647C115.452 93.6234 115.33 94.0518 115.33 94.65V96.9375H114.667Z" fill="black"/>
  <path d="M124.067 96.2262L124.277 96.7031C124.174 96.8062 124.036 96.885 123.865 96.9375C123.691 96.9961 123.505 97.0264 123.307 97.0264C122.454 97.0264 122.03 96.594 122.03 95.725V93.0171H121.254V92.4755H122.03V91.5298L122.692 91.4247V92.4755H124.123V93.0171H122.692V95.6604C122.692 96.1737 122.913 96.4283 123.355 96.4283C123.598 96.4283 123.808 96.3616 123.986 96.2262H124.067Z" fill="black"/>
  <path d="M128.698 94.8601H125.634C125.65 95.3997 125.78 95.7957 126.022 96.0484C126.265 96.303 126.596 96.4283 127.016 96.4283C127.334 96.4283 127.59 96.3717 127.784 96.2585C127.978 96.1453 128.128 95.9675 128.237 95.725H128.326L128.754 95.9837C128.625 96.307 128.417 96.5637 128.132 96.7516C127.845 96.9355 127.473 97.0264 127.016 97.0264C126.584 97.0264 126.212 96.9395 125.901 96.7678C125.594 96.596 125.355 96.3373 125.189 95.9918C125.022 95.6482 124.939 95.2198 124.939 94.7065C124.939 94.2013 125.024 93.7749 125.198 93.4294C125.375 93.0797 125.618 92.8211 125.925 92.6534C126.232 92.4816 126.582 92.3947 126.976 92.3947C127.546 92.3947 127.99 92.5564 128.31 92.8797C128.633 93.199 128.795 93.6759 128.795 94.3104C128.795 94.559 128.789 94.7267 128.778 94.8116L128.698 94.8601ZM128.148 94.3104C128.136 93.8376 128.031 93.492 127.833 93.2758C127.633 93.0616 127.348 92.9524 126.976 92.9524C126.582 92.9524 126.275 93.0616 126.054 93.2758C125.832 93.492 125.699 93.8376 125.65 94.3104H128.148Z" fill="black"/>
  <path d="M130.127 96.9375H129.4L130.782 94.6257L129.472 92.4755H130.216L131.243 94.1892H131.34L132.374 92.4755H133.086L131.808 94.6257L133.15 96.9375H132.407L131.307 95.0541H131.218L130.127 96.9375Z" fill="black"/>
  <path d="M136.366 96.2262L136.577 96.7031C136.474 96.8062 136.336 96.885 136.164 96.9375C135.991 96.9961 135.805 97.0264 135.607 97.0264C134.754 97.0264 134.329 96.594 134.329 95.725V93.0171H133.553V92.4755H134.329V91.5298L134.992 91.4247V92.4755H136.423V93.0171H134.992V95.6604C134.992 96.1737 135.213 96.4283 135.655 96.4283C135.898 96.4283 136.108 96.3616 136.286 96.2262H136.366Z" fill="black"/>
  <mask id="mask0_7_403" style="mask-type:luminance" maskUnits="userSpaceOnUse" x="5" y="2" width="184" height="184">
    <path d="M5.0177 2.04507H188.93V185.957H5.0177V2.04507Z" fill="white"/>
  </mask>
  <g mask="url(#mask0_7_403)">
    <path d="M188.942 94.0071C188.942 95.5127 188.905 97.0162 188.831 98.5197C188.758 100.023 188.647 101.523 188.499 103.022C188.352 104.52 188.168 106.013 187.946 107.5C187.725 108.99 187.469 110.473 187.176 111.948C186.881 113.423 186.551 114.892 186.185 116.351C185.82 117.813 185.42 119.261 184.983 120.702C184.544 122.143 184.074 123.572 183.566 124.989C183.059 126.405 182.518 127.81 181.942 129.2C181.366 130.59 180.755 131.966 180.113 133.326C179.468 134.687 178.793 136.03 178.084 137.358C177.375 138.686 176.633 139.995 175.859 141.285C175.085 142.576 174.279 143.847 173.444 145.098C172.607 146.351 171.74 147.579 170.845 148.79C169.948 149.998 169.022 151.185 168.067 152.347C167.113 153.511 166.131 154.65 165.118 155.766C164.108 156.881 163.071 157.971 162.006 159.034C160.943 160.098 159.852 161.135 158.738 162.148C157.623 163.158 156.483 164.14 155.319 165.094C154.157 166.05 152.971 166.975 151.761 167.873C150.552 168.768 149.323 169.635 148.07 170.471C146.82 171.308 145.548 172.112 144.257 172.886C142.966 173.66 141.658 174.402 140.331 175.111C139.003 175.821 137.659 176.498 136.299 177.14C134.937 177.783 133.563 178.393 132.173 178.969C130.782 179.545 129.378 180.087 127.961 180.594C126.545 181.101 125.116 181.572 123.675 182.01C122.234 182.447 120.785 182.847 119.324 183.213C117.865 183.579 116.396 183.908 114.921 184.203C113.443 184.496 111.962 184.753 110.473 184.975C108.986 185.195 107.492 185.379 105.993 185.527C104.495 185.674 102.996 185.785 101.492 185.858C99.9888 185.933 98.4853 185.969 96.9798 185.969C95.4742 185.969 93.9707 185.933 92.4672 185.858C90.9637 185.785 89.4643 185.674 87.9648 185.527C86.4674 185.379 84.974 185.195 83.4867 184.975C81.9973 184.753 80.514 184.496 79.0388 184.203C77.5616 183.908 76.0945 183.579 74.6354 183.213C73.1743 182.847 71.7254 182.447 70.2846 182.01C68.8437 181.572 67.415 181.101 65.9984 180.594C64.5818 180.087 63.1773 179.545 61.7869 178.969C60.3966 178.393 59.0204 177.783 57.6604 177.14C56.3004 176.498 54.9565 175.821 53.6288 175.111C52.3012 174.402 50.9917 173.66 49.7024 172.886C48.4111 172.112 47.1399 171.308 45.8891 170.471C44.6361 169.635 43.4075 168.768 42.197 167.873C40.9885 166.975 39.8023 166.05 38.6403 165.094C37.4763 164.14 36.3366 163.158 35.2211 162.148C34.1056 161.135 33.0163 160.098 31.9534 159.034C30.8884 157.971 29.8517 156.881 28.8393 155.766C27.8289 154.65 26.8467 153.511 25.8909 152.347C24.9371 151.185 24.0115 149.998 23.1143 148.79C22.219 147.579 21.3521 146.351 20.5155 145.098C19.6788 143.847 18.8746 142.576 18.1006 141.285C17.3266 139.995 16.585 138.686 15.8756 137.358C15.1663 136.03 14.4893 134.687 13.8467 133.326C13.2041 131.966 12.5938 130.59 12.0179 129.2C11.4419 127.81 10.9003 126.405 10.3931 124.989C9.88589 123.572 9.41503 122.143 8.97651 120.702C8.54001 119.261 8.13989 117.813 7.77412 116.351C7.40835 114.892 7.07895 113.423 6.78391 111.948C6.49089 110.473 6.23424 108.99 6.01195 107.5C5.79168 106.013 5.60778 104.52 5.46026 103.022C5.31274 101.523 5.2016 100.023 5.12885 98.5197C5.05407 97.0162 5.0177 95.5127 5.0177 94.0071C5.0177 92.5016 5.05407 90.9981 5.12885 89.4946C5.2016 87.9911 5.31274 86.4917 5.46026 84.9942C5.60778 83.4948 5.79168 82.0014 6.01195 80.514C6.23424 79.0247 6.49089 77.5414 6.78391 76.0662C7.07895 74.591 7.40835 73.1218 7.77412 71.6628C8.13989 70.2017 8.54001 68.7528 8.97651 67.3119C9.41503 65.8711 9.88589 64.4423 10.3931 63.0257C10.9003 61.6091 11.4419 60.2047 12.0179 58.8143C12.5938 57.424 13.2041 56.0478 13.8467 54.6878C14.4893 53.3278 15.1663 51.9839 15.8756 50.6562C16.585 49.3285 17.3266 48.019 18.1006 46.7297C18.8746 45.4384 19.6788 44.1673 20.5155 42.9164C21.3521 41.6635 22.219 40.4348 23.1143 39.2244C24.0115 38.0159 24.9371 36.8297 25.8909 35.6677C26.8467 34.5037 27.8289 33.3639 28.8393 32.2484C29.8517 31.1329 30.8884 30.0437 31.9534 28.9808C33.0163 27.9158 34.1056 26.8791 35.2211 25.8667C36.3366 24.8562 37.4763 23.8741 38.6403 22.9203C39.8023 21.9644 40.9885 21.0389 42.197 20.1416C43.4075 19.2464 44.6361 18.3795 45.8891 17.5428C47.1399 16.7062 48.4111 15.9019 49.7024 15.1279C50.9917 14.354 52.3012 13.6123 53.6288 12.903C54.9565 12.1937 56.3004 11.5187 57.6604 10.8741C59.0204 10.2315 60.3966 9.62118 61.7869 9.04524C63.1773 8.4693 64.5818 7.92772 65.9984 7.42049C67.415 6.91326 68.8437 6.44241 70.2846 6.00389C71.7254 5.56739 73.1743 5.16726 74.6354 4.80149C76.0945 4.43572 77.5616 4.10632 79.0388 3.81128C80.514 3.51826 81.9973 3.26162 83.4867 3.03932C84.974 2.81905 86.4674 2.63516 87.9648 2.48764C89.4643 2.34012 90.9637 2.22897 92.4672 2.15622C93.9707 2.08145 95.4742 2.04507 96.9798 2.04507C98.4853 2.04507 99.9888 2.08145 101.492 2.15622C102.996 2.22897 104.495 2.34012 105.993 2.48764C107.492 2.63516 108.986 2.81905 110.473 3.03932C111.962 3.26162 113.443 3.51826 114.921 3.81128C116.396 4.10632 117.865 4.43572 119.324 4.80149C120.785 5.16726 122.234 5.56739 123.675 6.00389C125.116 6.44241 126.545 6.91326 127.961 7.42049C129.378 7.92772 130.782 8.4693 132.173 9.04524C133.563 9.62118 134.937 10.2315 136.299 10.8741C137.659 11.5187 139.003 12.1937 140.331 12.903C141.658 13.6123 142.966 14.354 144.257 15.1279C145.548 15.9019 146.82 16.7062 148.07 17.5428C149.323 18.3795 150.552 19.2464 151.761 20.1416C152.971 21.0389 154.157 21.9644 155.319 22.9203C156.483 23.8741 157.623 24.8562 158.738 25.8667C159.852 26.8791 160.943 27.9158 162.006 28.9808C163.071 30.0437 164.108 31.1329 165.118 32.2484C166.131 33.3639 167.113 34.5037 168.067 35.6677C169.022 36.8297 169.948 38.0159 170.845 39.2244C171.74 40.4348 172.607 41.6635 173.444 42.9164C174.279 44.1673 175.085 45.4384 175.859 46.7297C176.633 48.019 177.375 49.3285 178.084 50.6562C178.793 51.9839 179.468 53.3278 180.113 54.6878C180.755 56.0478 181.366 57.424 181.942 58.8143C182.518 60.2047 183.059 61.6091 183.566 63.0257C184.074 64.4423 184.544 65.8711 184.983 67.3119C185.42 68.7528 185.82 70.2017 186.185 71.6628C186.551 73.1218 186.881 74.591 187.176 76.0662C187.469 77.5414 187.725 79.0247 187.946 80.514C188.168 82.0014 188.352 83.4948 188.499 84.9942C188.647 86.4917 188.758 87.9911 188.831 89.4946C188.905 90.9981 188.942 92.5016 188.942 94.0071Z" fill="#E9E9E9"/>
    <path d="M188.942 94.0071C188.942 95.5127 188.905 97.0162 188.831 98.5197C188.758 100.023 188.647 101.523 188.499 103.022C188.352 104.52 188.168 106.013 187.946 107.5C187.725 108.99 187.469 110.473 187.176 111.948C186.881 113.423 186.551 114.892 186.185 116.351C185.82 117.813 185.42 119.261 184.983 120.702C184.544 122.143 184.074 123.572 183.566 124.989C183.059 126.405 182.518 127.81 181.942 129.2C181.366 130.59 180.755 131.966 180.113 133.326C179.468 134.687 178.793 136.03 178.084 137.358C177.375 138.686 176.633 139.995 175.859 141.285C175.085 142.576 174.279 143.847 173.444 145.098C172.607 146.351 171.74 147.579 170.845 148.79C169.948 149.998 169.022 151.185 168.067 152.347C167.113 153.511 166.131 154.65 165.118 155.766C164.108 156.881 163.071 157.971 162.006 159.034C160.943 160.098 159.852 161.135 158.738 162.148C157.623 163.158 156.483 164.14 155.319 165.094C154.157 166.05 152.971 166.975 151.761 167.873C150.552 168.768 149.323 169.635 148.07 170.471C146.82 171.308 145.548 172.112 144.257 172.886C142.966 173.66 141.658 174.402 140.331 175.111C139.003 175.821 137.659 176.498 136.299 177.14C134.937 177.783 133.563 178.393 132.173 178.969C130.782 179.545 129.378 180.087 127.961 180.594C126.545 181.101 125.116 181.572 123.675 182.01C122.234 182.447 120.785 182.847 119.324 183.213C117.865 183.579 116.396 183.908 114.921 184.203C113.443 184.496 111.962 184.753 110.473 184.975C108.986 185.195 107.492 185.379 105.993 185.527C104.495 185.674 102.996 185.785 101.492 185.858C99.9888 185.933 98.4853 185.969 96.9798 185.969C95.4742 185.969 93.9707 185.933 92.4672 185.858C90.9637 185.785 89.4643 185.674 87.9648 185.527C86.4674 185.379 84.974 185.195 83.4867 184.975C81.9973 184.753 80.514 184.496 79.0388 184.203C77.5616 183.908 76.0945 183.579 74.6354 183.213C73.1743 182.847 71.7254 182.447 70.2846 182.01C68.8437 181.572 67.415 181.101 65.9984 180.594C64.5818 180.087 63.1773 179.545 61.7869 178.969C60.3966 178.393 59.0204 177.783 57.6604 177.14C56.3004 176.498 54.9565 175.821 53.6288 175.111C52.3012 174.402 50.9917 173.66 49.7024 172.886C48.4111 172.112 47.1399 171.308 45.8891 170.471C44.6361 169.635 43.4075 168.768 42.197 167.873C40.9885 166.975 39.8023 166.05 38.6403 165.094C37.4763 164.14 36.3366 163.158 35.2211 162.148C34.1056 161.135 33.0163 160.098 31.9534 159.034C30.8884 157.971 29.8517 156.881 28.8393 155.766C27.8289 154.65 26.8467 153.511 25.8909 152.347C24.9371 151.185 24.0115 149.998 23.1143 148.79C22.219 147.579 21.3521 146.351 20.5155 145.098C19.6788 143.847 18.8746 142.576 18.1006 141.285C17.3266 139.995 16.585 138.686 15.8756 137.358C15.1663 136.03 14.4893 134.687 13.8467 133.326C13.2041 131.966 12.5938 130.59 12.0179 129.2C11.4419 127.81 10.9003 126.405 10.3931 124.989C9.88589 123.572 9.41503 122.143 8.97651 120.702C8.54001 119.261 8.13989 117.813 7.77412 116.351C7.40835 114.892 7.07895 113.423 6.78391 111.948C6.49089 110.473 6.23424 108.99 6.01195 107.5C5.79168 106.013 5.60778 104.52 5.46026 103.022C5.31274 101.523 5.2016 100.023 5.12885 98.5197C5.05407 97.0162 5.0177 95.5127 5.0177 94.0071C5.0177 92.5016 5.05407 90.9981 5.12885 89.4946C5.2016 87.9911 5.31274 86.4917 5.46026 84.9942C5.60778 83.4948 5.79168 82.0014 6.01195 80.514C6.23424 79.0247 6.49089 77.5414 6.78391 76.0662C7.07895 74.591 7.40835 73.1218 7.77412 71.6628C8.13989 70.2017 8.54001 68.7528 8.97651 67.3119C9.41503 65.8711 9.88589 64.4423 10.3931 63.0257C10.9003 61.6091 11.4419 60.2047 12.0179 58.8143C12.5938 57.424 13.2041 56.0478 13.8467 54.6878C14.4893 53.3278 15.1663 51.9839 15.8756 50.6562C16.585 49.3285 17.3266 48.019 18.1006 46.7297C18.8746 45.4384 19.6788 44.1673 20.5155 42.9164C21.3521 41.6635 22.219 40.4348 23.1143 39.2244C24.0115 38.0159 24.9371 36.8297 25.8909 35.6677C26.8467 34.5037 27.8289 33.3639 28.8393 32.2484C29.8517 31.1329 30.8884 30.0437 31.9534 28.9808C33.0163 27.9158 34.1056 26.8791 35.2211 25.8667C36.3366 24.8562 37.4763 23.8741 38.6403 22.9203C39.8023 21.9644 40.9885 21.0389 42.197 20.1416C43.4075 19.2464 44.6361 18.3795 45.8891 17.5428C47.1399 16.7062 48.4111 15.9019 49.7024 15.1279C50.9917 14.354 52.3012 13.6123 53.6288 12.903C54.9565 12.1937 56.3004 11.5187 57.6604 10.8741C59.0204 10.2315 60.3966 9.62118 61.7869 9.04524C63.1773 8.4693 64.5818 7.92772 65.9984 7.42049C67.415 6.91326 68.8437 6.44241 70.2846 6.00389C71.7254 5.56739 73.1743 5.16726 74.6354 4.80149C76.0945 4.43572 77.5616 4.10632 79.0388 3.81128C80.514 3.51826 81.9973 3.26162 83.4867 3.03932C84.974 2.81905 86.4674 2.63516 87.9648 2.48764C89.4643 2.34012 90.9637 2.22897 92.4672 2.15622C93.9707 2.08145 95.4742 2.04507 96.9798 2.04507C98.4853 2.04507 99.9888 2.08145 101.492 2.15622C102.996 2.22897 104.495 2.34012 105.993 2.48764C107.492 2.63516 108.986 2.81905 110.473 3.03932C111.962 3.26162 113.443 3.51826 114.921 3.81128C116.396 4.10632 117.865 4.43572 119.324 4.80149C120.785 5.16726 122.234 5.56739 123.675 6.00389C125.116 6.44241 126.545 6.91326 127.961 7.42049C129.378 7.92772 130.782 8.4693 132.173 9.04524C133.563 9.62118 134.937 10.2315 136.299 10.8741C137.659 11.5187 139.003 12.1937 140.331 12.903C141.658 13.6123 142.966 14.354 144.257 15.1279C145.548 15.9019 146.82 16.7062 148.07 17.5428C149.323 18.3795 150.552 19.2464 151.761 20.1416C152.971 21.0389 154.157 21.9644 155.319 22.9203C156.483 23.8741 157.623 24.8562 158.738 25.8667C159.852 26.8791 160.943 27.9158 162.006 28.9808C163.071 30.0437 164.108 31.1329 165.118 32.2484C166.131 33.3639 167.113 34.5037 168.067 35.6677C169.022 36.8297 169.948 38.0159 170.845 39.2244C171.74 40.4348 172.607 41.6635 173.444 42.9164C174.279 44.1673 175.085 45.4384 175.859 46.7297C176.633 48.019 177.375 49.3285 178.084 50.6562C178.793 51.9839 179.468 53.3278 180.113 54.6878C180.755 56.0478 181.366 57.424 181.942 58.8143C182.518 60.2047 183.059 61.6091 183.566 63.0257C184.074 64.4423 184.544 65.8711 184.983 67.3119C185.42 68.7528 185.82 70.2017 186.185 71.6628C186.551 73.1218 186.881 74.591 187.176 76.0662C187.469 77.5414 187.725 79.0247 187.946 80.514C188.168 82.0014 188.352 83.4948 188.499 84.9942C188.647 86.4917 188.758 87.9911 188.831 89.4946C188.905 90.9981 188.942 92.5016 188.942 94.0071Z" fill="#9DF4E6"/>
  </g>
  <mask id="mask1_7_403" style="mask-type:luminance" maskUnits="userSpaceOnUse" x="49" y="138" width="130" height="48">
    <path d="M49.1466 138.645H178.48V185.957H49.1466V138.645Z" fill="white"/>
  </mask>
  <g mask="url(#mask1_7_403)">
    <mask id="mask2_7_403" style="mask-type:luminance" maskUnits="userSpaceOnUse" x="5" y="2" width="184" height="184">
      <path d="M5.0177 94.0072C5.0177 90.9961 5.16522 87.9911 5.46026 84.9942C5.7553 81.9953 6.19585 79.0207 6.78391 76.0662C7.37197 73.1117 8.10351 70.1937 8.97651 67.312C9.85153 64.4303 10.864 61.597 12.0179 58.8144C13.1697 56.0317 14.457 53.3136 15.8756 50.6562C17.2963 48.0009 18.8422 45.4203 20.5155 42.9165C22.1887 40.4106 23.9812 37.9957 25.8909 35.6677C27.8026 33.3397 29.8234 31.1108 31.9534 28.9808C34.0813 26.8508 36.3103 24.83 38.6403 22.9203C40.9683 21.0086 43.3832 19.2161 45.8891 17.5429C48.3929 15.8696 50.9735 14.3237 53.6288 12.903C56.2842 11.4844 59.0043 10.1971 61.7869 9.04527C64.5696 7.8934 67.4028 6.87894 70.2846 6.00392C73.1663 5.13092 76.0843 4.39938 79.0388 3.81131C81.9933 3.22527 84.9679 2.78271 87.9648 2.48767C90.9637 2.19263 93.9687 2.0451 96.9798 2.0451C99.9908 2.0451 102.996 2.19263 105.993 2.48767C108.992 2.78271 111.966 3.22527 114.921 3.81131C117.875 4.39938 120.793 5.13092 123.675 6.00392C126.557 6.87894 129.39 7.8934 132.173 9.04527C134.955 10.1971 137.673 11.4844 140.331 12.903C142.986 14.3237 145.567 15.8696 148.07 17.5429C150.576 19.2161 152.991 21.0086 155.319 22.9203C157.647 24.83 159.876 26.8508 162.006 28.9808C164.136 31.1108 166.157 33.3397 168.067 35.6677C169.978 37.9957 171.771 40.4106 173.444 42.9165C175.117 45.4203 176.663 48.0009 178.084 50.6562C179.503 53.3136 180.79 56.0317 181.942 58.8144C183.094 61.597 184.108 64.4303 184.983 67.312C185.856 70.1937 186.588 73.1117 187.176 76.0662C187.762 79.0207 188.204 81.9953 188.499 84.9942C188.794 87.9911 188.942 90.9961 188.942 94.0072C188.942 97.0182 188.794 100.023 188.499 103.022C188.204 106.019 187.762 108.994 187.176 111.948C186.588 114.903 185.856 117.821 184.983 120.702C184.108 123.584 183.094 126.417 181.942 129.2C180.79 131.983 179.503 134.703 178.084 137.358C176.663 140.013 175.117 142.594 173.444 145.098C171.771 147.604 169.978 150.019 168.067 152.347C166.157 154.677 164.136 156.906 162.006 159.034C159.876 161.163 157.647 163.184 155.319 165.096C152.991 167.006 150.576 168.798 148.07 170.471C145.567 172.145 142.986 173.691 140.331 175.111C137.673 176.53 134.955 177.817 132.173 178.969C129.39 180.121 126.557 181.135 123.675 182.01C120.793 182.883 117.875 183.615 114.921 184.203C111.966 184.789 108.992 185.232 105.993 185.527C102.996 185.822 99.9908 185.969 96.9798 185.969C93.9687 185.969 90.9637 185.822 87.9648 185.527C84.9679 185.232 81.9933 184.789 79.0388 184.203C76.0843 183.615 73.1663 182.883 70.2846 182.01C67.4028 181.135 64.5696 180.121 61.7869 178.969C59.0043 177.817 56.2842 176.53 53.6288 175.111C50.9735 173.691 48.3929 172.145 45.8891 170.471C43.3832 168.798 40.9683 167.006 38.6403 165.094C36.3103 163.184 34.0813 161.163 31.9534 159.034C29.8234 156.906 27.8026 154.677 25.8909 152.347C23.9812 150.019 22.1887 147.604 20.5155 145.098C18.8422 142.594 17.2963 140.013 15.8756 137.358C14.457 134.703 13.1697 131.983 12.0179 129.2C10.864 126.417 9.85153 123.584 8.97651 120.702C8.10351 117.821 7.37197 114.903 6.78391 111.948C6.19585 108.994 5.7553 106.019 5.46026 103.022C5.16522 100.023 5.0177 97.0182 5.0177 94.0072Z" fill="white"/>
    </mask>
    <g mask="url(#mask2_7_403)">
      <path d="M178.48 188.938C178.48 189.756 178.454 190.575 178.403 191.393C178.351 192.212 178.272 193.028 178.169 193.844C178.066 194.659 177.936 195.471 177.781 196.282C177.625 197.092 177.445 197.898 177.239 198.703C177.033 199.505 176.801 200.305 176.544 201.099C176.287 201.893 176.007 202.682 175.699 203.466C175.392 204.25 175.061 205.028 174.705 205.8C174.349 206.57 173.97 207.333 173.565 208.091C173.159 208.847 172.733 209.597 172.28 210.336C171.827 211.076 171.353 211.808 170.855 212.531C170.356 213.253 169.837 213.966 169.293 214.667C168.75 215.37 168.184 216.061 167.598 216.742C167.01 217.424 166.402 218.094 165.771 218.751C165.143 219.41 164.492 220.055 163.821 220.689C163.152 221.322 162.461 221.942 161.752 222.548C161.042 223.155 160.313 223.749 159.567 224.327C158.819 224.907 158.053 225.47 157.271 226.022C156.487 226.572 155.687 227.105 154.871 227.627C154.054 228.146 153.222 228.649 152.371 229.136C151.522 229.625 150.659 230.096 149.78 230.551C148.901 231.008 148.01 231.444 147.103 231.866C146.195 232.287 145.278 232.691 144.344 233.077C143.413 233.463 142.469 233.831 141.513 234.18C140.559 234.532 139.593 234.863 138.615 235.177C137.639 235.49 136.655 235.785 135.659 236.06C134.664 236.336 133.66 236.593 132.65 236.832C131.637 237.068 130.619 237.286 129.594 237.486C128.569 237.684 127.539 237.864 126.502 238.024C125.465 238.184 124.425 238.325 123.378 238.444C122.333 238.565 121.284 238.664 120.234 238.745C119.181 238.826 118.128 238.885 117.073 238.925C116.016 238.966 114.961 238.986 113.904 238.986C112.847 238.986 111.791 238.966 110.736 238.925C109.679 238.885 108.626 238.826 107.573 238.745C106.522 238.664 105.473 238.565 104.429 238.444C103.384 238.325 102.341 238.184 101.304 238.024C100.27 237.864 99.2371 237.684 98.2125 237.486C97.188 237.286 96.1695 237.068 95.159 236.832C94.1466 236.593 93.1443 236.336 92.148 236.06C91.1538 235.785 90.1676 235.49 89.1915 235.177C88.2155 234.863 87.2495 234.532 86.2936 234.18C85.3378 233.831 84.3941 233.463 83.4625 233.077C82.5309 232.691 81.6114 232.287 80.704 231.866C79.7987 231.444 78.9055 231.008 78.0264 230.551C77.1474 230.096 76.2845 229.625 75.4357 229.136C74.587 228.649 73.7544 228.146 72.9359 227.627C72.1195 227.105 71.3193 226.572 70.5372 226.022C69.7531 225.47 68.9892 224.907 68.2415 224.327C67.4938 223.749 66.7663 223.155 66.055 222.548C65.3457 221.942 64.6566 221.322 63.9857 220.689C63.3147 220.055 62.664 219.41 62.0356 218.751C61.4051 218.094 60.7968 217.424 60.2107 216.742C59.6227 216.061 59.0569 215.37 58.5153 214.667C57.9717 213.966 57.4503 213.253 56.9532 212.531C56.454 211.808 55.9791 211.076 55.5265 210.336C55.0758 209.597 54.6474 208.847 54.2432 208.091C53.8391 207.333 53.4571 206.57 53.1015 205.8C52.7458 205.028 52.4144 204.25 52.1072 203.466C51.8 202.682 51.5191 201.893 51.2625 201.099C51.0059 200.305 50.7735 199.505 50.5673 198.703C50.3612 197.898 50.1814 197.092 50.0257 196.282C49.8701 195.471 49.7408 194.659 49.6377 193.844C49.5347 193.028 49.4559 192.212 49.4054 191.393C49.3528 190.575 49.3265 189.756 49.3265 188.938C49.3265 188.119 49.3528 187.301 49.4054 186.483C49.4559 185.664 49.5347 184.848 49.6377 184.033C49.7408 183.217 49.8701 182.404 50.0257 181.594C50.1814 180.784 50.3612 179.977 50.5673 179.173C50.7735 178.371 51.0059 177.573 51.2625 176.776C51.5191 175.982 51.8 175.194 52.1072 174.41C52.4144 173.626 52.7458 172.848 53.1015 172.078C53.4571 171.306 53.8391 170.542 54.2432 169.784C54.6474 169.029 55.0758 168.281 55.5265 167.539C55.9791 166.8 56.454 166.068 56.9532 165.345C57.4503 164.623 57.9717 163.91 58.5153 163.209C59.0569 162.505 59.6227 161.814 60.2107 161.133C60.7968 160.452 61.4051 159.781 62.0356 159.124C62.664 158.466 63.3147 157.821 63.9857 157.189C64.6566 156.554 65.3457 155.934 66.055 155.327C66.7663 154.721 67.4938 154.127 68.2415 153.549C68.9892 152.969 69.7531 152.405 70.5372 151.856C71.3193 151.304 72.1195 150.77 72.9359 150.251C73.7544 149.73 74.587 149.226 75.4357 148.739C76.2845 148.25 77.1474 147.78 78.0264 147.325C78.9055 146.87 79.7987 146.432 80.704 146.009C81.6114 145.589 82.5309 145.185 83.4625 144.799C84.3941 144.413 85.3378 144.045 86.2936 143.695C87.2495 143.344 88.2155 143.012 89.1915 142.699C90.1676 142.386 91.1538 142.091 92.148 141.816C93.1443 141.539 94.1466 141.283 95.159 141.044C96.1695 140.808 97.188 140.589 98.2125 140.389C99.2371 140.191 100.27 140.011 101.304 139.852C102.341 139.692 103.384 139.551 104.429 139.431C105.473 139.312 106.522 139.211 107.573 139.13C108.626 139.05 109.679 138.991 110.736 138.951C111.791 138.91 112.847 138.89 113.904 138.89C114.961 138.89 116.016 138.91 117.073 138.951C118.128 138.991 119.181 139.05 120.234 139.13C121.284 139.211 122.333 139.312 123.378 139.431C124.425 139.551 125.465 139.692 126.502 139.852C127.539 140.011 128.569 140.191 129.594 140.389C130.619 140.589 131.637 140.808 132.65 141.044C133.66 141.283 134.664 141.539 135.659 141.816C136.655 142.091 137.639 142.386 138.615 142.699C139.593 143.012 140.559 143.344 141.513 143.695C142.469 144.045 143.413 144.413 144.344 144.799C145.278 145.185 146.195 145.589 147.103 146.009C148.01 146.432 148.901 146.87 149.78 147.325C150.659 147.78 151.522 148.25 152.371 148.739C153.222 149.226 154.054 149.73 154.871 150.251C155.687 150.77 156.487 151.304 157.271 151.856C158.053 152.405 158.819 152.969 159.567 153.549C160.313 154.127 161.042 154.721 161.752 155.327C162.461 155.934 163.152 156.554 163.821 157.189C164.492 157.821 165.143 158.466 165.771 159.124C166.402 159.781 167.01 160.452 167.598 161.133C168.184 161.814 168.75 162.505 169.293 163.209C169.837 163.91 170.356 164.623 170.855 165.345C171.353 166.068 171.827 166.8 172.28 167.539C172.733 168.281 173.159 169.029 173.565 169.784C173.97 170.542 174.349 171.306 174.705 172.078C175.061 172.848 175.392 173.626 175.699 174.41C176.007 175.194 176.287 175.982 176.544 176.776C176.801 177.573 177.033 178.371 177.239 179.173C177.445 179.977 177.625 180.784 177.781 181.594C177.936 182.404 178.066 183.217 178.169 184.033C178.272 184.848 178.351 185.664 178.403 186.483C178.454 187.301 178.48 188.119 178.48 188.938Z" fill="#FFC089"/>
    </g>
  </g>
  <path d="M94.478 114.361H112.37C112.659 114.361 112.946 114.389 113.231 114.446C113.514 114.502 113.791 114.585 114.058 114.696C114.327 114.808 114.581 114.943 114.822 115.105C115.062 115.266 115.284 115.448 115.491 115.652C115.695 115.858 115.879 116.081 116.038 116.321C116.2 116.564 116.335 116.816 116.446 117.085C116.558 117.352 116.642 117.629 116.699 117.914C116.754 118.197 116.782 118.483 116.782 118.774V141.109C116.782 141.547 116.762 141.984 116.719 142.418C116.675 142.855 116.612 143.287 116.525 143.716C116.44 144.144 116.335 144.568 116.208 144.987C116.081 145.407 115.933 145.817 115.765 146.221C115.598 146.626 115.412 147.022 115.206 147.408C115 147.794 114.775 148.168 114.531 148.531C114.288 148.895 114.027 149.247 113.751 149.584C113.474 149.922 113.179 150.247 112.87 150.556C112.56 150.865 112.237 151.158 111.9 151.435C111.56 151.714 111.21 151.975 110.847 152.217C110.483 152.46 110.107 152.684 109.721 152.89C109.335 153.096 108.941 153.284 108.537 153.452C108.133 153.62 107.72 153.765 107.302 153.893C106.884 154.02 106.459 154.127 106.031 154.212C105.601 154.297 105.168 154.361 104.734 154.404C104.297 154.446 103.861 154.468 103.424 154.468C102.986 154.468 102.549 154.446 102.115 154.404C101.678 154.361 101.248 154.297 100.817 154.212C100.389 154.127 99.9645 154.02 99.5462 153.893C99.1279 153.767 98.7156 153.62 98.3115 153.452C97.9073 153.284 97.5112 153.098 97.1273 152.892C96.7413 152.684 96.3654 152.46 96.0017 152.217C95.6379 151.975 95.2863 151.714 94.9488 151.437C94.6113 151.158 94.286 150.865 93.9768 150.556C93.6676 150.247 93.3746 149.924 93.0977 149.584C92.8188 149.247 92.5582 148.895 92.3157 148.531C92.0732 148.168 91.8488 147.794 91.6407 147.408C91.4346 147.022 91.2487 146.626 91.0809 146.221C90.9132 145.817 90.7657 145.407 90.6404 144.987C90.5131 144.568 90.406 144.144 90.3211 143.716C90.2362 143.287 90.1716 142.855 90.1291 142.418C90.0847 141.984 90.0645 141.547 90.0645 141.109V118.774C90.0645 118.483 90.0927 118.197 90.1493 117.914C90.2059 117.629 90.2888 117.352 90.3999 117.085C90.5111 116.816 90.6465 116.564 90.8081 116.321C90.9698 116.081 91.1517 115.858 91.3558 115.652C91.5619 115.448 91.7842 115.266 92.0247 115.105C92.2672 114.943 92.5198 114.808 92.7885 114.696C93.0553 114.585 93.3321 114.502 93.6171 114.446C93.9 114.389 94.187 114.361 94.478 114.361Z" fill="#D37A7A"/>
  <path d="M73.4552 99.2148C73.4552 99.7079 73.4067 100.197 73.3117 100.682C73.2147 101.167 73.0713 101.638 72.8833 102.095C72.6934 102.551 72.461 102.984 72.1861 103.396C71.9133 103.806 71.6001 104.186 71.2505 104.536C70.9009 104.885 70.521 105.196 70.1107 105.471C69.7005 105.746 69.266 105.979 68.8093 106.166C68.3526 106.356 67.8818 106.498 67.3968 106.595C66.9138 106.692 66.4227 106.738 65.9296 106.738C61.7728 106.738 58.4041 101.775 58.4041 97.6184C58.4041 93.4615 61.7728 91.6872 65.9296 91.6872C66.4227 91.6872 66.9138 91.7357 67.3968 91.8327C67.8818 91.9297 68.3526 92.0712 68.8093 92.2611C69.266 92.4511 69.7005 92.6815 70.1107 92.9563C70.521 93.2311 70.9009 93.5424 71.2505 93.892C71.6001 94.2416 71.9133 94.6215 72.1861 95.0337C72.461 95.444 72.6934 95.8784 72.8833 96.3351C73.0713 96.7898 73.2147 97.2607 73.3117 97.7457C73.4067 98.2307 73.4552 98.7197 73.4552 99.2148Z" fill="#E58B89"/>
  <path d="M139.102 97.9619C139.102 102.359 135.537 107.611 131.14 107.611C130.623 107.605 130.109 107.549 129.602 107.442C129.093 107.335 128.602 107.179 128.125 106.977C127.648 106.773 127.193 106.526 126.765 106.235C126.336 105.944 125.94 105.613 125.575 105.245C125.211 104.875 124.885 104.475 124.599 104.043C124.314 103.61 124.071 103.153 123.875 102.672C123.677 102.194 123.53 101.698 123.428 101.191C123.327 100.682 123.279 100.169 123.279 99.6493C123.279 99.13 123.327 98.6167 123.428 98.1094C123.53 97.6002 123.677 97.1051 123.875 96.6261C124.071 96.1452 124.314 95.6905 124.599 95.258C124.885 94.8256 125.211 94.4234 125.575 94.0556C125.94 93.6858 126.336 93.3564 126.765 93.0634C127.193 92.7724 127.648 92.5259 128.125 92.3218C128.602 92.1197 129.093 91.9641 129.602 91.859C130.109 91.7519 130.623 91.6953 131.14 91.6872C135.539 91.6872 139.102 93.5646 139.102 97.9619Z" fill="#E58B89"/>
  <path d="M97.7679 141.317C70.6625 144.793 64.7859 102.715 64.406 86.7241C63.9675 68.3021 79.342 53.3601 97.7679 53.3601C116.194 53.3601 131.574 68.3021 131.132 86.7241C130.744 102.715 128.466 137.38 97.7679 141.317Z" fill="#FDA297"/>
  <path d="M65.2325 97.4405C65.2325 97.4405 58.972 76.6765 60.9382 68.0455C62.9065 59.4125 73.0693 45.7517 96.5069 45.7517C120.767 45.7517 127.743 63.0177 131.14 70.4483C134.537 77.8789 130.297 99.6473 130.297 99.6473C130.297 99.6473 126.886 78.3174 122.079 72.3054C117.271 66.2955 91.7984 59.5196 91.475 59.5196C91.1517 59.5196 67.1604 72.5196 67.1604 72.5196L65.2325 97.4405Z" fill="#18008B"/>
  <path d="M80.5262 97.8508C80.5262 98.067 80.5161 98.2812 80.4959 98.4954C80.4757 98.7076 80.4453 98.9137 80.4069 99.1138C80.3665 99.3139 80.318 99.5058 80.2614 99.6857C80.2049 99.8656 80.1382 100.033 80.0654 100.187C79.9927 100.34 79.9139 100.476 79.829 100.597C79.7421 100.718 79.6532 100.819 79.5562 100.902C79.4612 100.985 79.3642 101.048 79.2632 101.09C79.1621 101.133 79.059 101.155 78.956 101.155C78.8529 101.155 78.7519 101.133 78.6508 101.09C78.5498 101.048 78.4508 100.985 78.3558 100.902C78.2608 100.819 78.1699 100.718 78.085 100.597C78.0001 100.476 77.9193 100.34 77.8465 100.187C77.7738 100.033 77.7091 99.8656 77.6525 99.6857C77.5939 99.5058 77.5454 99.3139 77.507 99.1138C77.4666 98.9137 77.4383 98.7076 77.4181 98.4954C77.3979 98.2812 77.3878 98.067 77.3878 97.8508C77.3878 97.6325 77.3979 97.4183 77.4181 97.2061C77.4383 96.9919 77.4666 96.7858 77.507 96.5857C77.5454 96.3857 77.5939 96.1957 77.6525 96.0138C77.7091 95.834 77.7738 95.6663 77.8465 95.5147C77.9193 95.3611 78.0001 95.2237 78.085 95.1025C78.1699 94.9832 78.2608 94.8802 78.3558 94.7973C78.4508 94.7145 78.5498 94.6518 78.6508 94.6094C78.7519 94.5669 78.8529 94.5467 78.956 94.5467C79.059 94.5467 79.1621 94.5669 79.2632 94.6094C79.3642 94.6518 79.4612 94.7145 79.5562 94.7973C79.6532 94.8802 79.7421 94.9832 79.829 95.1025C79.9139 95.2237 79.9927 95.3611 80.0654 95.5147C80.1382 95.6663 80.2049 95.834 80.2614 96.0138C80.318 96.1957 80.3665 96.3857 80.4069 96.5857C80.4453 96.7858 80.4757 96.9919 80.4959 97.2061C80.5161 97.4183 80.5262 97.6325 80.5262 97.8508Z" fill="#18008B"/>
  <path d="M104.267 97.8508C104.267 98.067 104.257 98.2812 104.237 98.4954C104.216 98.7076 104.186 98.9137 104.148 99.1138C104.107 99.3139 104.061 99.5058 104.002 99.6857C103.946 99.8656 103.881 100.033 103.808 100.187C103.735 100.34 103.655 100.476 103.57 100.597C103.485 100.718 103.394 100.819 103.299 100.902C103.204 100.985 103.105 101.048 103.004 101.09C102.903 101.133 102.802 101.155 102.699 101.155C102.596 101.155 102.493 101.133 102.392 101.09C102.291 101.048 102.194 100.985 102.099 100.902C102.002 100.819 101.913 100.718 101.826 100.597C101.741 100.476 101.662 100.34 101.589 100.187C101.517 100.033 101.45 99.8656 101.393 99.6857C101.337 99.5058 101.288 99.3139 101.248 99.1138C101.209 98.9137 101.179 98.7076 101.159 98.4954C101.139 98.2812 101.129 98.067 101.129 97.8508C101.129 97.6325 101.139 97.4183 101.159 97.2061C101.179 96.9919 101.209 96.7858 101.248 96.5857C101.288 96.3857 101.337 96.1957 101.393 96.0138C101.45 95.834 101.517 95.6663 101.589 95.5147C101.662 95.3611 101.741 95.2237 101.826 95.1025C101.913 94.9832 102.002 94.8802 102.099 94.7973C102.194 94.7145 102.291 94.6518 102.392 94.6094C102.493 94.5669 102.596 94.5467 102.699 94.5467C102.802 94.5467 102.903 94.5669 103.004 94.6094C103.105 94.6518 103.204 94.7145 103.299 94.7973C103.394 94.8802 103.485 94.9832 103.57 95.1025C103.655 95.2237 103.735 95.3611 103.808 95.5147C103.881 95.6663 103.946 95.834 104.002 96.0138C104.061 96.1957 104.107 96.3857 104.148 96.5857C104.186 96.7858 104.216 96.9919 104.237 97.2061C104.257 97.4183 104.267 97.6325 104.267 97.8508Z" fill="#18008B"/>
  <path d="M91.572 117.744C91.5397 117.746 91.5094 117.746 91.4791 117.744C91.1153 117.744 90.7596 117.695 90.41 117.602C90.0604 117.507 89.729 117.37 89.4138 117.188C89.1005 117.006 88.8176 116.786 88.561 116.529C88.3063 116.271 88.0881 115.986 87.9082 115.67C86.6412 113.159 88.7287 109.543 88.9692 109.139C89.0359 109.034 89.1187 108.947 89.2177 108.876C89.3168 108.806 89.4259 108.755 89.5451 108.727C89.6643 108.699 89.7856 108.695 89.9068 108.713C90.0281 108.731 90.1413 108.771 90.2463 108.836C90.3514 108.899 90.4403 108.98 90.5131 109.077C90.5879 109.176 90.6384 109.283 90.6707 109.402C90.701 109.519 90.7091 109.64 90.6929 109.762C90.6768 109.883 90.6404 109.996 90.5798 110.103C90.1049 110.899 88.9025 113.474 89.5835 114.826C89.6967 115.046 90.0321 115.707 91.6629 115.875C91.7802 115.889 91.8913 115.925 91.9964 115.982C92.0994 116.038 92.1904 116.111 92.2652 116.202C92.3419 116.293 92.3985 116.394 92.4369 116.505C92.4733 116.618 92.4895 116.733 92.4834 116.851C92.4794 116.97 92.4511 117.083 92.4026 117.19C92.3541 117.299 92.2874 117.394 92.2025 117.477C92.1176 117.56 92.0206 117.625 91.9135 117.669C91.8044 117.716 91.6892 117.74 91.572 117.744Z" fill="#18008B"/>
  <path d="M71.582 93.508C71.3759 93.508 71.192 93.4474 71.0263 93.3261C70.8605 93.2049 70.7474 93.0452 70.6868 92.8512C70.6241 92.6552 70.6281 92.4612 70.6928 92.2672C70.7595 92.0732 70.8767 91.9176 71.0444 91.8004C71.2061 91.6872 75.0699 89.0804 81.5124 90.4464C81.6316 90.4767 81.7407 90.5252 81.8397 90.598C81.9388 90.6687 82.0196 90.7556 82.0863 90.8587C82.1509 90.9617 82.1934 91.0729 82.2156 91.1941C82.2358 91.3134 82.2338 91.4346 82.2095 91.5539C82.1833 91.6731 82.1368 91.7822 82.0701 91.8832C82.0014 91.9843 81.9165 92.0692 81.8155 92.1379C81.7144 92.2066 81.6033 92.2531 81.4841 92.2773C81.3648 92.3016 81.2456 92.3036 81.1244 92.2834C80.3746 92.0833 79.6108 91.958 78.8348 91.9035C78.0608 91.8489 77.2868 91.8671 76.5169 91.958C75.7449 92.049 74.9871 92.2106 74.2475 92.443C73.5058 92.6774 72.7925 92.9785 72.1094 93.3443C71.9498 93.4534 71.774 93.506 71.582 93.508Z" fill="#18008B"/>
  <path d="M110.077 93.508C109.883 93.508 109.707 93.4534 109.547 93.3443C108.862 92.9765 108.149 92.6774 107.409 92.443C106.668 92.2106 105.912 92.049 105.14 91.958C104.368 91.8671 103.596 91.8489 102.82 91.9035C102.046 91.958 101.282 92.0853 100.53 92.2834C100.407 92.3117 100.284 92.3177 100.159 92.2975C100.033 92.2773 99.9161 92.2329 99.809 92.1641C99.7019 92.0975 99.611 92.0106 99.5402 91.9075C99.4675 91.8024 99.417 91.6892 99.3907 91.564C99.3644 91.4407 99.3644 91.3154 99.3887 91.1921C99.4129 91.0668 99.4594 90.9516 99.5301 90.8466C99.6009 90.7415 99.6898 90.6546 99.7969 90.5859C99.902 90.5151 100.017 90.4687 100.142 90.4464C106.587 89.0804 110.445 91.6872 110.61 91.8004C110.78 91.9156 110.897 92.0712 110.964 92.2652C111.031 92.4592 111.035 92.6552 110.974 92.8512C110.911 93.0472 110.798 93.2049 110.633 93.3261C110.467 93.4474 110.283 93.508 110.077 93.508Z" fill="#18008B"/>
  <path d="M96.9737 128.054C96.8485 128.054 96.7292 128.03 96.614 127.981C96.4988 127.935 96.3978 127.866 96.3089 127.779C96.222 127.69 96.1533 127.589 96.1068 127.474C96.0583 127.359 96.0341 127.24 96.0341 127.114C96.0341 126.991 96.0583 126.872 96.1068 126.757C96.1533 126.642 96.222 126.541 96.3089 126.452C96.3978 126.363 96.4988 126.296 96.614 126.248C96.7292 126.201 96.8485 126.177 96.9737 126.177C97.1637 126.177 97.3516 126.159 97.5396 126.12C97.7255 126.084 97.9074 126.029 98.0832 125.954C98.259 125.882 98.4247 125.793 98.5823 125.688C98.742 125.583 98.8875 125.461 99.0229 125.328C99.1562 125.193 99.2775 125.047 99.3826 124.887C99.4897 124.73 99.5786 124.562 99.6513 124.388C99.7241 124.213 99.7787 124.031 99.8171 123.845C99.8534 123.657 99.8716 123.469 99.8736 123.279C99.8676 123.152 99.8878 123.028 99.9343 122.909C99.9787 122.79 100.047 122.685 100.134 122.594C100.223 122.501 100.326 122.43 100.444 122.38C100.561 122.331 100.684 122.305 100.811 122.305C100.939 122.305 101.06 122.331 101.177 122.38C101.294 122.43 101.397 122.501 101.486 122.594C101.575 122.685 101.642 122.79 101.686 122.909C101.733 123.028 101.753 123.152 101.749 123.279C101.747 123.592 101.717 123.903 101.656 124.211C101.593 124.518 101.502 124.815 101.383 125.106C101.264 125.395 101.116 125.67 100.943 125.93C100.767 126.191 100.569 126.431 100.349 126.654C100.126 126.874 99.8858 127.072 99.6251 127.248C99.3644 127.422 99.0896 127.569 98.8006 127.688C98.5096 127.808 98.2125 127.899 97.9053 127.961C97.5982 128.022 97.287 128.052 96.9737 128.054Z" fill="#18008B"/>
  <path d="M74.2353 109.226C73.7847 109.226 73.3361 109.204 72.8874 109.159C72.4388 109.115 71.9922 109.048 71.5496 108.961C71.1091 108.872 70.6726 108.763 70.2401 108.632C69.8097 108.503 69.3853 108.349 68.969 108.177C68.5527 108.005 68.1445 107.813 67.7485 107.599C67.3504 107.387 66.9644 107.157 66.5885 106.906C66.2146 106.656 65.8529 106.387 65.5053 106.102C65.1557 105.815 64.8223 105.512 64.503 105.194C64.1857 104.875 63.8826 104.542 63.5956 104.194C63.3107 103.845 63.0419 103.483 62.7914 103.109C62.5408 102.733 62.3104 102.347 62.0982 101.949C61.886 101.553 61.692 101.145 61.5202 100.728C61.3485 100.312 61.1949 99.8878 61.0656 99.4573C60.9342 99.0249 60.8251 98.5884 60.7362 98.1478C60.6493 97.7053 60.5826 97.2587 60.5381 96.8101C60.4937 96.3614 60.4714 95.9128 60.4714 95.4622C60.4714 95.0115 60.4937 94.5609 60.5381 94.1122C60.5826 93.6636 60.6493 93.219 60.7362 92.7765C60.8251 92.3339 60.9342 91.8974 61.0656 91.467C61.1949 91.0345 61.3485 90.6122 61.5202 90.1959C61.692 89.7775 61.886 89.3714 62.0982 88.9733C62.3104 88.5772 62.5408 88.1912 62.7914 87.8153C63.0419 87.4415 63.3107 87.0797 63.5956 86.7301C63.8826 86.3825 64.1857 86.0491 64.503 85.7298C64.8223 85.4105 65.1557 85.1094 65.5053 84.8225C65.8529 84.5375 66.2146 84.2688 66.5885 84.0182C66.9644 83.7676 67.3504 83.5372 67.7485 83.323C68.1445 83.1108 68.5527 82.9188 68.969 82.7471C69.3853 82.5733 69.8097 82.4217 70.2401 82.2904C70.6726 82.161 71.1091 82.0519 71.5496 81.963C71.9922 81.8761 72.4388 81.8094 72.8874 81.7649C73.3361 81.7205 73.7847 81.6983 74.2353 81.6983C74.686 81.6983 75.1366 81.7205 75.5852 81.7649C76.0339 81.8094 76.4785 81.8761 76.921 81.963C77.3636 82.0519 77.8001 82.161 78.2305 82.2904C78.663 82.4217 79.0853 82.5733 79.5016 82.7471C79.9199 82.9188 80.3261 83.1108 80.7242 83.323C81.1203 83.5372 81.5083 83.7676 81.8822 84.0182C82.256 84.2688 82.6178 84.5375 82.9674 84.8225C83.3149 85.1094 83.6484 85.4105 83.9677 85.7298C84.287 86.0491 84.5881 86.3825 84.875 86.7301C85.16 87.0797 85.4287 87.4415 85.6793 87.8153C85.9299 88.1912 86.1603 88.5772 86.3745 88.9733C86.5867 89.3714 86.7786 89.7775 86.9504 90.1959C87.1242 90.6122 87.2758 91.0345 87.4071 91.467C87.5365 91.8974 87.6456 92.3339 87.7345 92.7765C87.8214 93.219 87.8881 93.6636 87.9325 94.1122C87.977 94.5609 87.9992 95.0115 87.9992 95.4622C87.9992 95.9128 87.975 96.3614 87.9305 96.8101C87.8861 97.2587 87.8194 97.7033 87.7325 98.1458C87.6436 98.5884 87.5344 99.0249 87.4031 99.4553C87.2717 99.8858 87.1202 100.31 86.9464 100.726C86.7746 101.143 86.5806 101.549 86.3684 101.947C86.1562 102.343 85.9238 102.729 85.6753 103.105C85.4247 103.479 85.1559 103.841 84.869 104.188C84.584 104.538 84.2809 104.871 83.9636 105.188C83.6443 105.508 83.3109 105.811 82.9633 106.096C82.6137 106.383 82.252 106.649 81.8781 106.9C81.5043 107.151 81.1183 107.383 80.7202 107.595C80.3221 107.807 79.9159 108.001 79.4996 108.173C79.0833 108.345 78.661 108.499 78.2285 108.628C77.7981 108.759 77.3616 108.87 76.919 108.957C76.4785 109.046 76.0319 109.113 75.5832 109.157C75.1366 109.202 74.686 109.224 74.2353 109.226ZM74.2353 83.5756C73.8453 83.5756 73.4573 83.5938 73.0713 83.6322C72.6833 83.6706 72.2974 83.7272 71.9174 83.804C71.5355 83.8808 71.1576 83.9737 70.7858 84.0869C70.4119 84.2 70.0461 84.3314 69.6864 84.4809C69.3267 84.6285 68.9751 84.7962 68.6316 84.9801C68.288 85.162 67.9546 85.362 67.6312 85.5783C67.3079 85.7945 66.9947 86.0269 66.6936 86.2734C66.3925 86.522 66.1055 86.7827 65.8287 87.0575C65.5538 87.3323 65.2931 87.6213 65.0466 87.9224C64.8001 88.2235 64.5677 88.5347 64.3514 88.8581C64.1352 89.1834 63.9351 89.5169 63.7512 89.8604C63.5674 90.2039 63.4016 90.5535 63.2521 90.9133C63.1046 91.273 62.9732 91.6408 62.8601 92.0126C62.7469 92.3844 62.6519 92.7623 62.5771 93.1443C62.5004 93.5262 62.4438 93.9102 62.4054 94.2982C62.367 94.6862 62.3488 95.0742 62.3488 95.4642C62.3488 95.8522 62.367 96.2422 62.4054 96.6282C62.4438 97.0162 62.5004 97.4001 62.5771 97.7821C62.6519 98.164 62.7469 98.5419 62.8601 98.9137C62.9732 99.2876 63.1046 99.6534 63.2521 100.013C63.4016 100.373 63.5674 100.724 63.7512 101.068C63.9351 101.411 64.1352 101.745 64.3514 102.068C64.5677 102.392 64.8001 102.705 65.0466 103.006C65.2931 103.307 65.5559 103.594 65.8307 103.869C66.1055 104.146 66.3945 104.406 66.6956 104.653C66.9947 104.899 67.3079 105.132 67.6312 105.348C67.9546 105.564 68.29 105.764 68.6316 105.948C68.9751 106.13 69.3267 106.298 69.6864 106.445C70.0461 106.595 70.4139 106.726 70.7858 106.839C71.1576 106.953 71.5355 107.048 71.9174 107.122C72.2994 107.199 72.6833 107.256 73.0713 107.294C73.4593 107.333 73.8473 107.351 74.2374 107.351C74.6254 107.351 75.0134 107.333 75.4014 107.294C75.7894 107.256 76.1733 107.199 76.5553 107.122C76.9372 107.046 77.3151 106.953 77.6869 106.839C78.0608 106.726 78.4265 106.595 78.7862 106.445C79.146 106.296 79.4976 106.13 79.8411 105.946C80.1847 105.762 80.5181 105.562 80.8414 105.346C81.1648 105.13 81.476 104.899 81.7771 104.651C82.0782 104.404 82.3672 104.144 82.642 103.869C82.9168 103.594 83.1795 103.305 83.4261 103.004C83.6726 102.703 83.905 102.39 84.1213 102.066C84.3375 101.743 84.5375 101.409 84.7194 101.066C84.9033 100.722 85.069 100.371 85.2186 100.011C85.3681 99.6513 85.4995 99.2856 85.6126 98.9137C85.7258 98.5399 85.8188 98.164 85.8955 97.7821C85.9703 97.4001 86.0289 97.0142 86.0653 96.6262C86.1037 96.2402 86.1239 95.8522 86.1239 95.4622C86.1239 95.0721 86.1037 94.6841 86.0653 94.2961C86.0269 93.9102 85.9683 93.5262 85.8935 93.1443C85.8167 92.7623 85.7218 92.3844 85.6086 92.0126C85.4954 91.6408 85.3641 91.275 85.2145 90.9153C85.065 90.5556 84.8993 90.2039 84.7154 89.8604C84.5315 89.5169 84.3314 89.1834 84.1152 88.8601C83.899 88.5368 83.6686 88.2255 83.422 87.9244C83.1735 87.6233 82.9128 87.3344 82.638 87.0595C82.3631 86.7847 82.0741 86.524 81.773 86.2775C81.4719 86.0289 81.1607 85.7985 80.8374 85.5823C80.5141 85.3661 80.1806 85.166 79.8371 84.9821C79.4935 84.7982 79.1419 84.6325 78.7822 84.483C78.4225 84.3334 78.0567 84.2021 77.6849 84.0889C77.3131 83.9757 76.9352 83.8808 76.5532 83.804C76.1713 83.7292 75.7873 83.6706 75.4014 83.6322C75.0134 83.5938 74.6254 83.5756 74.2353 83.5736V83.5756Z" fill="white"/>
  <path d="M107.419 109.226C106.969 109.226 106.518 109.204 106.069 109.159C105.621 109.115 105.176 109.048 104.734 108.961C104.291 108.872 103.855 108.763 103.424 108.632C102.992 108.503 102.569 108.349 102.151 108.177C101.735 108.005 101.329 107.813 100.931 107.599C100.534 107.387 100.146 107.157 99.7726 106.906C99.3967 106.656 99.037 106.387 98.6874 106.102C98.3398 105.815 98.0064 105.512 97.6871 105.194C97.3678 104.875 97.0667 104.542 96.7797 104.194C96.4948 103.845 96.226 103.483 95.9754 103.109C95.7249 102.733 95.4925 102.347 95.2803 101.949C95.0681 101.553 94.8761 101.145 94.7043 100.728C94.5305 100.312 94.379 99.8878 94.2476 99.4573C94.1183 99.0249 94.0071 98.5884 93.9202 98.1478C93.8313 97.7053 93.7667 97.2587 93.7222 96.8101C93.6777 96.3614 93.6555 95.9128 93.6555 95.4622C93.6555 95.0115 93.6777 94.5609 93.7222 94.1122C93.7667 93.6636 93.8313 93.219 93.9202 92.7765C94.0071 92.3339 94.1183 91.8974 94.2476 91.467C94.379 91.0345 94.5305 90.6122 94.7043 90.1959C94.8761 89.7775 95.0681 89.3714 95.2803 88.9733C95.4925 88.5772 95.7249 88.1912 95.9754 87.8153C96.226 87.4415 96.4948 87.0797 96.7797 86.7301C97.0667 86.3825 97.3678 86.0491 97.6871 85.7298C98.0064 85.4105 98.3398 85.1094 98.6874 84.8225C99.037 84.5375 99.3967 84.2688 99.7726 84.0182C100.146 83.7676 100.534 83.5372 100.931 83.323C101.329 83.1108 101.735 82.9188 102.151 82.7471C102.569 82.5733 102.992 82.4217 103.424 82.2904C103.855 82.161 104.291 82.0519 104.734 81.963C105.176 81.8761 105.621 81.8094 106.069 81.7649C106.518 81.7205 106.969 81.6983 107.419 81.6983C107.87 81.6983 108.319 81.7205 108.767 81.7649C109.216 81.8094 109.663 81.8761 110.103 81.963C110.546 82.0519 110.982 82.161 111.415 82.2904C111.845 82.4217 112.269 82.5733 112.686 82.7471C113.102 82.9188 113.51 83.1108 113.906 83.323C114.304 83.5372 114.69 83.7676 115.066 84.0182C115.44 84.2688 115.802 84.5375 116.149 84.8225C116.499 85.1094 116.832 85.4105 117.152 85.7298C117.469 86.0491 117.772 86.3825 118.057 86.7301C118.344 87.0797 118.613 87.4415 118.863 87.8153C119.114 88.1912 119.344 88.5772 119.557 88.9733C119.769 89.3714 119.963 89.7775 120.135 90.1959C120.306 90.6122 120.458 91.0345 120.589 91.467C120.721 91.8974 120.83 92.3339 120.919 92.7765C121.005 93.219 121.072 93.6636 121.117 94.1122C121.161 94.5609 121.181 95.0115 121.181 95.4622C121.181 95.9128 121.159 96.3614 121.115 96.8101C121.07 97.2587 121.003 97.7033 120.915 98.1458C120.828 98.5884 120.716 99.0249 120.587 99.4553C120.456 99.8858 120.302 100.31 120.13 100.726C119.959 101.143 119.765 101.549 119.552 101.947C119.34 102.345 119.108 102.731 118.857 103.105C118.607 103.479 118.34 103.841 118.053 104.19C117.768 104.538 117.465 104.871 117.146 105.19C116.828 105.508 116.495 105.811 116.145 106.096C115.798 106.383 115.436 106.652 115.062 106.9C114.686 107.151 114.3 107.383 113.904 107.595C113.506 107.807 113.1 108.001 112.684 108.173C112.267 108.347 111.843 108.499 111.413 108.63C110.982 108.761 110.546 108.87 110.103 108.957C109.661 109.046 109.216 109.113 108.767 109.157C108.319 109.202 107.87 109.224 107.419 109.226ZM107.419 83.5756C107.029 83.5756 106.641 83.5938 106.253 83.6322C105.865 83.6706 105.481 83.7272 105.099 83.804C104.718 83.8808 104.34 83.9737 103.968 84.0869C103.596 84.2 103.23 84.3314 102.871 84.4809C102.511 84.6285 102.159 84.7962 101.816 84.9801C101.472 85.162 101.139 85.362 100.815 85.5783C100.49 85.7945 100.179 86.0269 99.8777 86.2734C99.5766 86.522 99.2876 86.7827 99.0127 87.0575C98.7379 87.3323 98.4772 87.6213 98.2287 87.9224C97.9821 88.2235 97.7517 88.5347 97.5355 88.8581C97.3173 89.1834 97.1192 89.5169 96.9353 89.8604C96.7514 90.2039 96.5857 90.5535 96.4362 90.9133C96.2866 91.273 96.1553 91.6408 96.0421 92.0126C95.931 92.3844 95.836 92.7623 95.7592 93.1443C95.6844 93.5262 95.6258 93.9102 95.5874 94.2982C95.5511 94.6862 95.5309 95.0742 95.5309 95.4642C95.5309 95.8522 95.5511 96.2422 95.5895 96.6282C95.6258 97.0162 95.6844 97.4001 95.7592 97.7821C95.836 98.164 95.931 98.5419 96.0441 98.9137C96.1573 99.2876 96.2866 99.6534 96.4362 100.013C96.5857 100.373 96.7514 100.724 96.9353 101.068C97.1192 101.411 97.3193 101.745 97.5355 102.068C97.7517 102.392 97.9821 102.705 98.2307 103.006C98.4772 103.307 98.7379 103.594 99.0127 103.869C99.2896 104.146 99.5766 104.406 99.8777 104.653C100.179 104.899 100.492 105.132 100.815 105.348C101.139 105.564 101.472 105.764 101.816 105.948C102.159 106.13 102.511 106.298 102.871 106.445C103.23 106.595 103.596 106.726 103.97 106.839C104.342 106.953 104.72 107.048 105.102 107.122C105.481 107.199 105.867 107.256 106.255 107.294C106.641 107.333 107.031 107.351 107.419 107.351C107.809 107.351 108.197 107.333 108.585 107.294C108.973 107.256 109.357 107.199 109.739 107.122C110.121 107.046 110.497 106.953 110.871 106.839C111.243 106.726 111.609 106.595 111.968 106.445C112.328 106.296 112.68 106.13 113.023 105.946C113.367 105.762 113.7 105.562 114.023 105.346C114.349 105.13 114.66 104.899 114.961 104.651C115.262 104.404 115.551 104.144 115.826 103.869C116.101 103.594 116.362 103.305 116.608 103.004C116.857 102.703 117.087 102.39 117.303 102.066C117.52 101.743 117.72 101.409 117.903 101.066C118.087 100.722 118.253 100.371 118.403 100.011C118.55 99.6513 118.682 99.2856 118.795 98.9137C118.908 98.5399 119.003 98.164 119.078 97.7821C119.154 97.4001 119.211 97.0142 119.249 96.6282C119.288 96.2402 119.306 95.8522 119.306 95.4622C119.306 95.0721 119.288 94.6841 119.247 94.2961C119.209 93.9102 119.152 93.5262 119.076 93.1443C119.001 92.7623 118.906 92.3844 118.793 92.0126C118.679 91.6408 118.548 91.275 118.399 90.9153C118.249 90.5556 118.083 90.2039 117.899 89.8604C117.716 89.5169 117.515 89.1834 117.299 88.8601C117.083 88.5368 116.851 88.2255 116.604 87.9244C116.358 87.6233 116.097 87.3344 115.822 87.0595C115.545 86.7847 115.258 86.524 114.957 86.2754C114.656 86.0289 114.345 85.7985 114.019 85.5823C113.696 85.3661 113.363 85.166 113.021 84.9821C112.678 84.7982 112.326 84.6325 111.966 84.483C111.607 84.3334 111.241 84.2021 110.869 84.0889C110.495 83.9757 110.119 83.8808 109.737 83.804C109.355 83.7292 108.971 83.6706 108.583 83.6322C108.197 83.5938 107.807 83.5756 107.419 83.5736V83.5756Z" fill="white"/>
  <path d="M94.7265 98.4732C94.6012 98.4732 94.482 98.4489 94.3668 98.4025C94.2516 98.354 94.1506 98.2873 94.0617 98.1984C93.9748 98.1115 93.9061 98.0104 93.8596 97.8952C93.8111 97.78 93.7868 97.6608 93.7868 97.5355C93.7868 97.3435 93.7686 97.1516 93.7302 96.9636C93.6939 96.7737 93.6373 96.5898 93.5645 96.4119C93.4898 96.2341 93.3988 96.0644 93.2917 95.9027C93.1846 95.743 93.0634 95.5955 92.926 95.4581C92.7906 95.3227 92.643 95.1994 92.4814 95.0923C92.3217 94.9852 92.152 94.8943 91.9741 94.8215C91.7963 94.7468 91.6124 94.6922 91.4225 94.6538C91.2325 94.6174 91.0425 94.5972 90.8485 94.5972C90.6566 94.5972 90.4646 94.6174 90.2766 94.6538C90.0867 94.6922 89.9028 94.7468 89.725 94.8215C89.5471 94.8943 89.3774 94.9852 89.2177 95.0923C89.0561 95.1994 88.9085 95.3227 88.7711 95.4581C88.6357 95.5955 88.5125 95.743 88.4053 95.9027C88.2982 96.0644 88.2093 96.2341 88.1346 96.4119C88.0598 96.5898 88.0052 96.7737 87.9668 96.9636C87.9305 97.1516 87.9102 97.3435 87.9102 97.5355C87.9062 97.6568 87.8799 97.774 87.8294 97.8851C87.7809 97.9963 87.7122 98.0933 87.6253 98.1781C87.5364 98.261 87.4374 98.3257 87.3242 98.3721C87.211 98.4166 87.0938 98.4409 86.9726 98.4409C86.8513 98.4409 86.7341 98.4166 86.621 98.3721C86.5098 98.3257 86.4088 98.261 86.3219 98.1781C86.235 98.0933 86.1663 97.9963 86.1157 97.8851C86.0672 97.774 86.039 97.6568 86.0349 97.5355C86.0349 97.2203 86.0652 96.907 86.1279 96.5958C86.1885 96.2866 86.2815 95.9855 86.4027 95.6945C86.5219 95.4015 86.6715 95.1247 86.8473 94.862C87.0231 94.5992 87.2211 94.3547 87.4455 94.1324C87.6698 93.9081 87.9123 93.7081 88.175 93.5343C88.4377 93.3585 88.7145 93.2089 89.0076 93.0877C89.2986 92.9684 89.5997 92.8755 89.9109 92.8149C90.2201 92.7522 90.5333 92.7219 90.8485 92.7219C91.1658 92.7219 91.479 92.7522 91.7882 92.8149C92.0974 92.8755 92.3985 92.9684 92.6915 93.0877C92.9825 93.2089 93.2614 93.3585 93.5241 93.5343C93.7868 93.7081 94.0293 93.9081 94.2536 94.1324C94.4759 94.3547 94.676 94.5992 94.8518 94.862C95.0276 95.1247 95.1751 95.4015 95.2964 95.6945C95.4176 95.9855 95.5086 96.2866 95.5712 96.5958C95.6319 96.907 95.6622 97.2203 95.6622 97.5355C95.6622 97.6608 95.6399 97.78 95.5914 97.8952C95.545 98.0084 95.4762 98.1115 95.3894 98.1984C95.3004 98.2873 95.1994 98.354 95.0842 98.4025C94.969 98.4489 94.8498 98.4732 94.7265 98.4732Z" fill="white"/>
  <path d="M132.086 62.6883C132.086 62.6883 133.719 54.2129 119.136 46.7884C104.651 39.4123 87.1444 41.6938 77.1776 44.9858C69.549 47.4977 26.0849 64.3959 61.7708 73.1784C66.0307 74.2272 73.6775 74.2272 81.7447 73.6493C80.3241 74.4839 79.5561 75.2336 79.7016 75.7853C80.1038 77.3191 87.2676 76.7695 95.7046 74.5587C101.609 73.0127 106.569 71.0626 108.876 69.5046C109.582 69.2984 110.269 69.0458 110.942 68.7508C112.581 74.979 124.219 83.0118 126.842 82.0277C129.465 81.0435 144.215 70.0643 132.086 62.6883Z" fill="#555CE4"/>
</svg>