<svg xmlns="http://www.w3.org/2000/svg" width="209" height="214" viewBox="0 0 209 214" fill="none">
  <path d="M31.2053 120.794H29.8508V116.221L25.8192 109.146H27.3171L30.4564 114.596H30.6635L33.7709 109.146H35.237L31.2053 116.221V120.794Z" fill="black"/>
  <path d="M40.5808 120.97C39.7521 120.97 39.0271 120.794 38.4136 120.444C37.7961 120.085 37.322 119.563 36.9953 118.882C36.6647 118.205 36.5013 117.376 36.5013 116.396C36.5013 115.432 36.6647 114.608 36.9953 113.926C37.322 113.237 37.7961 112.715 38.4136 112.365C39.0271 112.014 39.7521 111.839 40.5808 111.839C41.4094 111.839 42.1265 112.014 42.732 112.365C43.3456 112.715 43.8196 113.237 44.1503 113.926C44.4889 114.608 44.6602 115.432 44.6602 116.396C44.6602 117.376 44.4889 118.205 44.1503 118.882C43.8196 119.563 43.3456 120.085 42.732 120.444C42.1265 120.794 41.4094 120.97 40.5808 120.97ZM40.5808 119.79C41.4493 119.79 42.1185 119.516 42.5886 118.962C43.0547 118.412 43.2898 117.556 43.2898 116.396C43.2898 115.241 43.0547 114.384 42.5886 113.831C42.1185 113.281 41.4493 113.002 40.5808 113.002C39.6964 113.002 39.0231 113.281 38.557 113.831C38.0869 114.384 37.8558 115.241 37.8558 116.396C37.8558 117.556 38.0869 118.412 38.557 118.962C39.0231 119.516 39.6964 119.79 40.5808 119.79Z" fill="black"/>
  <path d="M49.9643 120.97C48.9643 120.97 48.2194 120.707 47.7333 120.173C47.2553 119.643 47.0162 118.874 47.0162 117.862V111.998H48.307V117.83C48.307 119.161 48.9325 119.822 50.1874 119.822C50.9841 119.822 51.6096 119.563 52.0677 119.042C52.5338 118.524 52.7689 117.679 52.7689 116.508V111.998H54.0756V120.794H52.8486V119.408L52.6733 119.376C52.3745 119.91 52.012 120.308 51.5897 120.571C51.1634 120.834 50.6216 120.97 49.9643 120.97Z" fill="black"/>
  <path d="M57.1246 120.794V111.998H58.3676V113.384L58.5269 113.416C58.9413 112.42 59.7101 111.918 60.8376 111.918C61.4431 111.918 61.8933 112.03 62.1921 112.253L61.8574 113.353L61.6981 113.384C61.3674 113.217 61.0049 113.129 60.6145 113.129C59.9133 113.129 59.3715 113.396 58.9891 113.926C58.6146 114.448 58.4313 115.297 58.4313 116.476V120.794H57.1246Z" fill="black"/>
  <path d="M67.9102 124.364V111.998H69.2169V113.321L69.3762 113.353C70.0335 112.345 70.9936 111.839 72.2605 111.839C72.9935 111.839 73.6309 112.01 74.1727 112.349C74.7225 112.679 75.1488 113.185 75.4476 113.863C75.7543 114.544 75.9097 115.388 75.9097 116.396C75.9097 117.408 75.7503 118.253 75.4316 118.93C75.1129 119.611 74.6707 120.121 74.109 120.46C73.5433 120.798 72.8979 120.97 72.1649 120.97C71.5673 120.97 71.0375 120.862 70.5714 120.651C70.1132 120.44 69.7148 120.101 69.3762 119.631L69.2169 119.663V124.364H67.9102ZM71.878 119.79C73.6508 119.79 74.5392 118.659 74.5392 116.396C74.5392 114.133 73.6508 113.002 71.878 113.002C71.3562 113.002 70.894 113.126 70.4917 113.369C70.0973 113.604 69.7826 113.974 69.5515 114.484C69.3284 114.986 69.2169 115.623 69.2169 116.396C69.2169 117.173 69.3284 117.814 69.5515 118.324C69.7826 118.826 70.0973 119.197 70.4917 119.44C70.894 119.675 71.3562 119.79 71.878 119.79Z" fill="black"/>
  <path d="M80.4966 120.97C79.6241 120.97 78.9429 120.743 78.4568 120.284C77.9788 119.83 77.7397 119.181 77.7397 118.34C77.7397 117.822 77.8433 117.384 78.0585 117.034C78.2696 116.675 78.6003 116.38 79.0464 116.157C79.5006 115.926 80.0982 115.751 80.8312 115.631C81.4686 115.528 81.9506 115.408 82.2813 115.281C82.608 115.145 82.8311 114.994 82.9506 114.835C83.0661 114.667 83.1259 114.452 83.1259 114.197C83.1259 113.807 82.9864 113.504 82.7116 113.289C82.4327 113.078 81.9945 112.97 81.3889 112.97C80.8232 112.97 80.3372 113.082 79.9229 113.305C79.5165 113.52 79.146 113.843 78.8074 114.277H78.6481L78.0106 113.384C78.3811 112.906 78.8552 112.532 79.4289 112.253C80.0026 111.978 80.6559 111.839 81.3889 111.839C82.4287 111.839 83.1936 112.07 83.6836 112.524C84.1696 112.97 84.4166 113.6 84.4166 114.404V119.057C84.4166 119.547 84.6238 119.79 85.0381 119.79C85.1736 119.79 85.309 119.771 85.4365 119.727L85.548 119.759L85.7074 120.651C85.6118 120.715 85.4843 120.763 85.3249 120.794C85.1656 120.834 85.0062 120.858 84.8469 120.858C84.3569 120.858 83.9904 120.755 83.7474 120.539C83.5004 120.328 83.341 120.014 83.2693 119.599L83.1099 119.583C82.855 120.041 82.5124 120.388 82.0901 120.619C81.6638 120.85 81.134 120.97 80.4966 120.97ZM80.7834 119.918C81.2694 119.918 81.6917 119.806 82.0423 119.583C82.4008 119.36 82.6797 119.049 82.8709 118.643C83.0621 118.229 83.1577 117.751 83.1577 117.209V116.093L83.0143 116.062C82.8112 116.201 82.5681 116.317 82.2813 116.412C82.0024 116.508 81.616 116.595 81.118 116.667C80.6081 116.731 80.1978 116.838 79.891 116.986C79.5922 117.125 79.3811 117.305 79.2536 117.528C79.1261 117.751 79.0624 118.022 79.0624 118.34C79.0624 118.862 79.2098 119.257 79.5086 119.52C79.8153 119.786 80.2416 119.918 80.7834 119.918Z" fill="black"/>
  <path d="M87.4819 120.794V111.998H88.7249V113.384L88.8842 113.416C89.2986 112.42 90.0674 111.918 91.1949 111.918C91.8004 111.918 92.2506 112.03 92.5494 112.253L92.2147 113.353L92.0554 113.384C91.7247 113.217 91.3622 113.129 90.9718 113.129C90.2706 113.129 89.7288 113.396 89.3464 113.926C88.9719 114.448 88.7886 115.297 88.7886 116.476V120.794H87.4819Z" fill="black"/>
  <path d="M96.3723 120.97C95.4998 120.97 94.8186 120.743 94.3326 120.284C93.8545 119.83 93.6155 119.181 93.6155 118.34C93.6155 117.822 93.7191 117.384 93.9342 117.034C94.1453 116.675 94.476 116.38 94.9222 116.157C95.3763 115.926 95.9739 115.751 96.7069 115.631C97.3443 115.528 97.8264 115.408 98.157 115.281C98.4837 115.145 98.7068 114.994 98.8263 114.835C98.9419 114.667 99.0016 114.452 99.0016 114.197C99.0016 113.807 98.8622 113.504 98.5873 113.289C98.3084 113.078 97.8702 112.97 97.2647 112.97C96.699 112.97 96.2129 113.082 95.7986 113.305C95.3923 113.52 95.0218 113.843 94.6831 114.277H94.5238L93.8864 113.384C94.2569 112.906 94.7309 112.532 95.3046 112.253C95.8783 111.978 96.5316 111.839 97.2647 111.839C98.3044 111.839 99.0693 112.07 99.5593 112.524C100.045 112.97 100.292 113.6 100.292 114.404V119.057C100.292 119.547 100.5 119.79 100.914 119.79C101.049 119.79 101.185 119.771 101.312 119.727L101.424 119.759L101.583 120.651C101.488 120.715 101.36 120.763 101.201 120.794C101.041 120.834 100.882 120.858 100.723 120.858C100.233 120.858 99.8661 120.755 99.6231 120.539C99.3761 120.328 99.2167 120.014 99.145 119.599L98.9857 119.583C98.7307 120.041 98.3881 120.388 97.9658 120.619C97.5395 120.85 97.0097 120.97 96.3723 120.97ZM96.6591 119.918C97.1451 119.918 97.5674 119.806 97.918 119.583C98.2766 119.36 98.5554 119.049 98.7466 118.643C98.9379 118.229 99.0335 117.751 99.0335 117.209V116.093L98.8901 116.062C98.6869 116.201 98.4439 116.317 98.157 116.412C97.8782 116.508 97.4917 116.595 96.9938 116.667C96.4838 116.731 96.0735 116.838 95.7667 116.986C95.468 117.125 95.2568 117.305 95.1293 117.528C95.0018 117.751 94.9381 118.022 94.9381 118.34C94.9381 118.862 95.0855 119.257 95.3843 119.52C95.6911 119.786 96.1173 119.918 96.6591 119.918Z" fill="black"/>
  <path d="M106.353 124.523C104.971 124.523 103.963 124.288 103.326 123.822C102.688 123.364 102.37 122.754 102.37 121.99C102.37 121.5 102.517 121.105 102.816 120.81C103.111 120.515 103.541 120.3 104.107 120.173V120.014C103.84 119.854 103.636 119.675 103.501 119.472C103.362 119.261 103.294 119.01 103.294 118.723C103.294 118.384 103.397 118.109 103.613 117.894C103.836 117.683 104.158 117.524 104.585 117.416V117.241C103.629 116.743 103.15 115.926 103.15 114.787C103.15 114.213 103.278 113.703 103.533 113.257C103.796 112.811 104.17 112.468 104.648 112.221C105.134 111.966 105.7 111.839 106.338 111.839C107.079 111.839 107.696 111.998 108.186 112.317C108.377 112.118 108.513 111.898 108.6 111.663C108.696 111.42 108.76 111.15 108.792 110.851L108.951 110.755L110.019 111.01C109.963 111.456 109.831 111.835 109.62 112.141C109.405 112.452 109.102 112.707 108.712 112.906V113.066C108.987 113.289 109.194 113.556 109.333 113.863C109.469 114.161 109.541 114.508 109.541 114.898C109.541 115.452 109.405 115.95 109.142 116.396C108.875 116.834 108.497 117.177 108.011 117.432C107.533 117.687 106.975 117.814 106.338 117.814C106.262 117.814 106.13 117.81 105.939 117.799C105.724 117.791 105.573 117.783 105.477 117.783C105.198 117.783 104.975 117.858 104.808 118.006C104.648 118.145 104.569 118.324 104.569 118.547C104.569 118.826 104.652 119.026 104.824 119.153C105.003 119.281 105.302 119.356 105.716 119.376L107.788 119.44C108.688 119.472 109.353 119.687 109.78 120.077C110.214 120.46 110.433 121.006 110.433 121.719C110.433 122.237 110.289 122.711 110.003 123.137C109.724 123.559 109.278 123.894 108.664 124.141C108.059 124.396 107.286 124.523 106.353 124.523ZM106.338 116.699C106.963 116.699 107.445 116.54 107.788 116.221C108.126 115.894 108.298 115.436 108.298 114.85C108.298 114.245 108.126 113.779 107.788 113.448C107.445 113.122 106.963 112.954 106.338 112.954C105.708 112.954 105.23 113.122 104.903 113.448C104.573 113.767 104.409 114.237 104.409 114.85C104.409 115.436 104.573 115.894 104.903 116.221C105.23 116.54 105.708 116.699 106.338 116.699ZM106.353 123.408C106.999 123.408 107.533 123.332 107.947 123.185C108.361 123.045 108.656 122.858 108.839 122.627C109.019 122.392 109.11 122.125 109.11 121.83C109.11 121.575 109.054 121.368 108.951 121.209C108.855 121.049 108.696 120.926 108.473 120.842C108.258 120.759 107.967 120.707 107.596 120.683L105.62 120.587H105.35C104.242 120.611 103.692 121.037 103.692 121.878C103.692 122.898 104.577 123.408 106.353 123.408Z" fill="black"/>
  <path d="M112.359 120.794V111.998H113.602V113.384L113.761 113.416C114.176 112.42 114.944 111.918 116.072 111.918C116.677 111.918 117.128 112.03 117.426 112.253L117.092 113.353L116.932 113.384C116.602 113.217 116.239 113.129 115.849 113.129C115.148 113.129 114.606 113.396 114.223 113.926C113.849 114.448 113.666 115.297 113.666 116.476V120.794H112.359Z" fill="black"/>
  <path d="M121.249 120.97C120.377 120.97 119.695 120.743 119.209 120.284C118.731 119.83 118.492 119.181 118.492 118.34C118.492 117.822 118.596 117.384 118.811 117.034C119.022 116.675 119.353 116.38 119.799 116.157C120.253 115.926 120.851 115.751 121.584 115.631C122.221 115.528 122.703 115.408 123.034 115.281C123.361 115.145 123.584 114.994 123.703 114.835C123.819 114.667 123.878 114.452 123.878 114.197C123.878 113.807 123.739 113.504 123.464 113.289C123.185 113.078 122.747 112.97 122.141 112.97C121.576 112.97 121.09 113.082 120.675 113.305C120.269 113.52 119.899 113.843 119.56 114.277H119.401L118.763 113.384C119.134 112.906 119.608 112.532 120.181 112.253C120.755 111.978 121.408 111.839 122.141 111.839C123.181 111.839 123.946 112.07 124.436 112.524C124.922 112.97 125.169 113.6 125.169 114.404V119.057C125.169 119.547 125.376 119.79 125.791 119.79C125.926 119.79 126.062 119.771 126.189 119.727L126.301 119.759L126.46 120.651C126.364 120.715 126.237 120.763 126.078 120.794C125.918 120.834 125.759 120.858 125.599 120.858C125.109 120.858 124.743 120.755 124.5 120.539C124.253 120.328 124.094 120.014 124.022 119.599L123.863 119.583C123.608 120.041 123.265 120.388 122.843 120.619C122.416 120.85 121.887 120.97 121.249 120.97ZM121.536 119.918C122.022 119.918 122.444 119.806 122.795 119.583C123.153 119.36 123.432 119.049 123.623 118.643C123.815 118.229 123.91 117.751 123.91 117.209V116.093L123.767 116.062C123.564 116.201 123.321 116.317 123.034 116.412C122.755 116.508 122.369 116.595 121.871 116.667C121.361 116.731 120.95 116.838 120.644 116.986C120.345 117.125 120.134 117.305 120.006 117.528C119.879 117.751 119.815 118.022 119.815 118.34C119.815 118.862 119.962 119.257 120.261 119.52C120.568 119.786 120.994 119.918 121.536 119.918Z" fill="black"/>
  <path d="M128.235 124.364V111.998H129.541V113.321L129.701 113.353C130.358 112.345 131.318 111.839 132.585 111.839C133.318 111.839 133.955 112.01 134.497 112.349C135.047 112.679 135.473 113.185 135.772 113.863C136.079 114.544 136.234 115.388 136.234 116.396C136.234 117.408 136.075 118.253 135.756 118.93C135.437 119.611 134.995 120.121 134.433 120.46C133.868 120.798 133.222 120.97 132.489 120.97C131.892 120.97 131.362 120.862 130.896 120.651C130.438 120.44 130.039 120.101 129.701 119.631L129.541 119.663V124.364H128.235ZM132.203 119.79C133.975 119.79 134.864 118.659 134.864 116.396C134.864 114.133 133.975 113.002 132.203 113.002C131.681 113.002 131.219 113.126 130.816 113.369C130.422 113.604 130.107 113.974 129.876 114.484C129.653 114.986 129.541 115.623 129.541 116.396C129.541 117.173 129.653 117.814 129.876 118.324C130.107 118.826 130.422 119.197 130.816 119.44C131.219 119.675 131.681 119.79 132.203 119.79Z" fill="black"/>
  <path d="M138.718 120.794V108.476H140.024V113.257L140.184 113.289C140.809 112.325 141.717 111.839 142.909 111.839C143.96 111.839 144.725 112.11 145.203 112.651C145.681 113.185 145.92 114.014 145.92 115.137V120.794H144.614V115.169C144.614 114.639 144.542 114.213 144.406 113.894C144.279 113.568 144.072 113.333 143.785 113.193C143.498 113.046 143.124 112.97 142.669 112.97C141.873 112.97 141.227 113.233 140.741 113.751C140.263 114.261 140.024 115.105 140.024 116.285V120.794H138.718Z" fill="black"/>
  <path d="M157.247 119.392L157.661 120.332C157.458 120.535 157.187 120.691 156.848 120.794C156.506 120.91 156.139 120.97 155.749 120.97C154.068 120.97 153.231 120.117 153.231 118.404V113.066H151.701V111.998H153.231V110.134L154.538 109.926V111.998H157.358V113.066H154.538V118.277C154.538 119.288 154.972 119.79 155.844 119.79C156.322 119.79 156.737 119.659 157.087 119.392H157.247Z" fill="black"/>
  <path d="M166.376 116.699H160.337C160.368 117.763 160.623 118.544 161.101 119.041C161.579 119.543 162.233 119.79 163.061 119.79C163.687 119.79 164.193 119.679 164.575 119.456C164.958 119.233 165.253 118.882 165.468 118.404H165.643L166.488 118.914C166.233 119.551 165.822 120.057 165.261 120.428C164.695 120.79 163.962 120.97 163.061 120.97C162.209 120.97 161.476 120.798 160.862 120.46C160.257 120.121 159.787 119.611 159.46 118.93C159.129 118.253 158.966 117.408 158.966 116.396C158.966 115.4 159.133 114.56 159.476 113.878C159.827 113.189 160.305 112.679 160.91 112.349C161.516 112.01 162.205 111.839 162.982 111.839C164.105 111.839 164.982 112.157 165.611 112.795C166.248 113.424 166.567 114.364 166.567 115.615C166.567 116.105 166.555 116.436 166.535 116.603L166.376 116.699ZM165.292 115.615C165.268 114.683 165.061 114.002 164.671 113.576C164.277 113.153 163.715 112.938 162.982 112.938C162.205 112.938 161.599 113.153 161.165 113.576C160.727 114.002 160.464 114.683 160.368 115.615H165.292Z" fill="black"/>
  <path d="M169.194 120.794H167.76L170.485 116.237L167.904 111.998H169.37L171.393 115.376H171.585L173.624 111.998H175.027L172.509 116.237L175.154 120.794H173.688L171.521 117.081H171.346L169.194 120.794Z" fill="black"/>
  <path d="M181.494 119.392L181.909 120.332C181.705 120.535 181.435 120.691 181.096 120.794C180.753 120.91 180.387 120.97 179.996 120.97C178.315 120.97 177.479 120.117 177.479 118.404V113.066H175.949V111.998H177.479V110.134L178.785 109.926V111.998H181.606V113.066H178.785V118.277C178.785 119.288 179.22 119.79 180.092 119.79C180.57 119.79 180.984 119.659 181.335 119.392H181.494Z" fill="black"/>
  <mask id="mask0_103_126" style="mask-type:luminance" maskUnits="userSpaceOnUse" x="0" y="5" width="209" height="209">
    <path d="M0 5.42285H208.051V214H0V5.42285Z" fill="white"/>
  </mask>
  <g mask="url(#mask0_103_126)">
    <path d="M208.023 109.974C208.023 124.611 205.004 138.55 199.53 151.171C183.583 188.121 146.824 213.98 104.03 213.98C61.2314 213.98 28.0661 190.587 11.0073 156.497C3.98784 142.502 0.0358887 126.698 0.0358887 109.974C0.0358887 52.5356 46.5949 5.98456 104.03 5.98456C161.46 5.98456 208.023 52.5356 208.023 109.974Z" fill="#F3A61E"/>
  </g>
  <mask id="mask1_103_126" style="mask-type:luminance" maskUnits="userSpaceOnUse" x="10" y="96" width="191" height="118">
    <path d="M10.5571 96.1903H200.251V214H10.5571V96.1903Z" fill="white"/>
  </mask>
  <g mask="url(#mask1_103_126)">
    <path d="M199.53 151.171C183.583 188.121 146.824 213.98 104.03 213.98C61.2314 213.98 28.0661 190.587 11.0073 156.497C14.0151 154.82 17.3974 153.462 21.178 152.442C34.0338 148.996 53.0606 144.53 53.0606 144.53L58.9128 130.085L57.9766 96.8277C57.9766 96.8277 70.948 95.8357 78.0551 96.8277C85.1622 97.8038 111.938 108.62 111.938 108.62L126.969 99.3375C126.969 99.3375 138.597 97.979 144.374 98.2858C150.154 98.6085 157.74 132.112 157.74 132.112L163.285 141.729C163.285 141.729 173.002 146.502 186.12 149.187C191.343 150.251 195.693 150.47 199.53 151.171Z" fill="#3D3B3C"/>
  </g>
  <path d="M73.1104 74.2468C73.1104 74.2468 65.329 68.8237 63.7394 66.7791C62.1538 64.7385 58.7328 60.1061 56.5962 54.5951C54.4636 49.0842 48.2004 41.2531 50.4995 36.2972C52.7987 31.3453 64.8533 21.198 64.8533 21.198C64.8533 21.198 67.0335 7.65229 76.8366 3.48713C86.6436 -0.682013 117.892 -2.46708 134.279 5.99102C142.699 10.3319 153.319 11.8095 155.895 14.9084C155.895 14.9084 151.412 15.7749 149.402 19.1893C148.697 20.3913 154.31 23.8497 155.111 24.6324C159.709 29.105 162 28.486 162 28.486C162 28.486 156.49 30.8022 150.362 29.8758C150.362 29.8758 154.191 32.9627 158.635 41.297C163.074 49.6313 159.396 53.0776 159.396 53.0776C159.396 53.0776 159.962 48.5531 151.408 46.8558C151.408 46.8558 152.161 51.3485 150.358 56.2085C148.55 61.0685 141.93 68.6161 141.93 68.6161L104.125 93L73.1064 74.2388L73.1104 74.2468Z" fill="#56352C"/>
  <path d="M69.6592 70.4964C69.6592 70.4964 66.3987 62.2634 61.3262 63.0534C56.2578 63.8434 54.6418 72.9948 57.1923 81.4364C59.7387 89.8779 65.3376 98.2233 71.3324 93.7518C75.8907 90.3471 69.6592 70.4964 69.6592 70.4964Z" fill="#DA8059"/>
  <path d="M138.383 66.6581C138.383 66.6581 140.473 58.7844 145.071 59.0045C149.668 59.2247 152.015 67.4718 150.581 75.4673C149.147 83.4707 144.977 91.6785 139.191 88.1642C134.788 85.4912 138.383 66.6581 138.383 66.6581Z" fill="#DA8059"/>
  <path d="M145 141.848L138.843 159.697L90.699 170L65 145.236C65 145.236 76.5997 139.844 79.0834 133.842C79.9618 131.691 79.9618 127.391 79.5985 122.737C78.9236 114.366 77.0669 104.876 77.0669 104.876L133.273 102C133.273 102 132.773 110.792 132.626 119.337C132.51 125.836 132.598 132.199 133.273 134.469C134.822 139.698 145 141.848 145 141.848Z" fill="#FBC092"/>
  <path d="M132 102C132 102 131.512 110.795 131.367 119.345C122.997 127.414 108.728 140.515 97.666 138.856C89.9529 137.709 82.5133 131.704 79.4773 122.746C78.8169 114.371 77 104.878 77 104.878L132 102Z" fill="#DA8059"/>
  <path d="M66.3606 64.8707C66.3606 64.8707 69.7678 89.2298 69.5221 94.3884C69.2805 99.5509 69.8846 103.268 73.171 105.913C76.4534 108.55 93.1311 123.553 99.4542 124.51C105.777 125.471 111.5 125.113 115.757 122.592C120.014 120.07 132.914 109.63 135.959 107.112C139 104.598 139.975 101.965 139.975 94.9364C139.975 87.9114 139.366 70.3906 139.975 60.3158C140.277 55.3716 137.788 25.3973 137.788 25.3973L95.318 14L71.3466 24.7976L61 34.519L66.3565 64.8786L66.3606 64.8707Z" fill="#FBC092"/>
  <path d="M100 64C100 64 102.579 81.2123 101.88 84" stroke="#DA8059" stroke-width="3.81552" stroke-linecap="round" stroke-linejoin="round"/>
  <path d="M71 61C71 61 81.6361 53.4394 87.0032 53.0788C92.3662 52.7182 94 53.7117 94 53.7117" stroke="#7D2929" stroke-width="3.81552" stroke-linecap="round" stroke-linejoin="round"/>
  <path d="M112 53.7089C112 53.7089 113.957 53.1006 118.054 53.0011C122.151 52.9055 131 59 131 59" stroke="#7D2929" stroke-width="3.81552" stroke-linecap="round" stroke-linejoin="round"/>
  <path d="M89.966 68.2347C89.9958 68.5282 90.0069 68.8218 89.9958 69.1154C89.9883 69.4089 89.9586 69.6954 89.914 69.9748C89.8657 70.2542 89.7988 70.5195 89.7171 70.7741C89.6316 71.0288 89.5313 71.2693 89.4124 71.4886C89.2972 71.7114 89.1672 71.9094 89.0186 72.0863C88.8737 72.2667 88.7176 72.4187 88.5467 72.5496C88.3795 72.6769 88.2012 72.7795 88.0154 72.8538C87.8296 72.928 87.6401 72.9776 87.4469 72.9917C87.25 73.0094 87.0568 72.9988 86.8599 72.9599C86.663 72.9174 86.4698 72.8502 86.2766 72.7547C86.0871 72.6557 85.9013 72.5355 85.723 72.3834C85.5446 72.2348 85.3774 72.0615 85.2176 71.867C85.0579 71.6689 84.913 71.4532 84.7829 71.2198C84.6492 70.9828 84.5303 70.7317 84.43 70.4664C84.3296 70.2012 84.2442 69.9253 84.1773 69.6388C84.1104 69.3523 84.0621 69.0623 84.0324 68.7687C84.0027 68.4717 83.9952 68.1781 84.0027 67.8845C84.0138 67.5945 84.0398 67.308 84.0881 67.0286C84.1364 66.7492 84.2033 66.4804 84.2851 66.2258C84.3705 65.9711 84.4708 65.7342 84.586 65.5113C84.7049 65.2921 84.8349 65.0905 84.9799 64.9136C85.1285 64.7332 85.2845 64.5811 85.4517 64.4503C85.6226 64.323 85.7973 64.2204 85.983 64.1461C86.1688 64.0718 86.3583 64.0259 86.5552 64.0082C86.7484 63.9905 86.9453 64.0011 87.1423 64.0436C87.3392 64.0825 87.5324 64.1497 87.7219 64.2487C87.9151 64.3442 88.1009 64.468 88.2792 64.6165C88.4575 64.7651 88.6247 64.9384 88.7845 65.1364C88.9406 65.331 89.0855 65.5467 89.2192 65.7837C89.353 66.0171 89.4682 66.2682 89.5722 66.5335C89.6725 66.7987 89.758 67.0746 89.8248 67.3611C89.8917 67.6476 89.94 67.9376 89.966 68.2347Z" fill="#3D1119"/>
  <path d="M119.498 62.031C119.719 62.0631 119.927 62.1272 120.131 62.2199C120.336 62.309 120.527 62.4266 120.706 62.5726C120.884 62.7152 121.046 62.8826 121.191 63.075C121.339 63.2675 121.467 63.4777 121.578 63.7093C121.684 63.9409 121.773 64.1903 121.841 64.454C121.909 64.7177 121.956 64.9885 121.982 65.2735C122.003 65.5586 122.007 65.8472 121.986 66.1429C121.965 66.4387 121.918 66.7308 121.854 67.023C121.79 67.3188 121.701 67.6038 121.595 67.8853C121.488 68.1668 121.361 68.4376 121.216 68.6941C121.071 68.9542 120.914 69.193 120.735 69.4174C120.557 69.6419 120.37 69.8486 120.165 70.0303C119.965 70.2156 119.753 70.3724 119.536 70.5078C119.315 70.6432 119.093 70.7501 118.864 70.8285C118.634 70.9104 118.404 70.9603 118.179 70.9852C117.949 71.0102 117.724 71.003 117.502 70.9674C117.281 70.9353 117.073 70.8712 116.869 70.7821C116.664 70.6895 116.473 70.5719 116.294 70.4294C116.116 70.2833 115.954 70.1158 115.809 69.9234C115.661 69.731 115.533 69.5208 115.422 69.2892C115.316 69.0576 115.227 68.8082 115.159 68.5445C115.091 68.2844 115.044 68.01 115.018 67.725C114.997 67.4399 114.993 67.1513 115.014 66.8555C115.035 66.5634 115.082 66.2676 115.146 65.9754C115.21 65.6797 115.299 65.3947 115.405 65.1132C115.512 64.8317 115.639 64.5609 115.784 64.3043C115.929 64.0478 116.086 63.8055 116.265 63.581C116.443 63.3565 116.63 63.1499 116.835 62.9682C117.035 62.7864 117.247 62.6261 117.464 62.4907C117.685 62.3589 117.907 62.2484 118.136 62.17C118.366 62.0881 118.596 62.0382 118.821 62.0132C119.051 61.9918 119.276 61.9954 119.498 62.031Z" fill="#3D1119"/>
  <path d="M84 97C84 97 90.1535 103 98.4663 103C111.75 103 119 97 119 97" stroke="#7D2929" stroke-width="1.90776" stroke-linecap="round" stroke-linejoin="round"/>
  <path d="M106.504 164.999C106.504 164.999 92.9158 161.464 83.2751 152.868C73.6344 144.276 64.2861 134.397 60.2584 122.369C56.2308 110.342 58.7491 107.019 63.5734 105.58L57.6481 97C57.6481 97 44.4402 97.0717 42.5785 102.798C40.7169 108.529 51.2984 125.888 51.0421 128.503C50.7899 131.113 47.0506 129.85 42.3583 132.46C37.6701 135.074 37.9224 144.092 42.9148 150.831C47.9113 157.57 53.5764 171.104 63.093 174.097C72.6095 177.089 101.68 170.363 101.68 170.363C101.68 170.363 123.119 178.086 137.268 173.599C151.42 169.111 165.277 150.991 168.952 147.667C172.623 144.344 175.966 142.845 172.623 138.194C169.284 133.54 163.603 129.387 163.603 129.387C163.603 129.387 168.948 108.366 165.441 103.5C161.938 98.6339 144.478 98.4665 144.478 98.4665C144.478 98.4665 147.245 106.724 146.744 110.159C146.248 113.594 149.162 112.789 149.751 117.249C150.472 122.676 113.546 163.054 106.504 164.999Z" fill="#3D3B3C"/>
  <path d="M67.0303 69C67.0303 69 68.2332 64.2909 68.6328 59.5411C69.0325 54.7913 66.3309 42.2473 68.6328 39.3901C69.8957 37.8231 75.7505 33.1751 82.041 30.8796C87.2124 28.991 92.8674 29.3451 94.8696 28.6776C97.6952 27.7415 108.921 25.4256 117.03 28.0793C125.139 30.733 130.718 35.2101 131.721 42.345C132.724 49.488 137.452 61.975 139.614 61.6494C141.776 61.3197 142 20.6392 142 20.6392L115.551 10L80.946 11.16L56 33.9362L67.0303 69Z" fill="#56352C"/>
</svg>