<svg xmlns="http://www.w3.org/2000/svg" width="220" height="221" viewBox="0 0 220 221" fill="none">
  <path d="M40.3108 124.561H39.012V120.176L35.1464 113.392H36.5826L39.5927 118.618H39.7913L42.7708 113.392H44.1765L40.3108 120.176V124.561Z" fill="black"/>
  <path d="M49.3004 124.729C48.5059 124.729 47.8107 124.561 47.2224 124.225C46.6304 123.881 46.1758 123.381 45.8626 122.728C45.5455 122.078 45.3889 121.284 45.3889 120.344C45.3889 119.42 45.5455 118.629 45.8626 117.976C46.1758 117.315 46.6304 116.815 47.2224 116.478C47.8107 116.142 48.5059 115.974 49.3004 115.974C50.095 115.974 50.7825 116.142 51.3631 116.478C51.9514 116.815 52.406 117.315 52.723 117.976C53.0477 118.629 53.212 119.42 53.212 120.344C53.212 121.284 53.0477 122.078 52.723 122.728C52.406 123.381 51.9514 123.881 51.3631 124.225C50.7825 124.561 50.095 124.729 49.3004 124.729ZM49.3004 123.599C50.1332 123.599 50.7749 123.335 51.2256 122.804C51.6726 122.277 51.8979 121.456 51.8979 120.344C51.8979 119.236 51.6726 118.415 51.2256 117.884C50.7749 117.357 50.1332 117.09 49.3004 117.09C48.4524 117.09 47.8069 117.357 47.36 117.884C46.9092 118.415 46.6877 119.236 46.6877 120.344C46.6877 121.456 46.9092 122.277 47.36 122.804C47.8069 123.335 48.4524 123.599 49.3004 123.599Z" fill="black"/>
  <path d="M58.2975 124.729C57.3387 124.729 56.6244 124.477 56.1584 123.965C55.7 123.457 55.4708 122.72 55.4708 121.75V116.127H56.7085V121.719C56.7085 122.995 57.3082 123.629 58.5114 123.629C59.2754 123.629 59.8751 123.381 60.3144 122.88C60.7613 122.384 60.9867 121.574 60.9867 120.451V116.127H62.2396V124.561H61.0631V123.232L60.895 123.201C60.6085 123.713 60.2609 124.095 59.856 124.347C59.4473 124.599 58.9278 124.729 58.2975 124.729Z" fill="black"/>
  <path d="M65.1633 124.561V116.127H66.3551V117.456L66.5079 117.487C66.9052 116.532 67.6424 116.051 68.7234 116.051C69.304 116.051 69.7357 116.157 70.0222 116.371L69.7013 117.426L69.5485 117.456C69.2315 117.296 68.8839 117.212 68.5095 117.212C67.8372 117.212 67.3177 117.468 66.951 117.976C66.592 118.476 66.4162 119.29 66.4162 120.42V124.561H65.1633Z" fill="black"/>
  <path d="M75.5049 127.984V116.127H76.7578V117.395L76.9106 117.426C77.5409 116.459 78.4614 115.974 79.6762 115.974C80.379 115.974 80.9902 116.138 81.5097 116.463C82.0368 116.78 82.4455 117.265 82.732 117.915C83.0262 118.568 83.1751 119.378 83.1751 120.344C83.1751 121.314 83.0223 122.124 82.7167 122.774C82.4112 123.427 81.9872 123.916 81.4486 124.24C80.9061 124.565 80.2873 124.729 79.5845 124.729C79.0115 124.729 78.5035 124.626 78.0565 124.424C77.6173 124.221 77.2353 123.897 76.9106 123.446L76.7578 123.476V127.984H75.5049ZM79.3094 123.599C81.0093 123.599 81.8611 122.514 81.8611 120.344C81.8611 118.174 81.0093 117.09 79.3094 117.09C78.809 117.09 78.3659 117.208 77.9801 117.441C77.602 117.666 77.3002 118.022 77.0787 118.511C76.8647 118.992 76.7578 119.603 76.7578 120.344C76.7578 121.089 76.8647 121.704 77.0787 122.193C77.3002 122.674 77.602 123.029 77.9801 123.262C78.3659 123.488 78.809 123.599 79.3094 123.599Z" fill="black"/>
  <path d="M87.5731 124.729C86.7366 124.729 86.0834 124.512 85.6174 124.072C85.159 123.637 84.9298 123.014 84.9298 122.208C84.9298 121.712 85.0291 121.291 85.2354 120.955C85.4378 120.611 85.7549 120.329 86.1827 120.115C86.6182 119.893 87.1912 119.725 87.894 119.611C88.5052 119.511 88.9674 119.397 89.2844 119.275C89.5977 119.145 89.8116 118.999 89.9262 118.847C90.0369 118.686 90.0942 118.48 90.0942 118.236C90.0942 117.861 89.9605 117.571 89.697 117.365C89.4296 117.162 89.0094 117.059 88.4288 117.059C87.8864 117.059 87.4203 117.166 87.0231 117.38C86.6335 117.586 86.2782 117.896 85.9535 118.312H85.8007L85.1896 117.456C85.5448 116.998 85.9994 116.639 86.5494 116.371C87.0995 116.108 87.7259 115.974 88.4288 115.974C89.4258 115.974 90.1592 116.196 90.629 116.631C91.095 117.059 91.3319 117.663 91.3319 118.434V122.896C91.3319 123.366 91.5305 123.599 91.9278 123.599C92.0576 123.599 92.1875 123.579 92.3097 123.537L92.4167 123.568L92.5695 124.424C92.4778 124.485 92.3556 124.531 92.2028 124.561C92.05 124.599 91.8972 124.622 91.7444 124.622C91.2746 124.622 90.9231 124.523 90.6901 124.317C90.4533 124.114 90.3005 123.812 90.2318 123.415L90.079 123.4C89.8345 123.839 89.506 124.172 89.1011 124.393C88.6924 124.615 88.1843 124.729 87.5731 124.729ZM87.8482 123.721C88.3142 123.721 88.7191 123.614 89.0552 123.4C89.399 123.186 89.6664 122.888 89.8498 122.498C90.0331 122.101 90.1248 121.643 90.1248 121.123V120.054L89.9873 120.023C89.7925 120.157 89.5595 120.268 89.2844 120.359C89.017 120.451 88.6465 120.535 88.169 120.604C87.6801 120.665 87.2867 120.768 86.9925 120.909C86.706 121.043 86.5036 121.215 86.3813 121.429C86.2591 121.643 86.198 121.903 86.198 122.208C86.198 122.709 86.3393 123.087 86.6258 123.339C86.9199 123.595 87.3287 123.721 87.8482 123.721Z" fill="black"/>
  <path d="M94.271 124.561V116.127H95.4628V117.456L95.6156 117.487C96.0128 116.532 96.7501 116.051 97.8311 116.051C98.4117 116.051 98.8433 116.157 99.1298 116.371L98.809 117.426L98.6562 117.456C98.3391 117.296 97.9915 117.212 97.6172 117.212C96.9449 117.212 96.4254 117.468 96.0587 117.976C95.6996 118.476 95.5239 119.29 95.5239 120.42V124.561H94.271Z" fill="black"/>
  <path d="M102.795 124.729C101.959 124.729 101.306 124.512 100.84 124.072C100.381 123.637 100.152 123.014 100.152 122.208C100.152 121.712 100.251 121.291 100.458 120.955C100.66 120.611 100.977 120.329 101.405 120.115C101.84 119.893 102.413 119.725 103.116 119.611C103.727 119.511 104.19 119.397 104.507 119.275C104.82 119.145 105.034 118.999 105.148 118.847C105.259 118.686 105.316 118.48 105.316 118.236C105.316 117.861 105.183 117.571 104.919 117.365C104.652 117.162 104.232 117.059 103.651 117.059C103.109 117.059 102.643 117.166 102.245 117.38C101.856 117.586 101.5 117.896 101.176 118.312H101.023L100.412 117.456C100.767 116.998 101.222 116.639 101.772 116.371C102.322 116.108 102.948 115.974 103.651 115.974C104.648 115.974 105.381 116.196 105.851 116.631C106.317 117.059 106.554 117.663 106.554 118.434V122.896C106.554 123.366 106.753 123.599 107.15 123.599C107.28 123.599 107.41 123.579 107.532 123.537L107.639 123.568L107.792 124.424C107.7 124.485 107.578 124.531 107.425 124.561C107.272 124.599 107.119 124.622 106.967 124.622C106.497 124.622 106.145 124.523 105.912 124.317C105.675 124.114 105.523 123.812 105.454 123.415L105.301 123.4C105.057 123.839 104.728 124.172 104.323 124.393C103.915 124.615 103.406 124.729 102.795 124.729ZM103.07 123.721C103.536 123.721 103.941 123.614 104.277 123.4C104.621 123.186 104.889 122.888 105.072 122.498C105.255 122.101 105.347 121.643 105.347 121.123V120.054L105.209 120.023C105.015 120.157 104.782 120.268 104.507 120.359C104.239 120.451 103.869 120.535 103.391 120.604C102.902 120.665 102.509 120.768 102.215 120.909C101.928 121.043 101.726 121.215 101.604 121.429C101.481 121.643 101.42 121.903 101.42 122.208C101.42 122.709 101.561 123.087 101.848 123.339C102.142 123.595 102.551 123.721 103.07 123.721Z" fill="black"/>
  <path d="M112.366 128.137C111.04 128.137 110.074 127.911 109.463 127.464C108.851 127.025 108.546 126.441 108.546 125.707C108.546 125.237 108.687 124.859 108.974 124.577C109.256 124.294 109.669 124.088 110.211 123.965V123.813C109.955 123.66 109.761 123.488 109.631 123.293C109.497 123.091 109.432 122.85 109.432 122.575C109.432 122.25 109.531 121.987 109.738 121.78C109.952 121.578 110.261 121.425 110.67 121.322V121.154C109.753 120.676 109.295 119.893 109.295 118.801C109.295 118.251 109.417 117.762 109.661 117.334C109.913 116.906 110.272 116.578 110.731 116.341C111.197 116.096 111.739 115.974 112.35 115.974C113.061 115.974 113.653 116.127 114.123 116.433C114.306 116.242 114.436 116.032 114.52 115.806C114.612 115.573 114.673 115.313 114.703 115.027L114.856 114.935L115.88 115.18C115.827 115.608 115.7 115.97 115.498 116.265C115.292 116.562 115.001 116.807 114.627 116.998V117.151C114.891 117.365 115.089 117.621 115.223 117.915C115.353 118.201 115.422 118.534 115.422 118.908C115.422 119.439 115.292 119.916 115.04 120.344C114.784 120.764 114.421 121.093 113.955 121.337C113.496 121.582 112.962 121.704 112.35 121.704C112.278 121.704 112.152 121.7 111.968 121.689C111.762 121.681 111.617 121.673 111.525 121.673C111.258 121.673 111.044 121.746 110.884 121.887C110.731 122.021 110.654 122.193 110.654 122.407C110.654 122.674 110.735 122.865 110.899 122.987C111.071 123.11 111.357 123.182 111.755 123.201L113.741 123.262C114.604 123.293 115.242 123.499 115.651 123.874C116.067 124.24 116.277 124.764 116.277 125.447C116.277 125.944 116.14 126.399 115.865 126.807C115.597 127.212 115.17 127.533 114.581 127.77C114.001 128.014 113.26 128.137 112.366 128.137ZM112.35 120.634C112.95 120.634 113.412 120.482 113.741 120.176C114.066 119.863 114.23 119.424 114.23 118.862C114.23 118.281 114.066 117.835 113.741 117.517C113.412 117.204 112.95 117.044 112.35 117.044C111.747 117.044 111.289 117.204 110.975 117.517C110.658 117.823 110.502 118.274 110.502 118.862C110.502 119.424 110.658 119.863 110.975 120.176C111.289 120.482 111.747 120.634 112.35 120.634ZM112.366 127.067C112.985 127.067 113.496 126.994 113.894 126.853C114.291 126.719 114.574 126.54 114.749 126.318C114.921 126.093 115.009 125.837 115.009 125.554C115.009 125.31 114.956 125.111 114.856 124.959C114.765 124.806 114.612 124.687 114.398 124.607C114.192 124.527 113.913 124.477 113.558 124.454L111.663 124.363H111.403C110.341 124.386 109.814 124.794 109.814 125.6C109.814 126.578 110.662 127.067 112.366 127.067Z" fill="black"/>
  <path d="M118.124 124.561V116.127H119.316V117.456L119.469 117.487C119.866 116.532 120.603 116.051 121.684 116.051C122.265 116.051 122.696 116.157 122.983 116.371L122.662 117.426L122.509 117.456C122.192 117.296 121.845 117.212 121.47 117.212C120.798 117.212 120.278 117.468 119.912 117.976C119.553 118.476 119.377 119.29 119.377 120.42V124.561H118.124Z" fill="black"/>
  <path d="M126.648 124.729C125.812 124.729 125.158 124.512 124.692 124.072C124.234 123.637 124.005 123.014 124.005 122.208C124.005 121.712 124.104 121.291 124.31 120.955C124.513 120.611 124.83 120.329 125.258 120.115C125.693 119.893 126.266 119.725 126.969 119.611C127.58 119.511 128.042 119.397 128.36 119.275C128.673 119.145 128.887 118.999 129.001 118.847C129.112 118.686 129.169 118.48 129.169 118.236C129.169 117.861 129.036 117.571 128.772 117.365C128.505 117.162 128.084 117.059 127.504 117.059C126.961 117.059 126.495 117.166 126.098 117.38C125.709 117.586 125.353 117.896 125.029 118.312H124.876L124.265 117.456C124.62 116.998 125.074 116.639 125.624 116.371C126.175 116.108 126.801 115.974 127.504 115.974C128.501 115.974 129.234 116.196 129.704 116.631C130.17 117.059 130.407 117.663 130.407 118.434V122.896C130.407 123.366 130.606 123.599 131.003 123.599C131.133 123.599 131.263 123.579 131.385 123.537L131.492 123.568L131.645 124.424C131.553 124.485 131.431 124.531 131.278 124.561C131.125 124.599 130.972 124.622 130.819 124.622C130.35 124.622 129.998 124.523 129.765 124.317C129.528 124.114 129.376 123.812 129.307 123.415L129.154 123.4C128.91 123.839 128.581 124.172 128.176 124.393C127.767 124.615 127.259 124.729 126.648 124.729ZM126.923 123.721C127.389 123.721 127.794 123.614 128.13 123.4C128.474 123.186 128.741 122.888 128.925 122.498C129.108 122.101 129.2 121.643 129.2 121.123V120.054L129.062 120.023C128.868 120.157 128.635 120.268 128.36 120.359C128.092 120.451 127.722 120.535 127.244 120.604C126.755 120.665 126.362 120.768 126.068 120.909C125.781 121.043 125.579 121.215 125.456 121.429C125.334 121.643 125.273 121.903 125.273 122.208C125.273 122.709 125.414 123.087 125.701 123.339C125.995 123.595 126.404 123.721 126.923 123.721Z" fill="black"/>
  <path d="M133.346 127.984V116.127H134.599V117.395L134.752 117.426C135.382 116.459 136.303 115.974 137.517 115.974C138.22 115.974 138.831 116.138 139.351 116.463C139.878 116.78 140.287 117.265 140.573 117.915C140.867 118.568 141.016 119.378 141.016 120.344C141.016 121.314 140.864 122.124 140.558 122.774C140.252 123.427 139.828 123.916 139.29 124.24C138.747 124.565 138.129 124.729 137.426 124.729C136.853 124.729 136.345 124.626 135.898 124.424C135.458 124.221 135.076 123.897 134.752 123.446L134.599 123.476V127.984H133.346ZM137.151 123.599C138.85 123.599 139.702 122.514 139.702 120.344C139.702 118.174 138.85 117.09 137.151 117.09C136.65 117.09 136.207 117.208 135.821 117.441C135.443 117.666 135.141 118.022 134.92 118.511C134.706 118.992 134.599 119.603 134.599 120.344C134.599 121.089 134.706 121.704 134.92 122.193C135.141 122.674 135.443 123.029 135.821 123.262C136.207 123.488 136.65 123.599 137.151 123.599Z" fill="black"/>
  <path d="M143.398 124.561V112.75H144.65V117.334L144.803 117.365C145.403 116.44 146.274 115.974 147.416 115.974C148.424 115.974 149.158 116.234 149.616 116.753C150.075 117.265 150.304 118.06 150.304 119.137V124.561H149.051V119.168C149.051 118.66 148.982 118.251 148.852 117.945C148.73 117.632 148.531 117.407 148.256 117.273C147.981 117.132 147.622 117.059 147.187 117.059C146.423 117.059 145.804 117.311 145.338 117.808C144.88 118.297 144.65 119.106 144.65 120.237V124.561H143.398Z" fill="black"/>
  <path d="M161.164 123.217L161.561 124.118C161.366 124.313 161.107 124.462 160.782 124.561C160.454 124.672 160.102 124.729 159.728 124.729C158.116 124.729 157.314 123.912 157.314 122.269V117.151H155.847V116.127H157.314V114.339L158.567 114.141V116.127H161.271V117.151H158.567V122.147C158.567 123.117 158.983 123.599 159.819 123.599C160.278 123.599 160.675 123.473 161.011 123.217H161.164Z" fill="black"/>
  <path d="M169.918 120.634H164.127C164.157 121.654 164.402 122.403 164.86 122.88C165.318 123.362 165.945 123.599 166.739 123.599C167.339 123.599 167.824 123.492 168.191 123.278C168.558 123.064 168.84 122.728 169.047 122.269H169.215L170.024 122.758C169.78 123.369 169.387 123.855 168.848 124.21C168.306 124.557 167.603 124.729 166.739 124.729C165.922 124.729 165.219 124.565 164.631 124.24C164.05 123.916 163.6 123.427 163.286 122.774C162.969 122.124 162.813 121.314 162.813 120.344C162.813 119.389 162.973 118.583 163.302 117.93C163.638 117.269 164.096 116.78 164.677 116.463C165.257 116.138 165.918 115.974 166.663 115.974C167.74 115.974 168.581 116.28 169.184 116.891C169.795 117.494 170.101 118.396 170.101 119.595C170.101 120.065 170.089 120.382 170.07 120.543L169.918 120.634ZM168.879 119.595C168.856 118.702 168.657 118.048 168.283 117.64C167.904 117.235 167.366 117.028 166.663 117.028C165.918 117.028 165.338 117.235 164.921 117.64C164.501 118.048 164.249 118.702 164.157 119.595H168.879Z" fill="black"/>
  <path d="M172.62 124.561H171.245L173.858 120.191L171.382 116.127H172.788L174.729 119.366H174.912L176.868 116.127H178.212L175.798 120.191L178.335 124.561H176.929L174.851 121.001H174.683L172.62 124.561Z" fill="black"/>
  <path d="M184.414 123.217L184.811 124.118C184.616 124.313 184.356 124.462 184.032 124.561C183.703 124.672 183.352 124.729 182.977 124.729C181.365 124.729 180.563 123.912 180.563 122.269V117.151H179.096V116.127H180.563V114.339L181.816 114.141V116.127H184.521V117.151H181.816V122.147C181.816 123.117 182.233 123.599 183.069 123.599C183.527 123.599 183.925 123.473 184.261 123.217H184.414Z" fill="black"/>
  <path d="M79.6707 170.079C79.4787 170.427 78.9842 170.568 79.0037 171.111C78.6556 170.935 78.3139 170.824 77.93 170.849C77.494 170.875 77.1588 170.635 76.9799 170.274C76.7716 169.858 76.4528 169.609 76.0493 169.417C76.0721 169.395 76.0949 169.376 76.1176 169.35C76.5667 169.184 76.8139 169.462 77.045 169.759C77.7901 170.708 78.1057 170.769 79.1664 170.136C79.2965 170.06 79.4234 169.97 79.5926 170.018C79.6187 170.041 79.6414 170.06 79.6675 170.079H79.6707Z" fill="#FCFCFC"/>
  <path d="M131.969 190.159C132.017 190.195 132.087 190.228 132.108 190.277C132.285 190.62 132.135 190.939 131.723 191.016C131.397 191.078 130.942 190.906 130.82 190.628C130.739 190.445 130.67 190.346 130.451 190.293C130.418 190.285 130.37 190.252 130.37 190.248C130.632 189.909 130.825 189.497 131.204 189.26C131.477 189.092 131.595 189.472 131.718 189.656C131.745 189.701 131.739 189.762 131.755 189.819C131.718 189.913 131.696 190.011 131.712 190.101C131.712 190.15 131.745 190.187 131.809 190.199C131.857 190.183 131.91 190.167 131.969 190.163V190.159Z" fill="#FCFCFC"/>
  <path d="M75.9704 169.3C75.4965 169.3 75.0833 169.21 74.9861 168.715C74.895 168.246 74.2267 168.065 74.2388 167.543C74.2935 167.527 74.3482 167.506 74.3968 167.49C75.2838 167.788 75.7699 168.4 76.0493 169.162C76.019 169.21 76.0007 169.253 75.9704 169.3Z" fill="#FCFCFC"/>
  <path d="M81.4815 167.554C81.3145 168.296 80.9936 168.833 80.6231 169.3C80.6075 169.27 80.5892 169.236 80.5762 169.206C80.6988 168.421 81.0197 167.906 81.4189 167.49C81.4398 167.511 81.4606 167.528 81.4815 167.554Z" fill="#FCFCFC"/>
  <path d="M80.5762 169.407C80.4964 170 80.0863 170.077 79.7135 170.206L79.6709 170.154C79.6922 169.504 79.9478 169.188 80.507 169.336L80.5762 169.414V169.407Z" fill="#FCFCFC"/>
  <path d="M132.181 189.75C132.172 189.845 132.144 189.947 132.135 190.042C131.868 190.143 131.628 190.175 131.407 189.991C131.536 189.738 130.826 189.275 131.794 189.218C132.098 189.332 132.163 189.529 132.181 189.744V189.75Z" fill="#EAE9E5"/>
  <mask id="mask0_103_271" style="mask-type:luminance" maskUnits="userSpaceOnUse" x="0" y="0" width="220" height="221">
    <path d="M0 0H220V220.023H0V0Z" fill="white"/>
  </mask>
  <g mask="url(#mask0_103_271)">
    <path d="M219.996 109.992C219.996 141.594 206.669 170.086 185.327 190.152C180.27 194.907 174.765 199.186 168.875 202.925C157.599 210.087 144.928 215.252 131.36 217.922C124.45 219.282 117.303 219.996 109.988 219.996C102.673 219.996 95.5303 219.282 88.6125 217.922C75.0483 215.252 62.3778 210.087 51.1017 202.925C45.2115 199.186 39.7071 194.907 34.6496 190.152C13.3043 170.086 -0.0192871 141.594 -0.0192871 109.992C-0.0192871 49.2338 49.2338 -0.0154419 109.988 -0.0154419C170.743 -0.0154419 219.996 49.2338 219.996 109.992Z" fill="#E3EBE0"/>
  </g>
  <path d="M170.158 138.519H70.4886C69.4102 131.843 62.5834 120.973 62.5834 120.973C59.525 125.764 59.2602 134.686 59.2947 138.519H49.1908C49.1908 138.519 45.668 131.782 46.7924 120.269C47.9206 108.757 54.828 105.39 54.686 99.6322C54.544 93.874 45.3802 88.964 46.2283 81.5207C47.0763 74.0812 64.2757 65.7973 65.9681 62.2896C67.6565 58.7819 63.4277 56.2563 64.1338 51.7628C64.8398 47.2693 66.5322 46.4248 74.4258 40.1087C82.3194 33.7926 103.045 31.6873 112.631 31.6873C131.945 31.6873 147.456 41.3773 151.823 49.7988C156.194 58.2203 152.813 64.5364 156.336 69.5916C159.859 74.6467 168.04 76.1904 169.022 85.4563C170.013 94.7223 161.551 100.477 162.399 104.546C163.247 108.615 170.999 118.443 171.843 123.219C172.691 127.992 170.154 138.519 170.154 138.519H170.158Z" fill="#7D2416"/>
  <path d="M130.37 23.9937C130.37 24.421 130.34 24.8522 130.287 25.2795C130.229 25.7068 130.142 26.1302 130.031 26.5536C129.917 26.977 129.779 27.3926 129.611 27.8044C129.444 28.2161 129.249 28.6201 129.024 29.0163C128.803 29.4125 128.559 29.801 128.284 30.1817C128.013 30.5585 127.716 30.9275 127.396 31.2849C127.071 31.6422 126.728 31.988 126.362 32.322C125.996 32.6522 125.607 32.9707 125.199 33.2737C124.791 33.5806 124.364 33.868 123.914 34.14C123.467 34.4119 123.006 34.6682 122.525 34.9091C122.041 35.146 121.549 35.3674 121.038 35.5694C120.527 35.7753 120.004 35.9579 119.47 36.121C118.936 36.2842 118.395 36.4318 117.838 36.5561C117.285 36.6804 116.728 36.7853 116.16 36.8669C115.592 36.9523 115.02 37.0145 114.444 37.0572C113.872 37.0999 113.292 37.1193 112.716 37.1193C112.136 37.1193 111.56 37.0999 110.985 37.0572C110.409 37.0145 109.837 36.9523 109.272 36.8669C108.704 36.7853 108.143 36.6804 107.59 36.5561C107.037 36.4318 106.492 36.2842 105.958 36.121C105.424 35.9579 104.902 35.7753 104.394 35.5694C103.883 35.3674 103.387 35.146 102.907 34.9091C102.426 34.6682 101.961 34.4119 101.515 34.14C101.069 33.868 100.641 33.5806 100.23 33.2737C99.8215 32.9707 99.4324 32.6522 99.0663 32.322C98.7002 31.988 98.3569 31.6422 98.0366 31.2849C97.7124 30.9275 97.4187 30.5585 97.1441 30.1817C96.8733 29.801 96.6254 29.4125 96.4042 29.0163C96.183 28.6201 95.9885 28.2161 95.8207 27.8044C95.6529 27.3926 95.5118 26.977 95.3974 26.5536C95.2868 26.1302 95.2029 25.7068 95.1457 25.2795C95.0885 24.8522 95.0618 24.421 95.0618 23.9937C95.0618 23.5625 95.0885 23.1314 95.1457 22.7041C95.2029 22.2768 95.2868 21.8534 95.3974 21.43C95.5118 21.0104 95.6529 20.5909 95.8207 20.1792C95.9885 19.7713 96.183 19.3634 96.4042 18.9672C96.6254 18.571 96.8733 18.1825 97.1441 17.8019C97.4187 17.4251 97.7124 17.056 98.0366 16.6987C98.3569 16.3413 98.7002 15.9956 99.0663 15.6615C99.4324 15.3313 99.8215 15.0128 100.23 14.7098C100.641 14.403 101.069 14.1155 101.515 13.8436C101.961 13.5717 102.426 13.3153 102.907 13.0745C103.387 12.8375 103.883 12.6161 104.394 12.4141C104.902 12.2121 105.424 12.0257 105.958 11.8625C106.492 11.6994 107.037 11.5517 107.59 11.4274C108.143 11.3031 108.704 11.1983 109.272 11.1167C109.837 11.0312 110.409 10.9691 110.985 10.9263C111.56 10.8836 112.136 10.8642 112.716 10.8642C113.292 10.8642 113.872 10.8836 114.444 10.9263C115.02 10.9691 115.592 11.0312 116.16 11.1167C116.728 11.1983 117.285 11.3031 117.838 11.4274C118.395 11.5517 118.936 11.6994 119.47 11.8625C120.004 12.0257 120.527 12.2121 121.038 12.4141C121.549 12.6161 122.041 12.8375 122.525 13.0745C123.006 13.3153 123.467 13.5717 123.914 13.8436C124.364 14.1155 124.791 14.403 125.199 14.7098C125.607 15.0128 125.996 15.3313 126.362 15.6615C126.728 15.9956 127.071 16.3413 127.396 16.6987C127.716 17.056 128.013 17.4251 128.284 17.8019C128.559 18.1825 128.803 18.571 129.024 18.9672C129.249 19.3634 129.444 19.7713 129.611 20.1792C129.779 20.5909 129.917 21.0104 130.031 21.43C130.142 21.8534 130.229 22.2768 130.287 22.7041C130.34 23.1314 130.37 23.5625 130.37 23.9937Z" fill="#7D2416"/>
  <path d="M127.787 34.4033L127.296 33.5421C127.296 33.5421 129.523 32.2811 131.169 30.0512C133.341 27.1294 133.593 23.9576 131.923 20.6359C127.988 12.8007 120.408 9.28297 109.4 10.1711C104.491 10.567 99.8957 12.2125 96.4518 14.8076C93.1354 17.3104 91.0868 20.5244 90.681 23.8653C90.3524 26.6027 91.3922 28.9555 93.777 30.8509C95.5975 32.3003 97.5611 32.9346 97.5765 32.9385L97.2789 33.8804C97.1939 33.8535 95.1453 33.1999 93.1779 31.6429C90.5302 29.5437 89.3243 26.8141 89.6953 23.75C90.1282 20.14 92.316 16.6837 95.8526 14.0195C99.4396 11.3167 104.221 9.60207 109.319 9.1907C114.808 8.74473 119.546 9.38677 123.408 11.1014C127.528 12.9276 130.694 15.9879 132.808 20.1938C135.119 24.7957 133.616 28.4288 131.946 30.6664C130.16 33.0538 127.876 34.3494 127.779 34.4033H127.787Z" fill="#7D2416"/>
  <path d="M43.1973 93.251C42.9535 93.251 42.744 93.0755 42.7097 92.8314C42.6526 92.427 41.3079 82.9087 41.7269 78.14C42.1574 73.2798 42.9764 72.5206 46.4353 69.3237L46.641 69.133C48.4771 67.4315 51.5512 65.9627 54.2635 64.6657C56.7776 63.4601 59.3718 62.2241 59.6651 61.3467C60.0156 60.2937 59.2385 59.2141 58.4842 58.1688C57.9623 57.4402 57.4671 56.7573 57.4024 56.0859C57.231 54.3691 58.0462 50.7144 65.4477 45.5414C72.8607 40.3645 82.5974 38.0603 82.6926 38.0374C82.9555 37.9764 83.2183 38.1404 83.2793 38.4074C83.3402 38.6707 83.1802 38.9339 82.9136 38.9949C82.8145 39.0178 73.2569 41.2763 66.0039 46.3463C58.7585 51.4164 58.2519 54.7773 58.3776 55.9867C58.4157 56.3949 58.8347 56.9786 59.2766 57.5928C60.088 58.722 61.1013 60.1259 60.5946 61.6595C60.1908 62.8688 58.0881 63.9256 54.6863 65.5507C52.035 66.8173 49.0294 68.2555 47.3 69.8502L47.0943 70.0447C43.6278 73.2493 43.0945 73.7414 42.7021 78.224C42.2869 82.882 43.6659 92.5948 43.6773 92.6902C43.7154 92.9572 43.5287 93.209 43.2621 93.2434C43.2392 93.2434 43.2125 93.2472 43.1897 93.2472L43.1973 93.251Z" fill="#7D2416"/>
  <path d="M168.81 74.2387C168.579 74.2387 168.37 74.063 168.336 73.8224C167.963 71.2902 164.703 68.2958 162.083 65.8858C159.981 63.9532 158.315 62.4293 158.058 61.2262C157.83 60.1797 158.203 58.8773 158.678 57.2312C159.458 54.5042 160.429 51.1126 159.17 47.2436C157.558 42.2938 140.085 38.3064 133.488 37.1911C133.227 37.1491 133.051 36.8932 133.092 36.6259C133.137 36.3585 133.384 36.1752 133.649 36.221C133.708 36.2287 139.745 37.2637 145.958 39.055C154.425 41.4955 159.174 44.15 160.081 46.9343C161.44 51.0897 160.373 54.8021 159.6 57.51C159.185 58.9613 158.823 60.2141 158.999 61.0161C159.193 61.9099 160.91 63.4873 162.732 65.1563C165.611 67.7993 168.87 70.7936 169.295 73.6772C169.333 73.9446 169.154 74.1967 168.892 74.2349C168.866 74.2349 168.844 74.2387 168.818 74.2387H168.81Z" fill="#7D2416"/>
  <mask id="mask1_103_271" style="mask-type:luminance" maskUnits="userSpaceOnUse" x="34" y="121" width="152" height="100">
    <path d="M34.2029 121.505H185.774V220.023H34.2029V121.505Z" fill="white"/>
  </mask>
  <g mask="url(#mask1_103_271)">
    <path d="M131.361 217.922C124.45 219.282 117.304 219.996 109.989 219.996C102.674 219.996 95.5304 219.282 88.6127 217.922C75.0484 215.252 62.378 210.088 51.1018 202.925C45.2116 199.186 39.7073 194.907 34.6498 190.152C37.4917 182.149 41.4949 172.302 45.1505 168.413C45.6968 167.836 46.2736 167.324 46.8962 166.866C46.942 166.832 46.9955 166.793 47.0452 166.755C47.0986 166.717 47.1559 166.679 47.2056 166.641C47.2476 166.61 47.2896 166.583 47.3355 166.553C47.3928 166.515 47.4501 166.476 47.5074 166.438C47.9276 166.163 48.3668 165.907 48.8138 165.674C48.8787 165.644 48.9398 165.609 49.0009 165.579C49.062 165.548 49.1232 165.518 49.1881 165.487C49.2225 165.468 49.2607 165.453 49.2989 165.434C49.3409 165.411 49.3906 165.392 49.4364 165.369C49.551 165.315 49.6579 165.262 49.7725 165.216C49.8298 165.189 49.8871 165.166 49.9482 165.139C49.9788 165.128 50.0094 165.113 50.0476 165.101C50.1163 165.071 50.1813 165.044 50.2538 165.017C50.4143 164.948 50.5823 164.884 50.7504 164.822C50.8803 164.773 51.0063 164.727 51.1439 164.681C51.2012 164.666 51.2546 164.643 51.3158 164.624C51.3998 164.597 51.4838 164.566 51.5679 164.544C51.6748 164.505 51.7856 164.471 51.9002 164.437C51.9957 164.406 52.095 164.379 52.1905 164.349C52.3395 164.303 52.4884 164.261 52.6336 164.223C52.8399 164.165 53.0461 164.112 53.2524 164.058C53.3976 164.024 53.5427 163.99 53.6879 163.951C53.7146 163.948 53.7452 163.94 53.7719 163.936C53.8827 163.913 53.9858 163.887 54.0966 163.864C54.5588 163.764 55.0248 163.673 55.5023 163.592C55.636 163.57 55.7659 163.55 55.9034 163.524H55.9339C56.2434 163.466 56.5489 163.421 56.8622 163.375C56.8698 163.375 56.8736 163.375 56.8774 163.375C57.3587 163.302 57.84 163.241 58.329 163.18C58.5047 163.157 58.6804 163.142 58.8599 163.119C59.0357 163.1 59.2114 163.077 59.3871 163.061C59.5743 163.042 59.7538 163.019 59.9371 163.004C60.1129 162.985 60.2847 162.97 60.4605 162.951C61.4001 162.859 62.3551 162.775 63.3215 162.687C63.6691 162.657 64.0206 162.626 64.3758 162.595C65.6325 162.481 66.9122 162.359 68.1956 162.21C68.379 162.187 68.5585 162.164 68.7419 162.141C68.8603 162.129 68.9749 162.114 69.0933 162.099C69.2385 162.08 69.3836 162.064 69.5288 162.042C69.8458 162.003 70.1629 161.954 70.4837 161.908C70.5945 161.893 70.6976 161.877 70.8084 161.862C70.9612 161.839 71.1178 161.812 71.2706 161.786C71.4272 161.759 71.5838 161.74 71.7405 161.709C71.8665 161.686 71.9964 161.663 72.1263 161.64C72.2676 161.618 72.4051 161.595 72.5464 161.568C72.5999 161.556 72.6572 161.545 72.7222 161.537C72.8597 161.511 73.001 161.484 73.1423 161.453C73.4861 161.388 73.8261 161.316 74.1699 161.236C74.315 161.205 74.4602 161.171 74.6053 161.14C75.037 161.045 75.4686 160.934 75.8926 160.823C76.011 160.792 76.1295 160.758 76.2479 160.728C76.351 160.701 76.4503 160.67 76.5535 160.644C76.6986 160.605 76.8438 160.563 76.9813 160.521C77.1646 160.472 77.3327 160.418 77.5084 160.368C77.8598 160.262 78.2036 160.155 78.5436 160.048C78.7117 159.994 78.8759 159.941 79.0402 159.883C79.2082 159.83 79.3687 159.773 79.5368 159.715C79.7048 159.658 79.8614 159.601 80.0181 159.547C80.1747 159.49 80.3313 159.433 80.4841 159.375C80.4841 159.375 80.4879 159.375 80.4955 159.375C80.6483 159.318 80.8011 159.261 80.9539 159.2C81.0723 159.154 81.1907 159.104 81.313 159.062C81.3435 159.051 81.3779 159.035 81.4085 159.024C81.5307 158.974 81.6529 158.925 81.7714 158.879C81.8248 158.856 81.8783 158.837 81.928 158.81C82.0464 158.764 82.1648 158.714 82.2832 158.661C82.31 158.653 82.3367 158.642 82.3596 158.63C82.4818 158.585 82.5926 158.531 82.7072 158.481C82.8486 158.42 82.9861 158.359 83.1274 158.298C83.2611 158.237 83.3986 158.176 83.5361 158.107C83.815 157.977 84.09 157.844 84.3612 157.71C84.6324 157.572 84.8922 157.439 85.1481 157.305C85.2436 157.255 85.3353 157.202 85.4269 157.156C85.6714 157.022 85.9044 156.892 86.1374 156.755C86.3743 156.614 86.6073 156.472 86.8365 156.335C86.909 156.289 86.9816 156.239 87.0542 156.197C88.2154 155.46 89.2162 154.704 90.0719 153.94C90.1101 153.901 90.1483 153.867 90.1865 153.837C90.2781 153.753 90.3736 153.668 90.4615 153.588C92.2874 151.869 93.399 150.147 94.0025 148.611C94.6786 146.888 94.9231 142.778 94.988 138.695C95.0644 133.45 94.8467 128.267 94.8467 128.267L105.695 123.946L110 122.235L116.242 124.718L125.157 128.267C125.157 128.267 124.909 134.115 125.035 139.669C125.123 143.42 125.379 147.03 126.001 148.615C126.605 150.15 127.72 151.873 129.542 153.592C129.63 153.676 129.722 153.756 129.817 153.84C129.852 153.875 129.89 153.913 129.928 153.943C130.788 154.704 131.785 155.464 132.95 156.201C133.022 156.247 133.095 156.293 133.167 156.339C133.397 156.48 133.63 156.617 133.866 156.759C134.096 156.896 134.332 157.026 134.573 157.16C134.669 157.206 134.764 157.259 134.856 157.309C135.112 157.446 135.375 157.58 135.643 157.714C135.91 157.844 136.189 157.981 136.468 158.111C136.605 158.18 136.735 158.241 136.876 158.302C137.014 158.363 137.155 158.424 137.297 158.485C137.407 158.535 137.526 158.588 137.64 158.634C137.667 158.65 137.69 158.657 137.721 158.665C137.839 158.714 137.957 158.768 138.076 158.818C138.129 158.837 138.183 158.86 138.232 158.883C138.351 158.928 138.473 158.982 138.595 159.028C138.626 159.039 138.66 159.054 138.691 159.066C138.809 159.116 138.928 159.158 139.05 159.203C139.203 159.265 139.355 159.322 139.508 159.379C139.508 159.379 139.512 159.379 139.52 159.379C139.673 159.436 139.825 159.494 139.986 159.551C140.142 159.608 140.307 159.666 140.467 159.723C140.631 159.776 140.796 159.834 140.964 159.887C141.132 159.944 141.292 159.998 141.46 160.051C141.8 160.162 142.14 160.265 142.492 160.372C142.667 160.426 142.843 160.475 143.019 160.525C143.16 160.563 143.305 160.609 143.45 160.647C143.553 160.674 143.653 160.705 143.756 160.731C143.874 160.762 143.993 160.796 144.111 160.827C144.535 160.941 144.967 161.048 145.398 161.144C145.544 161.178 145.689 161.213 145.834 161.243C146.174 161.316 146.518 161.388 146.861 161.457C147.003 161.484 147.144 161.514 147.282 161.541C147.339 161.549 147.396 161.564 147.457 161.572C147.599 161.598 147.736 161.618 147.878 161.644C148.004 161.667 148.13 161.69 148.263 161.713C148.42 161.74 148.577 161.763 148.733 161.789C148.886 161.816 149.039 161.839 149.195 161.866C149.306 161.885 149.409 161.896 149.52 161.916C149.837 161.958 150.154 162.007 150.475 162.045C150.616 162.064 150.762 162.084 150.907 162.103C151.025 162.122 151.147 162.133 151.258 162.149C151.445 162.168 151.625 162.191 151.808 162.213C153.092 162.362 154.367 162.481 155.628 162.599C155.979 162.63 156.331 162.66 156.682 162.691C157.649 162.779 158.607 162.863 159.543 162.955C159.719 162.974 159.891 162.989 160.067 163.008C160.25 163.027 160.43 163.046 160.617 163.065C160.792 163.084 160.968 163.103 161.144 163.123C161.323 163.145 161.499 163.161 161.675 163.184C162.164 163.245 162.649 163.306 163.123 163.379C163.13 163.379 163.138 163.379 163.142 163.379C163.455 163.421 163.76 163.47 164.07 163.524H164.1C164.23 163.55 164.364 163.57 164.502 163.596C164.975 163.68 165.445 163.772 165.907 163.867C166.014 163.89 166.125 163.917 166.232 163.94C166.259 163.948 166.289 163.951 166.316 163.959C166.461 163.994 166.606 164.028 166.751 164.062C166.958 164.116 167.168 164.169 167.37 164.227C167.519 164.265 167.668 164.311 167.813 164.353C167.909 164.379 168.008 164.41 168.104 164.44C168.218 164.475 168.329 164.509 168.436 164.547C168.52 164.574 168.604 164.597 168.688 164.631C168.745 164.647 168.803 164.67 168.86 164.685C168.99 164.731 169.124 164.78 169.253 164.826C169.421 164.887 169.586 164.948 169.75 165.021C169.823 165.048 169.887 165.078 169.956 165.105C169.987 165.117 170.025 165.132 170.056 165.143C170.117 165.166 170.174 165.193 170.231 165.22C170.346 165.266 170.457 165.319 170.567 165.372C170.613 165.395 170.659 165.411 170.705 165.437C170.739 165.457 170.778 165.472 170.816 165.491C170.881 165.521 170.942 165.552 171.003 165.583C171.064 165.613 171.125 165.644 171.186 165.678C171.641 165.911 172.076 166.167 172.496 166.446C172.554 166.484 172.611 166.522 172.668 166.56C172.707 166.583 172.752 166.614 172.798 166.648C172.852 166.683 172.905 166.721 172.959 166.759C173.012 166.797 173.062 166.835 173.108 166.87C173.726 167.328 174.307 167.84 174.853 168.417C178.509 172.305 182.516 182.153 185.354 190.156C180.297 194.911 174.792 199.19 168.902 202.929C157.626 210.091 144.955 215.256 131.387 217.93L131.361 217.922Z" fill="#DB9C7B"/>
  </g>
  <path d="M124.814 139.935C121.256 142.808 115.448 146.214 108.34 145.712C101.127 145.202 97.1963 141.684 95.2011 138.946C95.2801 133.648 95.0618 128.4 95.0618 128.4L105.757 124.033C109.289 124.299 112.948 124.577 116.152 124.813L124.938 128.4C124.938 128.4 124.69 134.312 124.814 139.927V139.935Z" fill="#C47347"/>
  <path d="M143.045 91.8261C143.045 116.615 130.827 136.708 110 136.708C89.1692 136.708 76.9548 116.615 76.9548 91.8261C76.9548 67.033 81.9547 45.2675 110 45.2675C138.045 45.2675 143.045 67.033 143.045 91.8261Z" fill="#DB9C7B"/>
  <path d="M77.5799 84.5178C77.5799 84.5178 74.1685 80.0094 68.3942 81.9799C62.6159 83.9504 63.2087 95.2214 68.3942 99.4461C73.5798 103.671 78.7654 99.726 78.7654 99.726L77.5839 84.5178H77.5799Z" fill="#DB9C7B"/>
  <path d="M74.8762 97.7702C74.1716 97.7702 73.2594 97.5569 72.1076 96.9131C70.244 95.8771 68.8847 93.706 68.8096 91.6453C68.7524 89.9999 69.4857 88.5791 70.8771 87.6536C71.9359 86.9527 72.984 86.747 74.0035 87.0479C75.842 87.5812 76.8364 89.5923 76.8758 89.6799C77.0546 90.0418 76.9187 90.4912 76.5753 90.6779C76.2355 90.8683 75.8206 90.7274 75.6417 90.3617C75.6346 90.3465 74.8762 88.8343 73.6314 88.4763C72.9912 88.2896 72.333 88.4344 71.614 88.9143C70.6518 89.5542 70.1617 90.4798 70.2011 91.5958C70.2547 93.1232 71.3278 94.8106 72.7515 95.6067C74.8977 96.8027 75.7168 96.0599 75.724 96.0523C75.978 95.7438 76.4179 95.7171 76.7041 95.9876C76.9903 96.2618 77.0153 96.7303 76.7613 97.035C76.6719 97.1455 76.0889 97.7778 74.8762 97.7778V97.7702Z" fill="#C37245"/>
  <path d="M142.42 84.5178C142.42 84.5178 145.831 80.0094 151.606 81.9799C157.384 83.9504 156.791 95.2214 151.606 99.4461C146.42 103.671 141.235 99.726 141.235 99.726L142.416 84.5178H142.42Z" fill="#DB9C7B"/>
  <path d="M145.131 97.7778C143.918 97.7778 143.339 97.1456 143.246 97.0351L144.283 96.0525C144.283 96.0525 144.28 96.0449 144.262 96.0335C144.269 96.0411 145.081 96.8218 147.25 95.6107C148.674 94.8186 149.744 93.1314 149.805 91.5966C149.845 90.4845 149.354 89.5552 148.392 88.9154C147.669 88.4355 147.007 88.2946 146.366 88.4774C145.128 88.8392 144.366 90.3436 144.362 90.3626C144.183 90.7282 143.764 90.8653 143.421 90.6787C143.081 90.4883 142.948 90.0427 143.12 89.6809C143.163 89.5971 144.158 87.5862 145.994 87.0454C147.017 86.7484 148.066 86.954 149.125 87.6548C150.517 88.5802 151.247 90.0008 151.19 91.6461C151.119 93.7065 149.762 95.8697 147.894 96.9132C146.738 97.5569 145.822 97.7663 145.124 97.7663L145.131 97.7778Z" fill="#C37245"/>
  <path d="M103.21 109.547H116.79C116.79 109.547 116.11 115.885 110 115.885C103.89 115.885 103.21 109.547 103.21 109.547Z" fill="white"/>
  <path d="M98.6832 89.1769C98.6832 89.598 98.6374 90.0019 98.5458 90.3885C98.4542 90.7785 98.3238 91.1202 98.1548 91.4171C97.9821 91.714 97.7884 91.9452 97.5665 92.104C97.3445 92.2662 97.112 92.3456 96.8725 92.3456C96.6329 92.3456 96.4004 92.2662 96.1785 92.104C95.9565 91.9452 95.7628 91.714 95.5902 91.4171C95.4211 91.1202 95.2907 90.7785 95.1992 90.3885C95.1076 90.0019 95.0618 89.598 95.0618 89.1769C95.0618 88.7558 95.1076 88.3519 95.1992 87.9653C95.2907 87.5753 95.4211 87.2336 95.5902 86.9367C95.7628 86.6399 95.9565 86.4086 96.1785 86.2498C96.4004 86.0876 96.6329 86.0082 96.8725 86.0082C97.112 86.0082 97.3445 86.0876 97.5665 86.2498C97.7884 86.4086 97.9821 86.6399 98.1548 86.9367C98.3238 87.2336 98.4542 87.5753 98.5458 87.9653C98.6374 88.3519 98.6832 88.7558 98.6832 89.1769Z" fill="#45150C"/>
  <path d="M124.938 89.1769C124.938 89.598 124.892 90.0019 124.801 90.3885C124.709 90.7785 124.579 91.1202 124.41 91.4171C124.237 91.714 124.044 91.9452 123.822 92.104C123.6 92.2662 123.367 92.3456 123.128 92.3456C122.888 92.3456 122.656 92.2662 122.434 92.104C122.212 91.9452 122.018 91.714 121.845 91.4171C121.676 91.1202 121.546 90.7785 121.454 90.3885C121.363 90.0019 121.317 89.598 121.317 89.1769C121.317 88.7558 121.363 88.3519 121.454 87.9653C121.546 87.5753 121.676 87.2336 121.845 86.9367C122.018 86.6399 122.212 86.4086 122.434 86.2498C122.656 86.0876 122.888 86.0082 123.128 86.0082C123.367 86.0082 123.6 86.0876 123.822 86.2498C124.044 86.4086 124.237 86.6399 124.41 86.9367C124.579 87.2336 124.709 87.5753 124.801 87.9653C124.892 88.3519 124.938 88.7558 124.938 89.1769Z" fill="#45150C"/>
  <path d="M98.9529 82.3868C98.7207 82.3868 98.4989 82.2412 98.388 81.9934C98.3499 81.9147 97.6013 80.3371 95.6119 80.2191C93.5533 80.0971 92.5967 81.5016 92.5898 81.5213C92.3784 81.8439 91.9798 81.9068 91.6956 81.6668C91.4149 81.4269 91.356 80.9744 91.5674 80.6518C91.6263 80.5692 92.9467 78.61 95.6743 78.7753C98.4331 78.9366 99.4797 81.242 99.5213 81.3403C99.6773 81.6983 99.5525 82.1311 99.2406 82.3081C99.147 82.3592 99.0534 82.3868 98.9564 82.3868H98.9529Z" fill="#45150C"/>
  <path d="M120.214 82.3868C120.106 82.3868 119.998 82.3592 119.894 82.308C119.548 82.1268 119.409 81.6976 119.578 81.3431C119.628 81.2446 120.792 78.9367 123.857 78.7753C126.884 78.6098 128.363 80.5751 128.417 80.6539C128.652 80.9768 128.59 81.4297 128.278 81.67C127.963 81.9102 127.52 81.8472 127.285 81.5243C127.246 81.4691 126.176 80.0986 123.926 80.2207C121.708 80.3388 120.872 81.926 120.842 81.9969C120.714 82.245 120.468 82.3868 120.214 82.3868Z" fill="#45150C"/>
  <path d="M110.643 103.21C110.643 103.21 110.614 103.21 110.603 103.21C110.488 103.198 107.82 103.013 106.988 100.748C106.852 100.383 106.49 99.3964 107.716 92.7865C108.308 89.6048 108.988 86.608 108.995 86.5811C109.087 86.1805 109.476 85.9301 109.856 86.0303C110.244 86.1266 110.484 86.531 110.388 86.9278C109.08 92.6633 107.949 99.2 108.323 100.213C108.825 101.573 110.665 101.715 110.688 101.715C111.083 101.742 111.382 102.097 111.356 102.509C111.334 102.902 111.017 103.21 110.643 103.21Z" fill="#C37245"/>
  <mask id="mask2_103_271" style="mask-type:luminance" maskUnits="userSpaceOnUse" x="78" y="92" width="62" height="20">
    <path d="M139.814 92.1689H78.2075V111.727H139.814V92.1689Z" fill="white"/>
  </mask>
  <g mask="url(#mask2_103_271)">
    <path d="M92.3944 97.6657C92.6809 97.9522 92.9368 98.2654 93.1622 98.6016C93.3876 98.9377 93.5786 99.293 93.7314 99.6673C93.888 100.042 94.0064 100.427 94.0828 100.825C94.163 101.222 94.2012 101.627 94.2012 102.032C94.2012 102.437 94.163 102.838 94.0828 103.235C94.0064 103.632 93.888 104.018 93.7314 104.392C93.5786 104.767 93.3876 105.122 93.1622 105.462C92.9368 105.798 92.6809 106.111 92.3944 106.398C92.1079 106.684 91.7947 106.94 91.4586 107.166C91.1224 107.391 90.7672 107.578 90.3928 107.735C90.0185 107.891 89.6288 108.006 89.2316 108.086C88.8343 108.166 88.4332 108.205 88.0283 108.205C87.6234 108.205 87.2223 108.166 86.8251 108.086C86.4278 108.006 86.042 107.891 85.6677 107.735C85.2895 107.578 84.9343 107.391 84.5981 107.166C84.262 106.94 83.9487 106.684 83.6623 106.398C83.3758 106.111 83.1198 105.798 82.8945 105.462C82.6691 105.122 82.4781 104.767 82.3253 104.392C82.1687 104.018 82.0541 103.632 81.9739 103.235C81.8937 102.838 81.8555 102.437 81.8555 102.032C81.8555 101.627 81.8937 101.222 81.9739 100.825C82.0541 100.427 82.1687 100.042 82.3253 99.6673C82.4781 99.293 82.6691 98.9377 82.8945 98.6016C83.1198 98.2654 83.3758 97.9522 83.6623 97.6657C83.9487 97.3792 84.262 97.1233 84.5981 96.8979C84.9343 96.6725 85.2895 96.4816 85.6677 96.3249C86.042 96.1721 86.4278 96.0537 86.8251 95.9735C87.2223 95.8971 87.6234 95.8551 88.0283 95.8551C88.4332 95.8551 88.8343 95.8971 89.2316 95.9735C89.6288 96.0537 90.0185 96.1721 90.3928 96.3249C90.7672 96.4816 91.1224 96.6725 91.4586 96.8979C91.7947 97.1233 92.1079 97.3792 92.3944 97.6657Z" fill="#FF4440"/>
    <path d="M133.404 96.0345C133.798 96.1262 134.18 96.2599 134.546 96.428C134.913 96.5999 135.261 96.8023 135.589 97.043C135.918 97.2798 136.22 97.5472 136.495 97.8451C136.77 98.1431 137.014 98.4678 137.224 98.8116C137.434 99.1592 137.61 99.5221 137.751 99.9002C137.893 100.282 137.992 100.672 138.057 101.073C138.122 101.474 138.145 101.875 138.126 102.28C138.11 102.685 138.057 103.086 137.961 103.479C137.866 103.873 137.732 104.255 137.564 104.622C137.392 104.992 137.19 105.34 136.953 105.668C136.712 105.993 136.445 106.295 136.147 106.57C135.849 106.845 135.528 107.089 135.181 107.303C134.837 107.513 134.474 107.689 134.092 107.83C133.714 107.968 133.32 108.071 132.919 108.132C132.522 108.197 132.117 108.22 131.712 108.205C131.307 108.189 130.91 108.132 130.513 108.036C130.119 107.945 129.737 107.811 129.371 107.639C129.004 107.471 128.656 107.265 128.328 107.028C127.999 106.791 127.697 106.52 127.422 106.222C127.147 105.928 126.903 105.603 126.693 105.259C126.479 104.912 126.303 104.549 126.166 104.171C126.024 103.789 125.921 103.399 125.86 102.998C125.795 102.597 125.772 102.196 125.788 101.791C125.807 101.386 125.86 100.985 125.956 100.592C126.051 100.198 126.185 99.8162 126.353 99.4457C126.521 99.0789 126.727 98.7313 126.964 98.4028C127.205 98.0743 127.472 97.7726 127.77 97.4975C128.068 97.2225 128.389 96.9819 128.736 96.7679C129.08 96.5579 129.443 96.3821 129.825 96.2408C130.203 96.1033 130.597 96.0002 130.994 95.9352C131.395 95.8741 131.8 95.8512 132.205 95.8665C132.61 95.8817 133.007 95.939 133.404 96.0345Z" fill="#FF4440"/>
  </g>
  <path d="M113.952 59.1649C113.952 59.5926 112.417 69.2211 105.578 72.1879C98.7382 75.1624 93.0159 71.6215 93.0159 71.6215C93.0159 71.6215 88.8287 81.25 80.0325 79.127C80.0325 79.127 80.3555 82.8297 76.7078 84.0241C76.7078 84.0241 73.1969 77.8556 73.3375 72.7581C73.4781 67.6607 81.1534 51.6632 93.3009 46.7122C105.448 41.7573 122.197 43.0326 128.06 46.7122C133.919 50.3917 137.974 54.0752 140.762 61.8581C143.555 69.6449 143 84.1975 143 84.1975C143 84.1975 132.384 79.2658 132.247 71.3441C132.247 71.3441 128.896 73.6058 122.334 70.2113C115.768 66.8169 113.956 59.1726 113.956 59.1726L113.952 59.1649Z" fill="#7D2416"/>
  <mask id="mask3_103_271" style="mask-type:luminance" maskUnits="userSpaceOnUse" x="34" y="152" width="152" height="69">
    <path d="M34.2029 152.797H185.774V220.023H34.2029V152.797Z" fill="white"/>
  </mask>
  <g mask="url(#mask3_103_271)">
    <path d="M174.827 168.413C178.482 172.302 182.489 182.149 185.327 190.152C180.27 194.907 174.765 199.186 168.875 202.925C157.599 210.087 144.929 215.252 131.361 217.922C124.45 219.282 117.304 219.996 109.989 219.996C102.674 219.996 95.5304 219.282 88.6127 217.922C75.0484 215.252 62.378 210.087 51.1018 202.925C45.2116 199.186 39.7073 194.907 34.6498 190.152C37.4917 182.149 41.4949 172.302 45.1505 168.413C45.6968 167.836 46.2736 167.324 46.8962 166.866C46.942 166.832 46.9955 166.793 47.0452 166.755C47.0986 166.717 47.1559 166.679 47.2056 166.641C47.2476 166.61 47.2896 166.583 47.3355 166.553C47.3928 166.515 47.4501 166.476 47.5074 166.438C47.9276 166.163 48.3668 165.907 48.8138 165.674C48.8787 165.644 48.9398 165.609 49.0009 165.579C49.062 165.548 49.1232 165.518 49.1881 165.487C49.2225 165.468 49.2607 165.453 49.2989 165.433C49.3409 165.411 49.3906 165.391 49.4364 165.369C49.551 165.315 49.6579 165.262 49.7725 165.216C49.8298 165.189 49.8871 165.166 49.9482 165.139C49.9788 165.128 50.0094 165.113 50.0476 165.101C50.1163 165.071 50.1813 165.044 50.2538 165.017C50.4143 164.948 50.5823 164.883 50.7504 164.822C50.8803 164.773 51.0063 164.727 51.1439 164.681C51.2012 164.666 51.2546 164.643 51.3158 164.624C51.3998 164.597 51.4838 164.566 51.5679 164.543C51.6748 164.505 51.7856 164.471 51.9002 164.437C51.9957 164.406 52.095 164.379 52.1905 164.349C52.3357 164.303 52.4846 164.261 52.6336 164.223C52.8399 164.165 53.0461 164.112 53.2524 164.058C53.3976 164.024 53.5427 163.99 53.6879 163.951C53.7146 163.948 53.7452 163.94 53.7719 163.936C53.8827 163.913 53.9858 163.886 54.0966 163.864C54.5588 163.764 55.0248 163.673 55.5023 163.592C55.636 163.569 55.7659 163.55 55.9034 163.524H55.9339C56.2433 163.466 56.5489 163.42 56.8622 163.375C56.8698 163.375 56.8736 163.375 56.8774 163.375C57.1868 163.329 57.4924 163.291 57.8018 163.249C57.9776 163.229 58.1533 163.207 58.329 163.184C58.5047 163.161 58.6804 163.145 58.8599 163.122C59.0357 163.103 59.2114 163.084 59.3871 163.065C59.5743 163.046 59.7538 163.027 59.9371 163.008C60.1128 162.989 60.2847 162.974 60.4605 162.954C61.4001 162.863 62.3551 162.779 63.3215 162.691C63.6729 162.66 64.0205 162.63 64.3758 162.599C65.6325 162.485 66.9122 162.362 68.1956 162.213C68.379 162.19 68.5585 162.168 68.7419 162.148C68.8603 162.133 68.9825 162.122 69.0933 162.103C69.2385 162.083 69.3836 162.068 69.5288 162.045C69.8458 162.007 70.1629 161.957 70.4837 161.915C70.5945 161.9 70.6976 161.885 70.8084 161.866C70.9612 161.843 71.1178 161.816 71.2706 161.789C71.4272 161.77 71.5838 161.744 71.7404 161.713C71.8665 161.69 71.9964 161.667 72.1263 161.644C72.2676 161.625 72.4051 161.598 72.5464 161.572C72.5999 161.564 72.6572 161.549 72.7221 161.541C72.8597 161.514 73.001 161.488 73.1423 161.457C73.4861 161.392 73.8261 161.32 74.1699 161.243C74.315 161.213 74.4602 161.174 74.6053 161.144C75.037 161.048 75.4686 160.938 75.8926 160.827C76.011 160.796 76.1294 160.762 76.2479 160.731C76.351 160.705 76.4503 160.674 76.5535 160.647C76.6986 160.609 76.8438 160.571 76.9813 160.525C77.1646 160.475 77.3327 160.426 77.5084 160.372C77.8598 160.265 78.2036 160.162 78.5436 160.051C78.7117 159.998 78.8759 159.944 79.0402 159.887C79.2082 159.834 79.3687 159.776 79.5367 159.723C79.701 159.666 79.8614 159.608 80.018 159.551C80.1747 159.494 80.3313 159.436 80.4841 159.379C80.4841 159.379 80.4879 159.379 80.4955 159.379C80.6483 159.322 80.8011 159.264 80.9539 159.203C81.0723 159.157 81.1907 159.112 81.313 159.066C81.3435 159.054 81.3779 159.039 81.4085 159.028C81.5307 158.978 81.6529 158.928 81.7714 158.882C81.8248 158.86 81.8783 158.84 81.928 158.818C82.0464 158.768 82.1648 158.718 82.2832 158.665C82.31 158.657 82.3367 158.646 82.3596 158.634C82.4818 158.588 82.5926 158.535 82.7072 158.485C82.8486 158.424 82.9861 158.363 83.1274 158.302C83.2611 158.241 83.3986 158.18 83.5361 158.111C83.815 157.981 84.09 157.847 84.3612 157.714C84.6324 157.576 84.8922 157.446 85.1481 157.309C85.2436 157.259 85.3353 157.209 85.4269 157.16C85.6714 157.026 85.9044 156.896 86.1374 156.759C86.3743 156.617 86.6073 156.48 86.8365 156.338C86.909 156.293 86.9816 156.247 87.0542 156.201C88.2154 155.464 89.2162 154.707 90.0719 153.943C90.1139 153.909 90.1483 153.871 90.1865 153.84C90.2781 153.756 90.3736 153.676 90.4615 153.592C90.4615 153.592 100.458 159.142 110 159.142C119.546 159.142 129.542 153.592 129.542 153.592C129.63 153.676 129.722 153.756 129.817 153.84C129.852 153.878 129.89 153.913 129.928 153.943C130.788 154.704 131.785 155.464 132.95 156.201C133.022 156.247 133.095 156.293 133.167 156.338C133.397 156.48 133.63 156.617 133.866 156.759C134.096 156.892 134.332 157.022 134.573 157.16C134.669 157.209 134.764 157.259 134.856 157.309C135.112 157.446 135.375 157.58 135.643 157.714C135.91 157.843 136.189 157.981 136.468 158.111C136.601 158.176 136.735 158.237 136.876 158.302C137.014 158.363 137.155 158.424 137.293 158.485C137.407 158.535 137.526 158.588 137.64 158.634C137.667 158.649 137.69 158.657 137.721 158.665C137.839 158.714 137.957 158.768 138.076 158.818C138.129 158.837 138.183 158.86 138.232 158.882C138.351 158.928 138.473 158.982 138.595 159.028C138.626 159.039 138.66 159.054 138.691 159.066C138.809 159.115 138.928 159.157 139.05 159.203C139.203 159.264 139.355 159.322 139.508 159.379C139.508 159.379 139.512 159.379 139.52 159.379C139.673 159.436 139.825 159.494 139.986 159.551C140.142 159.608 140.307 159.666 140.467 159.723C140.631 159.776 140.796 159.834 140.964 159.887C141.132 159.944 141.292 159.998 141.46 160.051C141.8 160.162 142.14 160.265 142.492 160.372C142.667 160.426 142.843 160.475 143.019 160.525C143.16 160.563 143.305 160.609 143.45 160.647C143.553 160.674 143.653 160.705 143.756 160.731C143.874 160.762 143.993 160.796 144.111 160.827C144.535 160.941 144.967 161.048 145.398 161.144C145.544 161.178 145.689 161.213 145.834 161.243C146.174 161.316 146.518 161.388 146.861 161.457C147.003 161.484 147.144 161.514 147.282 161.541C147.339 161.549 147.396 161.564 147.457 161.572C147.599 161.598 147.736 161.617 147.878 161.644C148.004 161.667 148.13 161.69 148.263 161.713C148.42 161.74 148.577 161.763 148.733 161.789C148.886 161.816 149.039 161.839 149.195 161.866C149.306 161.885 149.409 161.896 149.52 161.915C149.837 161.957 150.154 162.007 150.475 162.045C150.616 162.064 150.762 162.083 150.907 162.103C151.025 162.122 151.147 162.133 151.258 162.148C151.445 162.168 151.625 162.19 151.808 162.213C153.092 162.362 154.367 162.481 155.628 162.599C155.979 162.63 156.331 162.66 156.682 162.691C157.649 162.779 158.607 162.863 159.543 162.954C159.719 162.974 159.891 162.989 160.067 163.008C160.25 163.027 160.43 163.046 160.617 163.065C160.792 163.084 160.968 163.103 161.144 163.122C161.323 163.145 161.499 163.161 161.675 163.184C161.851 163.207 162.026 163.229 162.202 163.249C162.515 163.291 162.821 163.333 163.123 163.375C163.13 163.375 163.138 163.375 163.142 163.375C163.455 163.417 163.76 163.466 164.07 163.516H164.1C164.23 163.543 164.364 163.566 164.502 163.592C164.975 163.676 165.445 163.768 165.907 163.864C166.014 163.886 166.125 163.913 166.232 163.936C166.259 163.944 166.289 163.948 166.316 163.951C166.461 163.99 166.606 164.024 166.751 164.058C166.958 164.112 167.168 164.165 167.37 164.223C167.519 164.261 167.668 164.303 167.813 164.349C167.909 164.375 168.008 164.406 168.104 164.437C168.218 164.471 168.329 164.505 168.436 164.543C168.52 164.566 168.604 164.593 168.688 164.624C168.745 164.643 168.803 164.666 168.86 164.681C168.99 164.727 169.124 164.773 169.253 164.822C169.421 164.883 169.586 164.945 169.75 165.017C169.823 165.044 169.887 165.074 169.956 165.101C169.987 165.113 170.025 165.128 170.056 165.139C170.117 165.162 170.174 165.189 170.231 165.216C170.346 165.262 170.457 165.315 170.567 165.369C170.613 165.391 170.659 165.407 170.705 165.433C170.739 165.453 170.778 165.468 170.816 165.487C170.881 165.518 170.942 165.548 171.003 165.579C171.064 165.609 171.125 165.64 171.186 165.674C171.641 165.907 172.076 166.163 172.496 166.438C172.554 166.48 172.611 166.518 172.668 166.553C172.707 166.579 172.752 166.61 172.798 166.641C172.852 166.679 172.905 166.717 172.959 166.755C173.012 166.793 173.062 166.832 173.108 166.866C173.726 167.324 174.307 167.836 174.853 168.413H174.827Z" fill="#FBFDEF"/>
  </g>
  <path d="M88.7165 218.189C74.9693 215.522 62.1279 210.362 50.6996 203.207C53.6109 191.419 56.3479 177.494 57.4861 163.569C57.6642 163.55 57.8423 163.527 58.0204 163.504C58.1984 163.481 58.3765 163.466 58.5585 163.443C58.7366 163.424 58.9147 163.405 59.0927 163.386C59.2786 163.367 59.4644 163.348 59.6502 163.329C59.8283 163.309 60.0025 163.294 60.1806 163.275C61.133 163.183 62.1008 163.1 63.0803 163.012C63.4364 162.981 63.7887 162.951 64.1488 162.92C65.4224 162.806 66.7194 162.684 68.0163 162.535C68.206 162.512 68.3879 162.489 68.5737 162.47C68.6938 162.455 68.8138 162.443 68.9299 162.424C69.077 162.405 69.2241 162.39 69.3713 162.367C69.6926 162.329 70.0139 162.279 70.3391 162.237C70.4514 162.222 70.5559 162.207 70.6682 162.187C70.823 162.165 70.9779 162.138 71.1366 162.111C71.2953 162.092 71.4502 162.065 71.6128 162.035C71.7405 162.012 71.8722 161.989 72.0038 161.966C72.147 161.947 72.2864 161.92 72.4258 161.894C72.4838 161.886 72.5419 161.871 72.6039 161.863C72.7471 161.836 72.8903 161.81 73.0336 161.779C73.382 161.714 73.7266 161.642 74.075 161.565C74.2221 161.535 74.3692 161.497 74.5163 161.466C74.9538 161.371 75.3874 161.26 75.821 161.149C75.941 161.119 76.061 161.085 76.181 161.054C76.2855 161.027 76.3862 160.997 76.4907 160.97C76.634 160.932 76.7811 160.894 76.9243 160.848C77.1063 160.798 77.2805 160.749 77.4586 160.695C77.8147 160.589 78.1632 160.485 78.5077 160.375C78.6742 160.321 78.8445 160.268 79.011 160.211C79.1775 160.157 79.3439 160.1 79.5143 160.047C79.6807 159.989 79.8433 159.932 80.0021 159.875C80.1569 159.818 80.3195 159.76 80.4744 159.703C80.4744 159.703 80.4782 159.703 80.4821 159.703C80.6408 159.646 80.7957 159.589 80.9505 159.528C81.0706 159.482 81.1906 159.436 81.3106 159.39C81.3416 159.379 81.3803 159.364 81.4112 159.352C81.5351 159.302 81.659 159.253 81.779 159.207C81.8332 159.184 81.8874 159.165 81.9339 159.142C82.0578 159.093 82.1778 159.043 82.2978 158.99C82.3249 158.982 82.3481 158.97 82.3752 158.959C82.4952 158.913 82.6114 158.86 82.7275 158.81C82.8708 158.749 83.0101 158.688 83.1534 158.627C83.2889 158.566 83.4282 158.505 83.5637 158.436C83.5908 170.839 84.2683 195.915 88.7243 218.182L88.7165 218.189Z" fill="#F9B96F"/>
  <path d="M169.297 203.204C157.868 210.361 145.027 215.521 131.276 218.189C135.736 195.922 136.413 170.833 136.436 158.436C136.568 158.497 136.707 158.558 136.851 158.623C136.986 158.684 137.129 158.745 137.273 158.81C137.389 158.856 137.509 158.91 137.625 158.959C137.652 158.971 137.671 158.978 137.702 158.99C137.826 159.035 137.946 159.089 138.066 159.139C138.116 159.161 138.171 159.181 138.221 159.203C138.341 159.253 138.465 159.306 138.589 159.348C138.62 159.364 138.658 159.375 138.689 159.387C138.809 159.436 138.929 159.482 139.049 159.524C139.204 159.585 139.359 159.642 139.518 159.7C139.518 159.7 139.522 159.7 139.526 159.7C139.681 159.757 139.839 159.814 139.998 159.871C140.157 159.929 140.323 159.986 140.486 160.043C140.652 160.1 140.823 160.158 140.989 160.211C141.159 160.268 141.326 160.318 141.492 160.371C141.837 160.482 142.185 160.585 142.541 160.692C142.72 160.745 142.898 160.799 143.076 160.845C143.219 160.887 143.366 160.929 143.513 160.971C143.614 160.994 143.718 161.028 143.819 161.051C143.939 161.081 144.059 161.119 144.179 161.15C144.613 161.265 145.046 161.368 145.484 161.467C145.631 161.501 145.778 161.532 145.925 161.562C146.273 161.635 146.622 161.707 146.966 161.776C147.11 161.803 147.253 161.833 147.396 161.86C147.454 161.868 147.512 161.883 147.574 161.89C147.718 161.917 147.853 161.94 147.996 161.967C148.124 161.986 148.256 162.009 148.387 162.032C148.55 162.058 148.705 162.085 148.863 162.112C149.022 162.139 149.177 162.158 149.332 162.184C149.444 162.203 149.553 162.215 149.661 162.234C149.982 162.276 150.304 162.326 150.629 162.364C150.776 162.383 150.923 162.406 151.07 162.421C151.19 162.44 151.31 162.452 151.426 162.467C151.612 162.49 151.794 162.509 151.984 162.532C153.285 162.681 154.574 162.799 155.851 162.917C156.207 162.948 156.564 162.978 156.92 163.009C157.899 163.1 158.871 163.181 159.819 163.276C159.998 163.291 160.172 163.31 160.35 163.326C160.54 163.345 160.721 163.368 160.907 163.383C161.085 163.402 161.263 163.425 161.442 163.44C161.624 163.463 161.802 163.482 161.98 163.501C162.158 163.524 162.336 163.547 162.514 163.57C163.652 177.498 166.389 191.425 169.3 203.212L169.297 203.204Z" fill="#F9B96F"/>
  <path d="M73.3333 121.317C70.96 121.317 69.7119 116.536 69.7119 111.809C69.7119 107.086 70.9526 102.305 73.3333 102.305C75.7103 102.305 76.9547 107.086 76.9547 111.809C76.9547 116.536 75.7103 121.317 73.3333 121.317ZM73.3333 103.796C72.5956 103.796 71.1612 106.623 71.1612 111.805C71.1612 116.987 72.5956 119.814 73.3333 119.814C74.071 119.814 75.5054 116.987 75.5054 111.805C75.5054 106.623 74.071 103.796 73.3333 103.796Z" fill="#FA856D"/>
  <path d="M75.1441 100.947C75.1441 101.245 75.0858 101.537 74.9732 101.812C74.8568 102.092 74.6937 102.336 74.4802 102.546C74.2705 102.76 74.026 102.923 73.7464 103.039C73.4708 103.152 73.1796 103.21 72.8807 103.21C72.5817 103.21 72.2906 103.152 72.0149 103.039C71.7354 102.923 71.4908 102.76 71.2773 102.546C71.0677 102.336 70.9046 102.092 70.7881 101.812C70.6717 101.537 70.6173 101.245 70.6173 100.947C70.6173 100.648 70.6717 100.356 70.7881 100.081C70.9046 99.8013 71.0677 99.5567 71.2773 99.3432C71.4908 99.1335 71.7354 98.9705 72.0149 98.854C72.2906 98.7375 72.5817 98.6832 72.8807 98.6832C73.1796 98.6832 73.4708 98.7375 73.7464 98.854C74.026 98.9705 74.2705 99.1335 74.4802 99.3432C74.6937 99.5567 74.8568 99.8013 74.9732 100.081C75.0858 100.356 75.1441 100.648 75.1441 100.947Z" fill="white"/>
  <path d="M143.045 111.809C143.045 107.086 144.29 102.305 146.667 102.305C149.047 102.305 150.288 107.086 150.288 111.809C150.288 116.536 149.047 121.317 146.667 121.317C144.29 121.317 143.045 116.536 143.045 111.809ZM144.494 111.809C144.494 116.99 145.929 119.818 146.667 119.818C147.404 119.818 148.839 116.99 148.839 111.809C148.839 106.627 147.404 103.803 146.667 103.803C145.929 103.803 144.494 106.627 144.494 111.809Z" fill="#FA856D"/>
  <path d="M148.477 100.947C148.477 101.245 148.431 101.537 148.341 101.812C148.248 102.092 148.117 102.336 147.946 102.546C147.779 102.76 147.583 102.923 147.359 103.039C147.139 103.152 146.906 103.21 146.667 103.21C146.428 103.21 146.195 103.152 145.974 103.039C145.75 102.923 145.555 102.76 145.387 102.546C145.216 102.336 145.086 102.092 144.993 101.812C144.903 101.537 144.856 101.245 144.856 100.947C144.856 100.648 144.903 100.356 144.993 100.081C145.086 99.8013 145.216 99.5567 145.387 99.3432C145.555 99.1335 145.75 98.9705 145.974 98.854C146.195 98.7375 146.428 98.6832 146.667 98.6832C146.906 98.6832 147.139 98.7375 147.359 98.854C147.583 98.9705 147.779 99.1335 147.946 99.3432C148.117 99.5567 148.248 99.8013 148.341 100.081C148.431 100.356 148.477 100.648 148.477 100.947Z" fill="white"/>
</svg>