<svg xmlns="http://www.w3.org/2000/svg" width="40" height="40" viewBox="0 0 40 40" fill="none">
  <path fill-rule="evenodd" clip-rule="evenodd" d="M13.2333 21.7667C12.7652 21.2979 12.5022 20.6625 12.5022 20C12.5022 19.3375 12.7652 18.7021 13.2333 18.2333L22.66 8.80335C23.129 8.33458 23.765 8.07132 24.4281 8.07147C24.7564 8.07155 25.0815 8.1363 25.3848 8.26201C25.6881 8.38773 25.9637 8.57196 26.1958 8.80418C26.4279 9.0364 26.612 9.31207 26.7376 9.61544C26.8632 9.91881 26.9278 10.2439 26.9277 10.5723C26.9276 10.9006 26.8629 11.2257 26.7372 11.529C26.6114 11.8323 26.4272 12.1079 26.195 12.34L18.5367 20L26.1967 27.66C26.4355 27.8905 26.6261 28.1663 26.7573 28.4712C26.8885 28.7762 26.9576 29.1042 26.9606 29.4362C26.9637 29.7681 26.9006 30.0973 26.775 30.4046C26.6494 30.7119 26.4639 30.9911 26.2293 31.226C25.9947 31.4608 25.7157 31.6466 25.4085 31.7724C25.1013 31.8983 24.7721 31.9617 24.4402 31.959C24.1082 31.9562 23.7802 31.8874 23.4751 31.7565C23.17 31.6257 22.8941 31.4354 22.6633 31.1967L13.23 21.7667H13.2333Z" fill="black"/>
</svg>