<svg xmlns="http://www.w3.org/2000/svg" width="40" height="41" viewBox="0 0 40 41" fill="gold">
  <path d="M33.4867 24.3767L33.8084 21.22C33.98 19.535 34.0917 18.4234 34.0034 17.7217H34.0367C35.4884 17.7217 36.6667 16.4784 36.6667 14.945C36.6667 13.4117 35.4884 12.1667 34.035 12.1667C32.5817 12.1667 31.4034 13.41 31.4034 14.945C31.4034 15.6384 31.645 16.2734 32.0434 16.76C31.4717 17.1317 30.7234 17.9184 29.5967 19.1017C28.73 20.0134 28.2967 20.4684 27.8134 20.54C27.5448 20.5783 27.271 20.5378 27.025 20.4234C26.5784 20.2167 26.28 19.6534 25.685 18.525L22.545 12.5834C22.1784 11.8884 21.87 11.3067 21.5917 10.8384C22.73 10.225 23.5084 8.97671 23.5084 7.53837C23.5084 5.49004 21.9384 3.83337 20 3.83337C18.0617 3.83337 16.4917 5.49171 16.4917 7.53671C16.4917 8.97671 17.27 10.225 18.4084 10.8367C18.13 11.3067 17.8234 11.8884 17.455 12.5834L14.3167 18.5267C13.72 19.6534 13.4217 20.2167 12.975 20.425C12.7291 20.5395 12.4552 20.58 12.1867 20.5417C11.7034 20.47 11.27 20.0134 10.4034 19.1017C9.27671 17.9184 8.52837 17.1317 7.95671 16.76C8.35671 16.2734 8.59671 15.6384 8.59671 14.9434C8.59671 13.4117 7.41671 12.1667 5.96337 12.1667C4.51337 12.1667 3.33337 13.41 3.33337 14.945C3.33337 16.4784 4.51171 17.7217 5.96504 17.7217H5.99671C5.90671 18.4217 6.02004 19.535 6.19171 21.22L6.51337 24.3767C6.69171 26.1284 6.84004 27.795 7.02337 29.2967H32.9767C33.16 27.7967 33.3084 26.1284 33.4867 24.3767ZM18.0917 37.1667H21.9084C26.8834 37.1667 29.3717 37.1667 31.0317 35.6C31.755 34.9134 32.215 33.68 32.545 32.0734H7.45504C7.78504 33.68 8.24337 34.9134 8.96837 35.5984C10.6284 37.1667 13.1167 37.1667 18.0917 37.1667Z" fill="currentColor"/>
</svg>