<svg width="28" height="38" viewBox="0 0 28 38" fill="none" xmlns="http://www.w3.org/2000/svg">
<g id="Group">
<path id="Vector" fill-rule="evenodd" clip-rule="evenodd" d="M14.9884 36.2633L14.97 36.2666L14.8517 36.325L14.8184 36.3316L14.795 36.325L14.6767 36.2666C14.6589 36.2611 14.6456 36.2639 14.6367 36.275L14.63 36.2916L14.6017 37.005L14.61 37.0383L14.6267 37.06L14.8 37.1833L14.825 37.19L14.845 37.1833L15.0184 37.06L15.0384 37.0333L15.045 37.005L15.0167 36.2933C15.0123 36.2755 15.0028 36.2655 14.9884 36.2633ZM15.43 36.075L15.4084 36.0783L15.1 36.2333L15.0834 36.25L15.0784 36.2683L15.1084 36.985L15.1167 37.005L15.13 37.0166L15.465 37.1716C15.4862 37.1772 15.5023 37.1728 15.5134 37.1583L15.52 37.135L15.4634 36.1116C15.4578 36.0916 15.4467 36.0794 15.43 36.075ZM14.2384 36.0783C14.231 36.0739 14.2223 36.0724 14.2139 36.0743C14.2055 36.0761 14.1981 36.0812 14.1934 36.0883L14.1834 36.1116L14.1267 37.135C14.1278 37.155 14.1373 37.1683 14.155 37.175L14.18 37.1716L14.515 37.0166L14.5317 37.0033L14.5384 36.985L14.5667 36.2683L14.5617 36.2483L14.545 36.2316L14.2384 36.0783Z" fill="currentColor"/>
<path id="Vector_2" fill-rule="evenodd" clip-rule="evenodd" d="M7.47332 1.83337C7.74332 1.22504 8.34499 0.833374 9.01165 0.833374H22.3067C23.5567 0.833374 24.3717 2.15004 23.8117 3.27004L20.03 10.8334H25.6267C27.1267 10.8334 27.8767 12.6467 26.8167 13.7067L6.89499 33.6284C5.63832 34.885 3.54499 33.5917 4.10832 31.9067L8.35499 19.1667H2.35832C2.07789 19.1667 1.80191 19.0966 1.55545 18.9629C1.30898 18.8291 1.09983 18.6359 0.947003 18.4008C0.794174 18.1657 0.702506 17.8961 0.680324 17.6165C0.658142 17.337 0.706149 17.0563 0.819985 16.8L7.47332 1.83337Z" fill="currentColor"/>
</g>
</svg>
