<svg xmlns="http://www.w3.org/2000/svg" width="32" height="34" viewBox="0 0 32 34" fill="none">
  <path d="M14.0416 33.6667C13.2916 33.6667 12.6461 33.4167 12.105 32.9167C11.5639 32.4167 11.2372 31.8056 11.125 31.0833L10.75 28.3333C10.3889 28.1945 10.0489 28.0278 9.72997 27.8333C9.41108 27.6389 9.0983 27.4306 8.79163 27.2083L6.2083 28.2917C5.51386 28.5972 4.81941 28.625 4.12497 28.375C3.43052 28.125 2.88886 27.6806 2.49997 27.0417L0.541634 23.625C0.152745 22.9861 0.0416342 22.3056 0.208301 21.5833C0.374968 20.8611 0.749967 20.2639 1.3333 19.7917L3.54163 18.125C3.51386 17.9306 3.49997 17.7428 3.49997 17.5617V16.4367C3.49997 16.2567 3.51386 16.0695 3.54163 15.875L1.3333 14.2083C0.749967 13.7361 0.374968 13.1389 0.208301 12.4167C0.0416342 11.6945 0.152745 11.0139 0.541634 10.375L2.49997 6.95834C2.88886 6.31945 3.43052 5.87501 4.12497 5.62501C4.81941 5.37501 5.51386 5.40279 6.2083 5.70834L8.79163 6.79168C9.09719 6.56945 9.41663 6.36112 9.74997 6.16668C10.0833 5.97223 10.4166 5.80557 10.75 5.66668L11.125 2.91668C11.2361 2.19445 11.5627 1.58334 12.105 1.08334C12.6472 0.583344 13.2927 0.333344 14.0416 0.333344H17.9583C18.7083 0.333344 19.3544 0.583344 19.8966 1.08334C20.4389 1.58334 20.765 2.19445 20.875 2.91668L21.25 5.66668C21.6111 5.80557 21.9516 5.97223 22.2716 6.16668C22.5916 6.36112 22.9039 6.56945 23.2083 6.79168L25.7916 5.70834C26.4861 5.40279 27.1805 5.37501 27.875 5.62501C28.5694 5.87501 29.1111 6.31945 29.5 6.95834L31.4583 10.375C31.8472 11.0139 31.9583 11.6945 31.7916 12.4167C31.625 13.1389 31.25 13.7361 30.6666 14.2083L28.4583 15.875C28.4861 16.0695 28.5 16.2572 28.5 16.4383V17.5617C28.5 17.7428 28.4722 17.9306 28.4166 18.125L30.625 19.7917C31.2083 20.2639 31.5833 20.8611 31.75 21.5833C31.9166 22.3056 31.8055 22.9861 31.4166 23.625L29.4166 27.0417C29.0277 27.6806 28.4861 28.125 27.7916 28.375C27.0972 28.625 26.4027 28.5972 25.7083 28.2917L23.2083 27.2083C22.9027 27.4306 22.5833 27.6389 22.25 27.8333C21.9166 28.0278 21.5833 28.1945 21.25 28.3333L20.875 31.0833C20.7639 31.8056 20.4377 32.4167 19.8966 32.9167C19.3555 33.4167 18.7094 33.6667 17.9583 33.6667H14.0416ZM14.3333 30.3333H17.625L18.2083 25.9167C19.0694 25.6945 19.8683 25.3683 20.605 24.9383C21.3416 24.5083 22.015 23.9872 22.625 23.375L26.75 25.0833L28.375 22.25L24.7916 19.5417C24.9305 19.1528 25.0277 18.7433 25.0833 18.3133C25.1389 17.8833 25.1666 17.4456 25.1666 17C25.1666 16.5545 25.1389 16.1172 25.0833 15.6883C25.0277 15.2595 24.9305 14.8495 24.7916 14.4583L28.375 11.75L26.75 8.91668L22.625 10.6667C22.0139 10.0278 21.3405 9.49334 20.605 9.06334C19.8694 8.63334 19.0705 8.30668 18.2083 8.08334L17.6666 3.66668H14.375L13.7916 8.08334C12.9305 8.30557 12.1322 8.63223 11.3966 9.06334C10.6611 9.49445 9.98719 10.015 9.37497 10.625L5.24997 8.91668L3.62497 11.75L7.2083 14.4167C7.06941 14.8333 6.97219 15.25 6.91663 15.6667C6.86108 16.0833 6.8333 16.5278 6.8333 17C6.8333 17.4445 6.86108 17.875 6.91663 18.2917C6.97219 18.7083 7.06941 19.125 7.2083 19.5417L3.62497 22.25L5.24997 25.0833L9.37497 23.3333C9.98608 23.9722 10.66 24.5072 11.3966 24.9383C12.1333 25.3695 12.9316 25.6956 13.7916 25.9167L14.3333 30.3333ZM16.0833 22.8333C17.6944 22.8333 19.0694 22.2639 20.2083 21.125C21.3472 19.9861 21.9166 18.6111 21.9166 17C21.9166 15.3889 21.3472 14.0139 20.2083 12.875C19.0694 11.7361 17.6944 11.1667 16.0833 11.1667C14.4444 11.1667 13.0627 11.7361 11.9383 12.875C10.8139 14.0139 10.2511 15.3889 10.25 17C10.2489 18.6111 10.8116 19.9861 11.9383 21.125C13.065 22.2639 14.4466 22.8333 16.0833 22.8333Z" fill="black"/>
</svg>